{"glyphs":{"0":{"ha":844,"x_min":57,"x_max":788,"o":"m 422 -4 q 164 139 271 -4 q 57 485 57 282 q 164 831 57 688 q 422 974 271 974 q 681 831 574 974 q 788 485 788 688 q 681 139 788 282 q 422 -4 574 -4 m 422 6 q 522 78 475 6 q 598 258 568 150 q 631 479 628 365 q 600 706 631 596 q 522 890 569 817 q 422 964 475 964 q 322 890 369 964 q 244 706 275 817 q 214 483 214 596 q 245 261 215 369 q 323 79 275 153 q 422 6 371 6 z "},"1":{"ha":483,"x_min":33,"x_max":436,"o":"m 436 0 l 96 0 l 96 10 q 160 36 133 10 q 188 100 188 63 l 188 749 q 160 811 188 788 q 100 835 133 835 q 40 810 68 835 l 33 817 l 186 969 l 346 969 l 346 100 q 372 36 346 63 q 436 10 399 10 l 436 0 z "},"2":{"ha":785,"x_min":49,"x_max":721,"o":"m 719 0 l 49 0 q 231 161 131 64 q 382 315 319 244 q 554 653 503 453 q 564 738 564 692 q 561 799 564 761 q 488 942 551 893 q 433 967 463 961 l 431 968 q 393 972 411 972 q 269 931 329 972 l 265 928 q 206 875 239 915 q 171 797 176 829 q 161 714 161 761 l 163 682 l 79 615 l 79 978 l 432 978 q 507 972 475 976 q 604 936 556 967 q 686 853 653 906 q 721 722 721 792 q 718 682 721 694 q 622 496 713 604 q 428 301 538 394 l 390 269 q 304 203 342 226 q 243 157 275 182 l 501 157 q 592 181 568 163 q 617 199 613 193 l 618 200 q 639 260 639 224 l 638 274 q 682 307 642 275 l 721 340 l 721 1 l 719 0 z "},"3":{"ha":789,"x_min":57,"x_max":735,"o":"m 396 -6 q 156 95 256 -6 q 57 339 57 196 q 61 390 57 367 l 74 447 q 114 539 94 507 l 294 539 l 294 529 q 261 522 275 529 q 225 468 247 514 q 169 235 169 349 q 257 47 169 107 l 272 38 q 347 18 310 18 q 421 44 393 22 q 515 144 460 68 q 578 342 569 219 l 578 351 q 563 466 578 404 q 514 580 549 528 q 422 656 479 632 q 354 667 386 667 q 310 663 329 667 l 303 671 l 481 817 l 351 817 q 323 815 344 817 q 278 803 301 813 q 240 774 256 794 q 219 728 225 753 q 213 697 213 704 l 213 694 q 132 622 174 657 l 131 621 l 131 974 l 671 972 l 671 963 l 326 678 q 397 683 350 682 q 612 605 518 683 q 729 401 706 526 q 735 339 735 369 q 635 96 735 197 q 396 -6 536 -6 z "},"4":{"ha":760,"x_min":69,"x_max":704,"o":"m 704 0 l 364 0 l 364 10 q 429 36 403 10 q 456 100 456 63 l 456 232 l 69 232 l 451 775 q 419 819 442 803 q 368 835 396 835 q 308 810 336 835 l 301 817 l 456 969 l 614 969 l 614 254 q 683 361 683 290 l 693 361 l 693 167 l 683 167 q 665 213 683 194 q 614 232 646 232 l 614 100 q 640 36 614 63 q 704 10 667 10 l 704 0 m 456 242 q 454 763 456 756 l 89 242 l 456 242 z "},"5":{"ha":794,"x_min":56,"x_max":738,"o":"m 393 -4 q 183 68 276 -4 q 57 263 89 140 l 56 271 l 200 431 l 207 424 q 153 233 153 322 q 233 51 153 111 q 321 28 278 28 q 396 39 364 28 q 432 53 428 50 q 561 214 528 101 q 581 331 581 278 q 511 548 578 449 q 338 656 444 647 q 250 635 292 656 q 177 587 208 614 q 127 538 146 560 q 106 512 108 517 q 99 501 103 507 q 92 485 96 494 l 79 489 l 169 974 q 661 972 175 972 l 663 971 l 663 621 l 579 674 q 436 811 579 803 l 150 811 l 93 510 q 226 640 143 596 q 393 685 310 685 q 523 659 460 685 q 636 583 586 633 q 712 470 686 533 q 738 340 738 407 q 712 210 738 274 q 635 97 686 147 q 522 21 585 46 q 393 -4 458 -4 z "},"6":{"ha":919,"x_min":57,"x_max":861,"o":"m 472 -4 q 408 1 443 -4 q 100 263 196 40 l 100 264 q 57 482 57 368 q 175 826 57 683 q 460 968 293 968 l 810 968 l 810 625 l 719 690 q 722 726 722 704 q 706 814 722 763 q 615 928 685 883 q 524 953 575 953 q 372 878 457 953 q 217 618 257 767 q 267 652 232 631 q 356 692 303 674 q 475 710 408 710 q 768 586 650 710 q 834 481 814 532 q 858 406 854 431 q 861 353 861 382 q 857 297 861 324 q 793 151 853 244 q 606 18 718 53 q 472 -4 533 -4 m 511 14 q 542 18 525 14 q 662 136 618 42 q 706 340 706 231 q 675 508 706 422 q 529 674 633 629 q 447 689 486 689 q 357 675 406 689 q 213 596 267 650 l 211 589 q 201 475 201 539 q 258 215 201 342 q 429 35 315 88 q 511 14 475 14 z "},"7":{"ha":760,"x_min":51,"x_max":690,"o":"m 276 0 l 274 1 l 118 1 l 118 11 q 244 49 188 11 q 328 151 300 88 l 611 813 l 279 813 q 176 776 215 813 q 136 675 136 740 l 53 622 l 53 635 l 51 633 l 51 974 l 53 975 l 681 975 l 681 976 l 690 972 l 335 144 q 328 108 328 126 q 356 40 328 69 q 425 11 383 11 l 425 1 l 276 1 l 276 0 z "},"8":{"ha":775,"x_min":51,"x_max":719,"o":"m 397 -3 l 381 -3 q 187 44 286 -3 q 57 185 88 90 q 51 231 51 208 q 68 318 51 281 q 186 467 114 424 q 256 501 235 496 q 203 552 239 511 q 151 667 167 593 q 147 708 147 678 q 217 886 147 806 q 301 953 251 926 q 410 979 350 979 q 581 915 507 978 q 660 776 650 856 l 660 768 q 647 701 660 731 q 532 574 604 607 q 463 549 482 550 q 610 446 536 511 q 719 246 719 349 q 596 60 710 129 q 397 -3 503 4 m 414 578 q 460 606 433 585 q 515 690 504 647 q 528 765 526 733 q 519 832 528 789 q 457 931 510 889 q 372 963 417 963 q 349 960 361 963 q 297 933 318 951 q 265 898 276 915 q 252 876 254 881 q 248 865 250 871 q 243 856 246 860 q 238 818 238 838 q 261 731 238 772 q 309 662 285 689 q 340 629 333 635 q 414 578 364 606 m 435 17 q 549 50 497 17 l 551 53 q 576 74 563 60 q 607 147 607 104 q 583 231 607 185 q 356 436 524 344 q 274 478 294 469 q 256 463 267 474 q 194 292 194 393 q 215 176 194 233 q 279 78 236 119 q 326 44 292 65 q 435 17 369 18 z "},"9":{"ha":919,"x_min":58,"x_max":863,"o":"m 460 -4 l 110 -4 l 110 339 q 200 275 154 306 q 197 238 197 260 q 214 150 197 201 q 304 38 235 79 q 396 11 340 11 q 547 86 461 11 q 703 346 663 197 q 652 312 688 333 q 565 272 617 290 q 444 254 513 254 q 151 378 269 254 q 85 483 106 432 q 62 558 65 533 q 58 611 58 582 q 63 667 58 640 q 126 813 68 719 q 314 946 201 911 q 447 968 386 968 q 511 963 476 968 q 819 701 724 924 l 819 700 q 863 482 863 597 q 744 138 863 281 q 460 -4 626 -4 m 472 276 q 563 289 517 276 q 707 368 654 315 l 708 375 q 718 489 718 425 q 661 749 718 622 q 490 929 604 876 q 408 950 444 950 q 378 946 394 950 q 258 828 301 922 q 214 624 214 733 q 244 457 214 543 q 390 290 286 335 q 472 276 435 276 z "},"\u0000":{"ha":0,"x_min":0,"x_max":0,"o":""},"\n":{"ha":0,"x_min":0,"x_max":0,"o":""}," ":{"ha":507,"x_min":0,"x_max":0,"o":""},"!":{"ha":286,"x_min":61,"x_max":225,"o":"m 156 246 l 131 246 l 65 981 l 221 981 l 156 246 m 143 -15 q 85 8 110 -15 q 61 65 61 32 q 85 123 61 99 q 143 147 110 147 q 201 123 176 147 q 225 65 225 99 q 201 8 225 32 q 143 -15 176 -15 z "},"#":{"ha":896,"x_min":43,"x_max":853,"o":"m 476 179 l 467 182 l 539 369 l 251 369 l 178 179 l 169 183 l 240 369 l 43 369 l 43 379 l 244 379 l 324 588 l 90 588 l 90 597 l 328 597 l 411 817 l 421 813 l 339 597 l 626 597 l 710 817 l 719 813 l 636 597 l 853 597 l 853 588 l 633 588 l 553 379 l 804 379 l 804 369 l 550 369 l 476 179 m 543 379 l 622 588 l 335 588 l 256 379 l 543 379 z "},"$":{"ha":722,"x_min":61,"x_max":665,"o":"m 358 0 l 349 0 l 349 103 l 86 100 l 86 379 q 142 332 108 356 l 156 321 l 156 314 q 221 163 156 222 q 349 114 276 118 l 349 379 q 221 424 292 389 l 219 425 q 114 508 169 444 q 83 557 104 518 q 61 653 61 596 q 97 765 61 710 q 193 849 132 819 q 301 871 249 871 l 349 869 l 349 981 l 358 981 l 358 869 l 406 868 q 550 901 485 868 q 601 933 585 919 l 601 596 l 531 650 l 532 667 q 479 801 532 747 q 358 858 426 854 l 358 526 l 411 514 q 535 479 476 501 q 633 404 594 457 q 665 303 663 361 q 652 233 665 263 q 624 184 639 203 q 603 160 610 165 q 563 131 590 147 q 499 110 536 114 q 358 103 436 103 l 358 0 m 349 529 l 349 858 q 229 803 276 858 q 182 694 182 749 q 203 621 182 649 q 349 529 253 549 m 408 113 q 549 174 506 113 q 569 236 569 203 q 539 307 569 269 q 472 350 508 338 q 393 369 436 363 l 358 376 l 358 113 l 408 113 z "},"%":{"ha":728,"x_min":51,"x_max":675,"o":"m 207 563 q 97 624 143 563 q 51 771 51 685 q 97 919 51 858 q 207 981 143 981 q 318 919 272 981 q 364 771 364 858 q 318 624 364 685 q 207 563 272 563 m 207 567 q 227 597 218 567 q 242 674 236 628 q 249 769 249 721 q 235 910 249 846 q 207 975 222 975 q 179 908 192 971 q 167 771 167 846 q 172 675 167 721 q 188 598 178 629 q 207 567 197 567 m 519 -4 q 409 57 454 -4 q 364 204 364 118 q 409 351 364 290 q 519 413 454 413 q 629 351 583 413 q 675 204 675 290 q 629 57 675 118 q 519 -4 583 -4 m 519 0 q 547 63 535 0 q 561 203 560 126 q 548 344 561 279 q 519 408 535 408 q 500 376 510 408 q 484 297 490 344 q 478 200 478 249 q 485 108 479 153 q 500 31 490 63 q 519 0 510 0 m 99 13 l 90 17 l 651 982 l 660 978 l 99 13 z "},"&":{"ha":1057,"x_min":50,"x_max":988,"o":"m 988 0 l 735 0 q 717 35 735 3 q 669 121 699 68 l 658 110 q 408 0 538 0 q 232 49 317 0 q 102 172 154 94 q 50 347 50 249 q 138 574 50 476 q 361 692 226 672 q 333 792 333 736 q 414 944 333 885 q 503 971 447 968 q 617 922 574 971 q 642 846 642 886 q 597 733 642 785 q 538 692 572 704 l 756 290 q 783 453 783 378 q 751 533 783 500 q 672 565 718 565 l 672 575 l 889 575 l 889 565 q 822 538 850 565 q 794 471 794 511 q 774 303 794 382 l 764 276 l 871 79 q 988 11 915 11 l 988 0 m 532 701 q 568 765 553 719 q 575 818 575 792 q 557 903 575 864 q 488 956 531 956 q 452 942 468 956 q 436 901 436 928 q 446 860 436 882 l 532 701 m 521 113 q 663 136 590 113 l 474 483 q 368 681 382 653 l 365 679 q 317 647 353 674 q 247 569 282 619 q 201 446 213 519 q 199 411 199 439 q 258 231 199 311 q 372 143 303 174 q 521 113 440 113 z "},"(":{"ha":281,"x_min":61,"x_max":272,"o":"m 265 -82 q 224 -33 256 -74 q 155 77 193 7 q 89 246 117 147 q 61 469 61 344 l 61 488 q 110 757 67 644 q 199 935 153 869 q 265 1018 246 1001 l 272 1011 q 208 929 254 994 q 119 754 161 864 q 71 469 72 631 q 99 249 71 346 q 164 82 126 151 q 233 -27 201 13 q 272 -75 264 -67 l 265 -82 z "},")":{"ha":282,"x_min":10,"x_max":221,"o":"m 17 -82 l 10 -75 q 74 7 28 -58 q 163 182 121 72 q 211 467 210 306 q 183 688 211 590 q 118 854 156 785 q 49 963 81 924 q 10 1011 18 1003 l 17 1018 q 58 969 26 1010 q 127 859 89 929 q 193 690 165 789 q 221 467 221 592 l 221 449 q 172 179 215 292 q 83 1 129 67 q 17 -82 36 -65 z "},"*":{"ha":422,"x_min":43,"x_max":379,"o":"m 158 624 l 104 713 l 165 778 l 43 801 l 107 885 l 188 846 q 181 897 183 879 q 174 965 178 915 l 271 935 l 260 846 l 379 903 l 367 794 l 281 778 l 369 683 l 267 658 l 224 736 q 158 624 172 646 z "},"+":{"ha":393,"x_min":40,"x_max":353,"o":"m 201 304 l 192 304 l 192 456 l 40 456 l 40 465 l 192 465 l 192 617 l 201 617 l 201 465 l 353 465 l 353 456 l 201 456 l 201 304 z "},",":{"ha":199,"x_min":39,"x_max":160,"o":"m 53 -46 l 46 -26 q 104 4 69 -22 q 56 22 74 4 q 39 64 39 39 q 58 106 39 89 q 100 122 78 122 q 139 108 121 122 q 160 63 160 89 q 147 25 160 40 l 144 21 q 131 1 139 11 q 53 -46 93 -36 z "},"-":{"ha":197,"x_min":21,"x_max":176,"o":"m 176 456 l 21 456 l 21 465 l 176 465 l 176 456 z "},".":{"ha":199,"x_min":39,"x_max":160,"o":"m 99 4 q 56 22 74 4 q 39 64 39 39 q 56 106 39 89 q 99 124 74 124 q 142 106 124 124 q 160 64 160 89 q 142 22 160 39 q 99 4 124 4 z "},"/":{"ha":710,"x_min":69,"x_max":640,"o":"m 78 13 l 69 17 l 632 983 l 640 978 l 78 13 z "},":":{"ha":213,"x_min":46,"x_max":167,"o":"m 106 574 q 63 591 81 574 q 46 633 46 608 q 63 674 46 657 q 106 692 81 692 q 149 674 131 692 q 167 633 167 657 q 149 591 167 608 q 106 574 131 574 m 106 221 q 63 238 81 221 q 46 281 46 256 q 63 322 46 304 q 106 340 81 340 q 149 322 131 340 q 167 281 167 304 q 149 238 167 256 q 106 221 131 221 z "},";":{"ha":217,"x_min":49,"x_max":169,"o":"m 108 574 q 66 591 83 574 q 49 633 49 608 q 66 674 49 657 q 108 692 83 692 q 151 674 133 692 q 169 633 169 657 q 151 591 169 608 q 108 574 133 574 m 63 179 l 56 199 q 114 229 79 203 q 66 247 83 229 q 49 289 49 264 q 68 333 49 314 q 108 349 86 349 q 149 333 131 349 q 169 288 169 314 q 157 250 169 268 l 154 246 q 140 226 149 236 q 63 179 103 189 z "},"=":{"ha":274,"x_min":25,"x_max":249,"o":"m 249 404 l 25 404 l 25 414 l 249 414 l 249 404 m 249 515 l 25 515 l 25 525 l 249 525 l 249 515 z "},"?":{"ha":756,"x_min":58,"x_max":707,"o":"m 181 246 l 171 246 l 169 326 q 187 374 169 354 q 232 397 204 393 l 268 399 l 297 406 q 388 433 363 421 q 452 493 414 446 q 520 608 490 540 q 550 749 550 676 q 531 847 550 799 q 461 933 514 897 q 363 961 418 961 q 292 950 322 961 q 182 867 218 922 l 179 863 q 163 832 174 854 q 138 714 138 783 l 138 693 q 58 615 99 653 l 58 978 l 393 978 q 679 864 611 978 q 696 821 690 844 q 707 743 707 781 q 674 601 707 661 l 651 569 q 581 494 629 536 q 257 388 456 388 l 232 388 q 194 368 210 385 q 179 328 179 351 l 181 246 m 169 -15 q 111 8 135 -15 q 88 65 88 32 q 111 123 88 99 q 169 147 135 147 q 227 123 203 147 q 251 65 251 99 q 227 8 251 32 q 169 -15 203 -15 z "},"@":{"ha":1100,"x_min":54,"x_max":1051,"o":"m 533 24 q 407 40 474 24 q 204 156 304 67 q 108 278 154 200 q 54 483 57 365 q 153 757 54 633 q 281 879 218 839 q 583 971 417 971 q 921 851 782 971 q 997 756 971 803 q 1028 692 1022 708 l 1029 688 q 1051 568 1051 632 q 1038 482 1051 528 q 1000 413 1021 436 q 838 300 949 342 q 821 294 828 296 q 808 292 814 293 q 775 288 792 288 q 675 339 717 288 q 656 397 658 367 q 576 331 624 358 q 492 296 528 304 q 428 288 456 288 q 338 310 371 288 q 269 374 292 336 q 238 442 246 411 q 229 481 229 474 q 228 499 229 489 q 361 721 228 633 q 532 788 433 768 q 604 794 574 794 q 724 769 667 794 l 756 757 q 806 735 796 743 l 806 383 q 829 350 808 358 l 840 349 l 850 350 q 893 426 869 357 q 917 588 917 494 q 832 839 917 739 q 635 949 754 925 l 631 949 q 561 954 603 954 q 300 868 414 954 q 208 738 238 815 q 178 572 178 660 q 271 278 178 414 q 392 168 329 203 q 482 125 446 138 q 640 97 557 97 q 775 121 701 97 q 878 176 844 149 l 885 169 q 661 39 786 57 q 533 24 607 24 m 549 368 q 601 378 574 368 q 653 413 639 396 l 654 776 q 607 781 638 781 q 528 766 572 781 q 456 726 483 751 l 453 724 q 400 652 421 694 q 379 560 379 610 q 381 533 379 546 q 390 492 383 521 q 474 386 411 421 q 549 368 503 368 z "},"A":{"ha":1071,"x_min":-15,"x_max":1083,"o":"m 1083 0 l 740 0 l 740 10 q 783 28 765 10 q 800 69 800 46 q 796 90 800 79 l 746 196 l 694 314 l 232 314 l 157 119 q 151 90 151 104 q 174 34 151 58 q 232 10 197 10 l 232 0 l -15 0 l -15 10 q 83 40 39 10 q 146 121 126 71 l 224 318 l 224 324 l 225 324 l 433 863 l 335 863 l 328 869 l 433 972 l 597 972 l 969 86 q 1083 10 1008 10 l 1083 0 m 690 324 l 483 826 q 443 860 472 853 l 236 324 l 690 324 z "},"B":{"ha":917,"x_min":7,"x_max":889,"o":"m 518 0 l 44 0 l 44 10 q 108 36 82 10 q 135 100 135 63 l 135 818 q 106 889 135 858 q 35 918 75 918 l 10 918 l 7 928 l 135 971 l 299 971 l 299 913 l 622 913 q 753 858 688 913 q 833 718 819 803 l 835 696 q 806 593 835 646 q 622 471 743 493 q 786 414 713 458 q 889 238 889 353 q 726 33 889 89 q 518 0 628 0 m 536 476 q 635 560 599 504 q 672 682 672 615 q 624 823 671 764 q 504 903 578 882 l 299 903 l 299 476 l 536 476 m 538 10 l 558 13 q 608 24 579 14 q 667 60 638 35 q 713 127 697 85 q 728 217 728 169 q 710 316 728 267 q 657 403 693 365 q 538 465 604 454 l 299 465 l 299 10 l 538 10 z "},"C":{"ha":861,"x_min":26,"x_max":838,"o":"m 443 1 q 274 38 358 1 q 60 281 117 113 q 26 457 26 381 q 92 697 26 600 q 258 845 157 794 q 468 897 358 896 l 515 897 q 782 971 656 897 l 783 971 l 783 574 l 778 581 q 706 632 743 618 l 706 647 q 649 813 706 744 q 476 881 585 881 q 338 849 400 881 q 215 711 253 803 q 176 519 176 619 q 211 333 176 419 q 249 265 226 300 q 386 146 294 192 q 546 110 457 110 q 782 201 694 110 q 822 263 813 238 q 838 249 829 254 q 781 154 822 208 q 635 44 725 88 q 443 1 544 1 z "},"D":{"ha":972,"x_min":7,"x_max":946,"o":"m 44 0 l 44 11 q 108 38 82 11 q 135 101 135 64 l 135 819 q 105 889 135 858 q 35 919 75 919 l 10 919 l 7 928 l 135 976 l 299 976 l 299 915 l 554 915 q 655 889 590 915 q 785 807 719 863 q 899 665 851 751 q 946 458 946 579 q 903 254 946 340 q 795 112 861 168 q 653 28 729 56 q 510 1 578 1 l 44 0 m 318 11 q 485 43 404 11 q 575 94 554 74 q 713 246 668 167 q 771 381 758 325 l 783 438 q 785 465 785 443 q 748 653 785 561 q 626 813 711 746 q 324 906 499 906 l 299 906 l 299 11 l 318 11 z "},"E":{"ha":856,"x_min":7,"x_max":797,"o":"m 797 0 l 44 0 l 44 10 q 108 36 82 10 q 135 100 135 63 l 135 819 q 105 890 135 860 q 35 919 75 919 l 10 919 l 7 929 l 135 975 l 297 975 l 297 925 l 517 925 q 632 938 567 925 q 747 961 697 950 l 796 974 q 797 774 797 960 l 797 585 q 718 653 758 619 q 653 829 718 749 q 576 888 615 869 q 467 915 517 915 l 297 915 l 297 444 q 454 473 371 446 q 590 549 538 500 l 618 575 l 618 244 l 540 283 l 540 294 q 458 410 540 371 q 324 436 401 436 l 297 435 l 297 10 l 467 10 q 504 14 475 10 q 649 90 585 25 q 718 263 718 169 l 718 272 l 797 340 l 797 0 z "},"F":{"ha":794,"x_min":7,"x_max":772,"o":"m 388 0 l 44 0 l 44 10 q 108 36 82 10 q 135 100 135 63 l 135 814 q 103 893 135 858 q 39 918 75 918 l 10 918 l 7 928 l 135 971 l 297 971 l 297 924 l 492 924 q 607 935 542 924 q 722 960 672 947 l 771 971 q 772 772 772 957 l 772 583 l 694 649 q 632 825 694 742 l 619 839 q 438 914 544 913 l 299 914 l 299 443 q 444 476 369 449 q 567 547 519 503 l 593 574 l 593 243 l 515 292 l 517 313 q 506 364 517 333 l 494 383 q 360 438 458 438 q 297 432 331 438 l 297 100 q 324 36 297 63 q 388 10 351 10 l 388 0 z "},"G":{"ha":917,"x_min":26,"x_max":899,"o":"m 515 -1 l 468 -1 q 153 129 279 -1 q 26 454 26 260 q 95 691 26 594 q 269 838 164 788 q 489 890 374 889 l 538 890 q 818 961 686 890 l 818 568 q 743 629 792 600 l 743 633 q 727 711 743 657 q 654 817 711 765 q 492 874 588 874 q 332 832 403 874 q 210 694 247 782 q 172 514 172 606 q 275 235 172 351 q 417 131 338 163 q 571 103 490 103 q 601 104 599 103 q 651 113 632 107 l 653 113 l 651 285 q 618 360 651 326 q 556 385 592 385 l 526 385 l 524 393 l 651 435 l 899 435 q 888 431 894 435 q 864 403 882 426 q 824 340 831 369 q 815 307 817 317 l 815 119 q 515 -1 689 3 z "},"H":{"ha":1013,"x_min":7,"x_max":1006,"o":"m 971 0 l 626 0 l 626 10 q 690 36 664 10 q 717 100 717 63 l 717 481 l 299 481 l 299 100 q 325 36 299 63 q 389 10 351 10 l 389 0 l 44 0 l 44 10 q 108 36 82 10 q 135 100 135 63 l 135 811 q 99 893 135 858 q 39 917 72 917 l 10 917 l 7 926 l 136 971 l 424 971 l 424 961 q 335 925 372 961 q 299 836 299 889 l 299 490 l 717 490 l 717 811 q 685 890 717 856 q 622 917 657 917 l 593 917 l 589 926 l 717 971 l 1006 971 l 1006 961 q 917 925 954 961 q 881 836 881 889 l 881 100 q 907 36 881 63 q 971 10 933 10 l 971 0 z "},"I":{"ha":426,"x_min":7,"x_max":419,"o":"m 389 0 l 44 0 l 44 10 q 108 36 82 10 q 135 100 135 63 l 135 811 q 103 890 135 856 q 40 917 75 917 l 10 917 l 7 926 l 135 969 l 419 969 l 419 960 q 334 924 369 960 q 299 838 299 888 l 299 100 q 325 36 299 63 q 389 10 351 10 l 389 0 z "},"J":{"ha":418,"x_min":-104,"x_max":415,"o":"m 81 -208 q -35 -185 19 -208 q -103 -119 -90 -161 l -104 -104 q -101 -82 -104 -92 q -57 -27 -87 -43 q -6 -10 -26 -11 q 5 -15 3 -10 q 7 -25 7 -19 l 8 -64 q 37 -165 13 -132 q 110 -197 61 -197 q 176 -172 146 -196 q 214 -108 210 -147 q 204 -74 214 -90 q 182 -39 194 -57 q 148 16 164 -15 q 131 90 132 47 l 131 814 q 99 893 131 860 q 36 919 72 919 l 6 919 l 3 929 l 125 971 l 415 971 l 415 960 q 328 924 364 960 q 292 836 292 889 q 290 81 290 575 l 288 4 q 251 -142 283 -100 q 81 -208 193 -208 z "},"K":{"ha":951,"x_min":7,"x_max":957,"o":"m 389 0 l 44 0 l 44 10 q 108 36 82 10 q 135 100 135 63 l 135 814 q 99 897 135 863 q 38 919 71 919 l 10 919 l 7 928 l 135 975 l 421 975 l 421 965 q 334 930 369 965 q 299 843 299 894 l 299 315 l 740 869 q 753 906 753 888 q 737 947 753 929 q 694 965 721 965 l 694 975 l 951 975 l 951 965 q 754 871 838 965 l 529 589 l 850 71 q 957 11 893 11 l 957 1 l 608 1 l 608 11 q 642 26 629 11 q 656 58 656 40 q 649 83 656 71 l 417 447 l 299 299 l 299 100 q 325 36 299 63 q 389 10 351 10 l 389 0 z "},"L":{"ha":758,"x_min":7,"x_max":742,"o":"m 742 0 l 44 0 l 44 10 q 108 36 82 10 q 135 100 135 63 l 135 811 q 99 893 135 857 q 38 915 71 915 l 10 915 l 7 925 l 135 968 l 422 969 l 422 958 q 334 922 371 958 q 297 835 297 886 l 297 10 l 411 10 q 456 17 421 10 q 613 114 549 33 q 664 267 664 188 l 664 272 l 742 340 l 742 0 z "},"M":{"ha":1243,"x_min":4,"x_max":1236,"o":"m 1197 0 l 843 0 l 843 10 q 911 36 883 10 q 939 100 939 63 l 939 418 l 938 418 l 938 529 l 939 529 l 939 769 l 672 222 l 706 147 l 644 18 l 586 18 l 464 299 q 303 667 379 490 l 303 100 q 331 36 303 63 q 399 10 358 10 l 399 0 l 44 0 l 44 10 q 112 36 83 10 q 140 100 140 63 l 140 807 q 106 886 140 851 q 57 910 85 904 q 7 911 47 911 l 4 921 l 144 971 l 343 974 l 667 235 l 939 792 l 939 971 l 1100 971 l 1236 928 l 1233 918 l 1201 918 q 1135 893 1164 918 q 1100 808 1100 853 l 1100 100 q 1128 36 1100 63 q 1197 10 1157 10 l 1197 0 z "},"N":{"ha":931,"x_min":-6,"x_max":910,"o":"m 910 0 l 719 0 l 182 839 l 182 96 q 208 35 182 61 q 268 10 233 10 l 268 0 l 90 0 l 90 10 q 149 34 125 10 q 172 93 172 58 l 172 853 q 44 915 119 915 q -3 908 21 915 l -6 918 l 122 968 l 294 968 l 815 147 l 815 874 q 791 934 815 910 q 732 958 767 958 l 732 968 l 910 968 l 910 958 q 850 934 875 958 q 825 874 825 910 l 825 132 l 910 0 z "},"O":{"ha":1044,"x_min":28,"x_max":1017,"o":"m 522 -10 q 274 56 386 -10 q 94 233 161 122 q 28 479 28 344 q 94 724 28 614 q 274 901 161 835 q 522 967 386 967 q 771 901 658 967 q 950 724 883 835 q 1017 479 1017 614 q 950 233 1017 344 q 771 56 883 122 q 522 -10 658 -10 m 522 0 q 688 74 613 0 q 808 258 763 147 q 853 481 853 369 q 807 701 851 593 q 688 883 763 810 q 522 957 613 957 q 357 883 432 957 q 237 699 282 810 q 192 475 192 589 q 238 254 193 363 q 357 73 282 146 q 522 0 432 0 z "},"P":{"ha":878,"x_min":6,"x_max":864,"o":"m 388 0 l 43 0 l 43 10 q 107 36 81 10 q 133 100 133 63 l 133 807 q 101 886 133 853 q 38 913 74 913 l 8 913 l 6 922 l 133 965 l 297 967 l 297 894 q 601 896 588 894 q 624 893 611 896 q 779 813 704 881 q 864 640 854 746 l 864 629 q 815 480 864 543 q 703 385 765 417 q 689 378 694 382 q 681 375 685 378 q 599 357 639 357 l 297 357 l 297 100 q 324 36 297 63 q 388 10 350 10 l 388 0 m 489 367 q 554 381 507 367 q 649 444 601 394 q 701 597 701 508 q 694 675 701 628 q 597 840 679 775 q 490 885 532 882 l 297 885 l 297 367 l 489 367 z "},"Q":{"ha":1031,"x_min":26,"x_max":1074,"o":"m 881 -240 q 693 -139 781 -240 q 606 -40 650 -89 q 557 11 579 -11 q 513 10 536 10 q 269 74 379 10 q 92 249 158 139 q 26 490 26 358 q 92 733 26 624 q 269 907 158 842 q 513 972 379 972 q 757 907 647 972 q 933 733 867 842 q 999 490 999 624 q 877 172 999 306 q 569 13 756 38 l 586 -4 l 675 -103 q 771 -143 724 -143 q 922 -67 840 -143 q 944 -47 933 -57 q 956 -19 956 -36 q 949 4 956 -7 l 954 11 l 1074 -137 l 1057 -153 q 1014 -186 1042 -167 q 952 -222 986 -206 q 881 -240 918 -237 m 513 19 q 547 22 533 19 l 533 38 q 391 204 414 164 q 368 300 368 244 q 400 400 368 357 q 515 471 444 457 q 547 474 531 474 q 665 438 610 474 q 739 351 714 404 q 764 246 764 297 q 733 132 764 186 q 776 205 751 157 q 819 319 800 253 q 839 465 839 385 q 782 718 839 589 q 668 891 738 821 q 511 961 599 961 q 352 889 425 961 q 235 708 279 817 q 190 490 190 600 q 294 173 197 314 q 513 19 390 32 m 558 24 q 689 88 629 39 l 697 96 q 744 211 744 149 q 739 244 744 229 q 682 314 724 288 q 615 332 646 332 q 570 326 589 332 q 549 317 551 319 q 485 244 501 289 q 469 167 469 200 q 474 131 469 142 q 485 110 479 119 l 490 101 q 499 90 494 94 q 509 78 503 85 q 529 56 515 72 l 558 24 z "},"R":{"ha":968,"x_min":7,"x_max":965,"o":"m 965 0 l 619 0 l 619 10 q 653 24 639 10 q 667 57 667 38 q 658 82 667 69 q 563 241 636 117 q 485 374 489 365 l 296 374 l 296 99 q 322 36 296 63 q 386 10 349 10 l 386 0 l 44 0 l 44 10 q 108 36 82 10 q 135 99 135 63 l 135 800 q 103 878 135 844 q 39 904 75 904 l 10 904 l 7 913 l 135 968 l 296 968 l 296 911 l 614 911 q 806 829 715 911 q 889 646 886 757 q 840 497 889 560 q 728 401 790 433 q 707 392 714 392 q 669 379 689 383 l 857 68 q 965 10 897 10 l 965 0 m 513 383 l 536 385 l 579 394 q 624 424 590 397 q 729 643 724 504 q 699 773 729 708 q 607 874 669 838 q 517 901 554 901 l 296 901 l 296 383 l 513 383 z "},"S":{"ha":731,"x_min":40,"x_max":700,"o":"m 67 -4 l 67 324 q 143 256 99 286 l 143 249 q 214 69 143 139 q 305 22 260 33 q 369 11 350 11 l 419 11 q 517 31 469 11 q 573 84 550 49 q 596 158 596 119 q 588 198 594 181 q 561 239 582 215 q 488 291 528 276 q 399 313 447 306 q 214 375 318 322 l 213 375 q 97 474 158 400 l 96 475 q 40 642 40 544 q 78 772 40 707 q 185 872 115 836 q 306 899 238 899 q 359 897 332 899 q 415 894 386 894 q 490 902 451 894 q 571 932 529 910 q 631 972 613 954 l 631 576 l 553 640 l 553 658 q 492 820 553 756 q 357 885 431 885 q 222 819 274 881 q 171 692 171 757 q 181 635 171 658 q 290 522 214 554 q 422 482 351 496 q 558 441 493 468 q 665 351 624 414 q 700 232 697 303 q 685 151 700 188 q 631 67 661 93 q 604 43 622 57 q 518 8 567 11 q 378 0 453 0 l 67 -4 z "},"T":{"ha":961,"x_min":24,"x_max":936,"o":"m 649 0 l 306 0 l 306 10 q 369 36 343 10 q 396 100 396 63 l 396 889 l 343 889 q 196 839 264 889 q 131 758 150 801 q 101 629 101 694 l 101 626 l 24 558 l 24 975 l 25 975 q 304 899 157 899 l 418 899 l 418 900 l 543 900 l 543 899 l 657 899 q 936 975 803 899 l 936 558 q 858 624 899 592 q 769 833 843 775 q 704 871 739 857 q 642 888 669 885 l 596 889 l 558 889 l 558 100 q 585 36 558 63 q 649 10 611 10 l 649 0 z "},"U":{"ha":907,"x_min":1,"x_max":894,"o":"m 478 -1 q 199 114 297 -1 q 129 296 132 200 l 129 799 q 97 876 129 843 q 33 901 69 901 l 4 901 l 1 911 l 129 965 l 408 965 l 408 956 q 327 923 361 956 q 293 842 293 890 l 293 321 q 306 232 293 286 l 307 226 q 342 149 314 196 q 376 103 349 135 q 456 48 404 71 q 563 25 507 25 q 711 76 646 25 q 758 132 742 104 q 775 168 774 160 q 801 308 801 228 l 801 874 q 776 932 801 908 q 717 956 751 956 l 717 965 l 894 965 l 894 956 q 835 932 860 956 q 811 874 811 908 l 811 308 q 724 74 811 157 q 613 13 669 25 q 478 -1 550 -1 z "},"V":{"ha":1014,"x_min":-11,"x_max":1026,"o":"m 575 0 l 479 0 l 144 826 q 108 869 132 854 q 57 885 85 885 q -4 861 24 885 l -11 869 l 88 972 l 264 972 l 588 174 q 900 885 679 375 q 904 906 904 896 q 888 944 904 928 q 849 961 872 961 l 849 972 l 1026 972 l 1026 963 q 911 886 951 963 l 829 699 q 592 161 642 265 l 617 101 l 575 0 z "},"W":{"ha":1539,"x_min":-11,"x_max":1551,"o":"m 1096 0 l 1004 0 l 771 569 l 590 164 l 617 101 l 575 0 l 481 0 q 306 429 415 163 l 144 826 q 108 869 132 854 q 57 885 85 885 q -4 861 24 885 l -11 869 l 90 972 l 261 972 l 586 176 l 767 582 l 667 826 q 579 885 636 885 q 518 861 549 885 l 511 869 l 613 972 l 782 972 l 1110 169 q 1425 885 1200 367 q 1429 906 1429 896 q 1413 944 1429 928 q 1374 961 1397 961 l 1374 972 l 1551 972 l 1551 963 q 1436 886 1476 963 l 1354 699 q 1114 157 1163 256 l 1138 101 l 1096 0 z "},"X":{"ha":965,"x_min":0,"x_max":971,"o":"m 971 0 l 607 0 l 607 10 q 641 24 628 10 q 654 57 654 39 q 645 83 654 69 q 600 156 636 97 l 421 442 l 136 76 q 128 50 128 64 q 139 22 128 35 q 168 10 150 10 l 168 0 l 0 0 l 0 10 q 122 75 75 17 l 415 451 l 174 836 q 75 889 132 889 q 8 865 35 889 l 0 872 l 90 971 l 279 969 l 550 543 l 826 894 q 835 919 835 907 q 823 948 835 935 q 793 961 811 961 l 793 971 l 971 971 l 971 961 q 843 899 896 961 l 557 535 l 850 74 q 903 26 869 43 q 971 10 936 10 l 971 0 z "},"Y":{"ha":840,"x_min":-7,"x_max":854,"o":"m 654 0 l 315 0 l 315 10 q 379 36 353 10 q 406 100 406 63 l 406 444 l 297 601 q 154 815 188 763 q 75 858 121 858 q 0 824 33 858 l -7 829 l 72 971 l 254 972 l 561 486 l 726 892 q 731 913 731 903 q 715 950 731 933 q 676 967 700 967 l 676 976 l 854 976 l 854 967 q 736 888 775 967 l 564 467 l 564 100 q 590 36 564 63 q 654 10 617 10 l 654 0 z "},"Z":{"ha":925,"x_min":22,"x_max":896,"o":"m 896 0 l 22 0 l 22 11 q 111 69 78 22 l 639 886 l 374 885 q 221 831 292 885 q 157 751 176 793 q 129 625 129 689 l 129 622 l 54 556 l 54 971 q 333 896 188 896 l 646 896 l 694 972 l 889 972 l 321 81 q 313 57 313 69 q 326 24 313 39 q 360 10 339 10 l 565 10 q 710 51 646 10 q 785 138 763 89 q 817 268 817 203 l 896 340 l 896 0 z "},"[":{"ha":149,"x_min":69,"x_max":274,"o":"m 274 -129 l 69 -129 l 69 1114 l 274 1114 l 274 1104 l 79 1104 l 79 -119 l 274 -119 l 274 -129 z "},"\\":{"ha":710,"x_min":69,"x_max":640,"o":"m 632 13 l 69 978 l 78 982 l 640 17 l 632 13 z "},"]":{"ha":149,"x_min":-125,"x_max":79,"o":"m 79 -129 l -125 -129 l -125 -119 l 69 -119 l 69 1104 l -125 1104 l -125 1114 l 79 1114 l 79 -129 z "},"_":{"ha":454,"x_min":69,"x_max":385,"o":"m 385 -68 l 69 -68 l 69 -58 l 385 -58 l 385 -68 z "},"a":{"ha":754,"x_min":22,"x_max":751,"o":"m 751 0 l 506 0 l 506 93 q 419 38 467 61 q 293 6 353 6 q 147 53 210 6 q 49 172 83 101 q 22 286 22 229 q 64 432 22 364 q 232 560 119 522 q 286 628 247 593 q 393 667 346 667 q 607 585 547 667 q 661 414 661 510 l 661 100 q 688 36 661 63 q 751 10 714 10 l 751 0 m 496 550 q 479 613 496 585 q 418 654 454 647 l 415 654 q 389 657 401 657 q 293 619 335 657 q 244 564 272 607 q 353 582 308 582 q 433 572 393 582 q 496 550 472 563 m 418 107 q 506 121 474 110 l 506 397 q 500 515 506 468 q 497 538 500 528 q 379 572 451 569 q 265 544 313 572 l 264 543 q 189 471 213 510 q 160 364 160 415 q 172 280 160 314 q 187 241 185 246 q 206 213 189 236 q 324 121 249 147 q 418 107 365 107 z "},"b":{"ha":793,"x_min":-32,"x_max":764,"o":"m 251 0 l 6 0 l 6 10 q 69 36 43 10 q 96 100 96 63 l 96 814 q 64 893 96 858 q 0 918 36 918 l -29 918 l -32 928 l 96 971 l 251 971 l 251 582 q 492 669 358 669 q 645 618 585 669 q 735 488 706 567 q 764 328 764 410 q 681 98 764 193 q 483 3 599 3 q 344 29 403 3 q 251 89 286 56 l 251 0 m 381 36 q 463 63 418 36 q 565 173 522 100 q 608 339 607 246 q 576 484 608 414 q 485 596 543 554 q 389 629 435 629 q 299 605 336 629 q 251 569 261 581 l 251 106 q 274 82 257 99 q 317 51 290 65 q 381 36 344 36 z "},"c":{"ha":665,"x_min":26,"x_max":643,"o":"m 340 -15 q 116 82 206 -15 q 26 325 26 179 q 72 497 26 426 q 188 607 117 568 q 338 651 258 646 l 364 653 q 493 622 436 653 q 557 540 550 592 q 546 503 557 517 q 461 449 521 457 q 534 430 489 447 q 615 363 579 413 q 643 267 643 313 q 633 199 643 229 q 554 76 607 117 q 340 -15 465 -15 m 451 89 q 589 135 538 89 q 633 265 633 186 q 607 357 633 310 q 493 433 567 418 q 469 439 482 438 q 446 450 457 440 q 435 475 435 460 q 438 497 435 488 q 440 521 440 507 q 395 613 435 586 q 318 640 356 640 q 200 565 256 640 q 142 392 142 485 q 165 273 142 332 q 236 171 189 214 q 340 108 283 128 q 451 89 397 89 z "},"d":{"ha":803,"x_min":29,"x_max":797,"o":"m 313 -4 q 113 92 196 -4 q 29 324 29 188 q 58 486 29 407 q 149 617 88 565 q 306 669 210 669 q 543 583 442 665 l 543 815 q 510 894 543 860 q 447 921 483 921 l 418 921 l 415 929 l 543 976 l 707 976 l 707 94 q 735 35 710 60 q 797 11 761 11 l 797 1 l 543 1 l 543 78 q 479 35 517 54 q 313 -4 407 -4 m 439 47 q 496 60 467 47 q 543 94 529 76 l 543 571 q 503 601 532 582 q 404 626 461 626 q 318 607 353 626 q 274 578 283 588 q 201 469 217 528 q 185 367 186 411 q 192 281 185 336 q 233 168 200 226 q 300 97 257 128 q 349 68 310 89 q 439 47 389 47 z "},"e":{"ha":664,"x_min":26,"x_max":642,"o":"m 340 -17 q 116 81 206 -17 q 26 324 26 178 q 72 497 26 426 q 188 606 117 568 q 338 650 258 644 q 353 651 342 651 l 381 653 q 507 620 461 653 q 556 540 553 588 q 534 481 556 508 q 478 446 513 453 q 628 339 585 424 q 642 267 642 301 q 625 175 642 211 l 618 160 q 561 81 604 125 q 340 -17 467 -17 m 443 81 q 518 92 478 81 q 611 168 579 107 l 617 179 q 633 264 633 213 q 618 335 633 299 q 444 440 569 429 q 356 435 400 435 l 319 435 q 207 418 254 435 q 146 367 182 410 l 146 385 q 232 435 181 426 q 339 444 283 444 q 418 449 394 444 q 438 451 431 451 q 443 493 440 463 q 436 546 443 521 q 408 599 429 571 q 325 638 374 638 q 219 592 265 638 q 144 401 144 514 q 150 340 144 383 q 253 146 163 224 q 367 89 290 108 q 443 81 392 81 z "},"f":{"ha":367,"x_min":13,"x_max":499,"o":"m 354 0 l 14 0 l 14 10 q 79 36 53 10 q 106 101 106 63 l 106 574 l 13 574 l 13 583 q 78 610 51 583 q 106 676 106 638 l 106 750 q 163 913 106 847 q 319 968 226 968 q 431 945 381 968 q 496 885 482 922 q 499 867 499 875 q 496 847 499 856 q 451 788 482 806 q 399 771 419 771 q 392 779 394 774 q 385 819 389 785 q 376 867 381 842 q 361 910 371 892 l 346 929 q 288 954 324 954 q 240 943 263 954 q 183 850 183 914 q 263 674 183 764 l 264 674 l 264 583 l 354 583 l 354 574 l 264 574 l 264 100 q 290 36 264 63 q 354 10 317 10 l 354 0 z "},"g":{"ha":731,"x_min":6,"x_max":731,"o":"m 435 -336 l 408 -335 q 325 -325 368 -333 q 276 -315 282 -317 l 418 -136 l 425 -142 l 424 -143 q 406 -222 406 -185 q 429 -294 406 -265 q 492 -325 458 -325 l 506 -324 q 543 -292 529 -315 l 544 -289 q 560 -226 560 -261 q 492 -69 560 -146 q 457 -39 483 -58 q 314 0 407 -3 l 289 1 q 232 3 253 1 l 211 4 q 82 19 118 11 q 7 82 14 32 l 6 93 q 18 136 6 118 l 19 140 q 51 168 33 157 q 160 200 96 194 l 183 231 q 136 371 136 292 q 167 480 136 426 q 251 569 197 533 q 374 604 306 604 q 496 571 440 604 l 499 583 q 563 696 518 646 q 653 746 607 746 q 706 721 686 744 q 731 651 731 694 q 727 619 731 632 q 713 606 724 606 l 707 607 q 618 631 667 631 q 581 626 600 631 l 576 625 q 508 579 525 613 q 504 565 504 574 l 501 567 q 610 379 600 501 l 610 371 q 569 244 610 296 q 473 165 528 192 q 374 136 418 138 q 326 142 351 136 q 190 222 243 158 l 163 188 l 154 174 q 146 132 146 157 q 167 65 146 93 q 267 21 182 39 q 389 7 311 11 q 501 0 476 3 q 588 -15 561 -4 q 641 -40 615 -25 q 682 -82 667 -54 q 697 -140 697 -110 q 670 -236 697 -193 q 599 -301 643 -279 q 508 -329 554 -322 q 435 -336 463 -336 m 374 142 q 426 213 403 142 q 451 368 449 283 q 427 526 451 451 q 374 600 403 600 q 319 525 344 600 q 294 365 294 450 q 321 212 297 282 q 374 142 344 142 z "},"h":{"ha":765,"x_min":-32,"x_max":760,"o":"m 760 0 l 425 0 l 425 10 q 489 37 463 10 q 515 101 515 64 l 515 388 q 404 629 500 588 q 353 636 381 636 l 347 636 q 253 596 288 631 l 253 100 q 279 36 253 63 q 343 10 306 10 l 343 0 l 6 0 l 6 10 q 69 36 43 10 q 96 100 96 63 l 96 814 q 64 893 96 858 q 0 918 36 918 l -29 918 l -32 928 l 96 971 l 253 971 l 253 607 q 392 665 307 650 q 447 669 408 669 q 617 604 553 669 q 669 451 669 540 l 669 101 q 696 37 669 64 q 760 10 722 10 l 760 0 z "},"i":{"ha":383,"x_min":1,"x_max":376,"o":"m 376 0 l 39 0 l 39 10 q 103 36 76 10 q 129 100 129 63 l 129 511 q 97 589 129 556 q 33 615 69 615 l 4 615 l 1 625 l 129 668 l 286 668 l 286 100 q 313 36 286 63 q 376 10 339 10 l 376 0 m 204 763 q 147 786 171 763 q 122 843 122 810 q 147 900 122 876 q 204 924 171 924 q 263 900 239 924 q 286 843 286 876 q 263 786 286 810 q 204 763 239 763 z "},"j":{"ha":336,"x_min":-115,"x_max":283,"o":"m 201 797 q 144 821 168 797 q 119 878 119 844 q 144 935 119 911 q 201 960 168 960 q 260 935 236 960 q 283 878 283 911 q 260 821 283 844 q 201 797 236 797 m 68 -219 q -47 -196 8 -219 q -114 -131 -101 -172 l -115 -115 q -110 -85 -115 -96 l -108 -81 q -18 -21 -83 -32 q -8 -24 -12 -21 q -4 -33 -4 -28 l -6 -54 q 28 -158 -6 -112 l 29 -160 q 54 -188 35 -169 q 106 -208 74 -207 q 163 -189 136 -208 q 201 -124 201 -158 q 171 -24 201 -89 q 124 74 149 31 l 124 554 q 90 624 124 592 q 28 650 64 650 l -1 650 l -4 660 l 124 703 l 281 703 l 281 85 l 276 -15 q 240 -154 269 -112 q 68 -219 179 -219 z "},"k":{"ha":768,"x_min":-32,"x_max":767,"o":"m 413 -1 l 413 10 q 447 23 433 10 q 460 53 460 36 q 453 76 460 64 l 301 318 l 253 274 l 253 100 q 279 36 253 63 q 343 10 306 10 l 343 0 l 6 0 l 6 10 q 69 36 43 10 q 96 100 96 63 l 96 814 q 64 893 96 860 q 0 919 36 919 l -29 919 l -32 928 l 97 975 l 253 975 l 253 288 l 592 603 q 601 625 601 614 q 593 647 601 638 q 569 657 585 657 l 569 667 l 749 667 l 749 657 q 604 600 668 657 l 418 428 l 646 68 q 699 24 665 39 q 767 10 732 10 l 767 0 l 413 -1 z "},"l":{"ha":349,"x_min":-32,"x_max":342,"o":"m 342 0 l 6 0 l 6 10 q 69 36 43 10 q 96 100 96 63 l 96 814 q 64 893 96 858 q 0 919 36 919 l -29 919 l -32 928 l 96 975 l 251 975 l 251 100 q 278 36 251 63 q 342 10 306 10 l 342 0 z "},"m":{"ha":1228,"x_min":1,"x_max":1222,"o":"m 374 -1 l 39 -1 l 39 8 q 103 35 76 8 q 129 99 129 61 l 129 511 q 97 590 129 556 q 33 617 69 617 l 4 617 l 1 625 l 129 669 l 283 669 l 283 557 q 361 632 314 599 q 479 669 413 668 q 619 618 558 669 q 690 519 672 575 q 769 617 715 569 q 910 669 828 668 q 993 653 957 669 q 1050 619 1029 636 q 1074 597 1071 601 q 1132 467 1131 528 l 1132 100 q 1158 36 1132 63 q 1222 10 1185 10 l 1222 0 l 886 0 l 886 10 q 951 36 924 10 q 978 100 978 63 l 975 435 q 919 553 965 508 q 822 597 874 597 q 751 574 779 596 q 696 506 714 543 l 694 503 q 701 468 700 485 l 701 100 q 728 36 701 63 q 792 10 754 10 l 792 0 l 458 0 l 458 10 q 522 36 496 10 q 549 100 549 63 l 547 406 q 533 488 547 447 q 471 578 511 546 q 390 610 431 610 q 285 539 321 606 l 283 538 l 283 99 q 310 35 283 61 q 374 8 336 8 l 374 -1 z "},"n":{"ha":824,"x_min":1,"x_max":818,"o":"m 376 0 l 39 0 l 39 10 q 103 36 76 10 q 129 100 129 63 l 129 513 q 97 592 129 557 q 33 618 69 618 l 4 618 l 1 626 l 129 669 l 286 669 l 286 519 q 365 616 311 569 q 497 669 418 663 q 582 656 549 669 q 667 600 635 632 q 669 597 668 597 q 726 469 726 528 l 728 101 q 754 38 728 64 q 818 11 781 11 l 818 1 l 483 1 l 483 11 q 547 38 521 11 q 574 101 574 64 l 572 403 q 556 483 572 444 q 490 563 531 535 q 410 590 450 590 q 388 588 399 590 q 332 560 354 581 q 299 519 310 539 q 286 493 288 499 l 286 100 q 313 36 286 63 q 376 10 339 10 l 376 0 z "},"o":{"ha":726,"x_min":25,"x_max":700,"o":"m 363 -17 q 124 81 224 -17 q 25 318 25 179 q 124 553 25 456 q 363 651 224 651 q 601 553 503 651 q 700 318 700 456 q 601 81 700 179 q 363 -17 503 -17 m 363 -10 q 451 41 410 -10 q 519 167 493 92 q 544 319 544 242 q 517 471 543 397 q 451 594 492 544 q 363 644 410 644 q 274 594 315 644 q 206 467 232 543 q 181 317 181 392 q 208 166 182 240 q 274 41 233 92 q 363 -10 315 -10 z "},"p":{"ha":819,"x_min":-1,"x_max":790,"o":"m 374 -271 l 36 -268 l 36 -258 q 100 -232 74 -258 q 126 -168 126 -206 l 126 497 q 94 576 126 542 q 31 603 67 603 l 1 603 l -1 611 l 124 654 l 283 651 l 283 563 q 514 642 382 638 q 670 590 610 642 q 760 459 731 539 q 790 297 790 379 q 707 65 790 161 q 506 -32 624 -32 q 464 -29 485 -32 q 283 44 354 -15 l 283 -171 q 310 -235 283 -208 q 374 -261 336 -261 l 374 -271 m 381 19 q 470 40 431 19 q 519 69 510 61 q 626 254 611 138 q 635 340 635 310 l 635 349 q 546 551 635 472 l 542 554 q 414 600 486 600 l 394 599 q 283 550 331 590 l 283 60 q 381 19 324 19 z "},"q":{"ha":751,"x_min":29,"x_max":788,"o":"m 788 -274 l 453 -274 l 453 -264 q 517 -237 490 -264 q 543 -174 543 -211 l 543 51 q 479 7 517 28 q 313 -32 407 -32 q 113 65 196 -32 q 29 297 29 161 q 58 459 29 379 q 149 590 88 539 q 306 642 210 642 q 543 557 442 638 l 647 651 l 697 638 l 697 -174 q 724 -237 697 -211 q 788 -264 750 -264 l 788 -274 m 439 19 q 496 32 468 19 q 543 68 529 49 l 543 544 l 542 546 q 425 599 496 589 l 406 600 q 318 581 353 600 q 201 442 224 526 q 185 340 186 383 q 192 254 185 310 q 233 142 200 199 l 233 140 q 300 69 257 101 l 304 67 q 439 19 369 19 z "},"r":{"ha":588,"x_min":1,"x_max":578,"o":"m 375 0 l 39 0 l 39 10 q 103 36 76 10 q 129 100 129 63 l 129 510 q 97 589 129 556 q 33 615 69 615 l 4 615 l 1 624 l 129 667 l 285 668 l 285 449 q 311 494 293 469 q 378 558 342 535 l 401 572 q 500 603 454 603 q 546 589 524 603 q 567 567 560 579 q 578 522 578 543 q 568 478 578 497 q 538 440 549 440 q 526 446 531 440 q 421 518 490 500 l 400 519 q 285 419 315 519 l 285 100 q 311 36 285 63 q 375 10 338 10 l 375 0 z "},"s":{"ha":525,"x_min":33,"x_max":496,"o":"m 329 0 l 58 0 l 58 224 q 79 203 67 214 q 136 167 111 176 l 136 157 q 181 49 136 94 q 268 10 218 14 l 272 10 q 299 8 282 8 q 383 38 354 8 q 408 97 408 63 q 363 164 404 142 q 268 203 322 186 q 144 254 204 222 q 51 349 83 286 l 50 351 q 33 433 33 389 q 39 478 33 454 q 117 583 60 544 q 225 615 165 615 l 301 613 q 352 618 325 613 q 407 639 379 624 q 447 665 435 654 l 447 396 l 428 406 l 369 432 q 372 468 372 450 q 347 557 372 521 q 268 604 315 604 q 182 563 222 604 q 157 486 157 528 q 182 417 157 453 q 252 354 213 375 q 335 320 292 333 q 415 288 378 307 q 476 229 451 268 q 496 157 494 196 q 449 47 496 93 l 444 44 q 403 17 433 33 q 401 15 403 15 q 329 0 367 0 z "},"t":{"ha":365,"x_min":8,"x_max":356,"o":"m 315 0 q 128 44 169 0 l 119 53 q 100 113 100 81 l 99 575 l 8 575 l 8 585 l 10 585 q 101 614 65 589 q 214 725 160 653 q 244 781 240 761 l 254 781 l 254 585 l 344 585 l 344 575 l 254 575 l 254 124 q 308 19 254 56 q 347 11 329 11 l 356 11 l 356 1 l 315 0 z "},"u":{"ha":789,"x_min":4,"x_max":779,"o":"m 779 0 l 533 0 l 533 174 q 459 65 514 121 q 318 0 404 8 l 310 0 q 172 51 233 0 q 150 74 153 69 q 93 206 93 143 q 92 571 92 246 q 66 635 92 608 q 4 661 40 661 l 4 671 l 335 671 l 335 661 q 272 635 299 661 q 246 569 246 608 l 246 285 q 288 154 246 214 q 404 86 346 86 q 472 117 440 86 q 531 192 510 151 l 533 197 l 533 571 q 507 635 533 608 q 443 661 481 661 l 443 671 l 779 671 l 779 661 q 715 635 742 661 q 689 571 689 608 l 689 101 q 715 36 689 63 q 779 10 742 10 l 779 0 z "},"v":{"ha":757,"x_min":-1,"x_max":763,"o":"m 449 0 l 367 0 q 264 254 314 133 q 154 522 211 379 q 118 566 142 550 q 67 582 94 582 q 6 558 33 582 l -1 565 l 97 669 l 258 669 l 465 164 l 542 346 q 642 603 642 589 q 626 643 642 626 q 585 660 610 660 l 585 669 l 763 669 l 763 660 q 644 571 682 660 q 469 151 511 244 l 489 103 l 449 0 z "},"w":{"ha":1126,"x_min":-1,"x_max":1132,"o":"m 813 0 l 729 0 l 575 378 l 476 142 l 492 104 l 450 0 l 367 0 q 258 265 310 142 l 156 518 q 119 563 143 547 q 67 579 94 579 q 6 556 36 579 l -1 563 l 99 668 l 261 668 l 471 154 l 569 390 l 517 518 q 480 563 504 547 q 428 579 456 579 q 367 556 397 579 l 360 563 l 460 668 l 624 668 l 832 158 l 910 340 q 1011 603 1011 588 q 995 642 1011 625 q 954 660 979 660 l 954 669 l 1132 669 l 1132 658 q 1018 582 1057 658 q 836 146 894 276 l 854 104 l 813 0 z "},"x":{"ha":772,"x_min":7,"x_max":771,"o":"m 771 0 l 418 0 l 418 10 q 452 24 439 10 q 465 57 465 39 q 458 81 465 69 q 429 129 451 93 l 325 296 l 153 75 q 144 50 144 63 q 156 22 144 35 q 185 10 167 10 l 185 0 l 7 0 l 7 10 q 139 74 85 10 l 319 304 l 181 529 q 137 569 164 556 q 79 583 110 583 q 15 560 43 583 l 7 567 l 97 665 l 274 669 l 456 379 l 621 592 q 631 617 631 604 q 619 646 631 633 q 589 658 608 658 l 589 669 l 767 669 l 767 658 q 638 596 692 658 l 461 371 l 650 72 q 703 26 669 43 q 771 10 736 10 l 771 0 z "},"y":{"ha":810,"x_min":-8,"x_max":815,"o":"m 157 -268 q 56 -239 97 -268 q 7 -189 28 -221 q -8 -135 -8 -167 q 1 -92 -8 -119 l 6 -86 q 21 -72 11 -79 q 47 -58 31 -64 q 88 -51 64 -51 q 106 -53 96 -53 q 117 -69 117 -53 l 115 -82 q 108 -136 108 -99 q 114 -175 108 -157 q 156 -218 124 -201 q 224 -235 189 -235 q 325 -189 276 -235 l 329 -186 l 343 -172 q 360 -151 360 -153 q 392 -112 375 -135 l 406 -93 l 340 64 q 156 517 204 393 q 119 561 143 546 q 68 576 96 576 q 7 553 35 576 l 0 560 l 99 664 l 264 664 l 500 82 l 690 576 q 694 597 694 588 q 678 637 694 619 q 636 654 661 654 l 636 664 l 815 664 l 815 654 q 701 576 739 654 l 503 60 q 429 -75 469 -14 q 239 -256 332 -224 q 157 -268 203 -268 z "},"z":{"ha":792,"x_min":22,"x_max":756,"o":"m 22 0 l 22 10 q 131 69 89 10 l 500 581 l 381 581 q 203 503 281 581 q 138 336 138 429 l 139 317 l 60 250 l 60 667 l 61 667 q 340 590 193 590 l 507 590 l 563 667 l 756 669 l 575 421 q 339 83 392 165 q 332 58 332 71 q 344 28 332 42 q 376 13 357 14 l 426 13 q 613 90 538 13 q 678 258 678 164 l 676 278 l 756 343 l 756 3 q 22 0 389 3 z "},"{":{"ha":236,"x_min":58,"x_max":247,"o":"m 192 -78 q 107 -50 138 -78 l 103 -46 q 72 36 72 -14 q 87 122 72 75 q 119 217 101 168 q 152 309 138 265 q 167 386 167 353 q 152 436 167 415 q 58 469 138 457 l 60 474 l 58 478 q 153 511 139 490 q 167 561 167 532 q 153 636 167 594 q 122 726 140 678 q 88 823 103 775 q 72 913 72 871 q 93 981 72 953 l 107 997 q 190 1026 140 1026 q 247 1018 222 1026 l 244 1010 q 193 1015 225 1015 q 114 990 143 1015 l 110 986 q 82 913 82 960 q 97 826 82 874 q 131 729 111 779 q 164 633 150 679 q 176 560 176 593 q 160 506 176 528 q 85 474 143 483 q 160 442 144 464 q 176 388 176 419 q 164 313 176 354 q 135 226 151 272 q 97 121 103 140 q 82 35 82 74 q 100 -28 82 -3 l 114 -43 q 192 -68 143 -68 q 244 -62 222 -68 l 247 -71 q 192 -78 224 -78 z "},"|":{"ha":149,"x_min":69,"x_max":79,"o":"m 79 0 l 69 0 l 69 981 l 79 981 l 79 0 z "},"}":{"ha":236,"x_min":-11,"x_max":178,"o":"m 44 -78 q -11 -71 13 -78 l -8 -61 q 44 -68 13 -68 q 122 -43 93 -68 l 136 -26 q 154 36 154 -1 q 140 121 154 74 q 106 217 125 168 q 74 310 88 265 q 60 389 60 354 q 76 443 60 419 q 151 474 93 467 q 76 506 93 483 q 60 560 60 528 q 74 640 60 596 q 106 731 88 683 q 140 826 125 779 q 154 913 154 874 q 136 975 154 951 l 122 990 q 44 1015 93 1015 q -8 1010 14 1015 l -11 1019 l -6 1021 q 44 1026 17 1026 q 129 999 97 1026 l 143 982 q 164 914 164 956 q 149 825 164 874 q 116 728 135 776 q 83 638 97 681 q 69 560 69 594 q 85 511 69 532 q 178 479 100 490 l 176 474 l 178 469 q 114 456 136 461 q 69 388 69 442 q 83 310 69 354 q 116 218 97 267 q 149 122 135 169 q 164 33 164 74 q 144 -33 164 -7 l 129 -50 q 44 -78 96 -78 z "}," ":{"ha":507,"x_min":0,"x_max":0,"o":""},"¡":{"ha":264,"x_min":50,"x_max":214,"o":"m 210 -440 l 54 -440 l 119 293 l 144 293 l 210 -440 m 132 393 q 74 417 99 393 q 50 474 50 440 q 74 531 50 507 q 132 554 99 554 q 190 531 165 554 q 214 474 214 507 q 190 417 214 440 q 132 393 165 393 z "},"¢":{"ha":690,"x_min":51,"x_max":649,"o":"m 360 -3 l 350 -3 l 350 157 q 240 182 288 161 l 235 185 q 101 308 151 225 q 51 497 51 390 q 95 666 51 596 q 206 776 139 736 q 350 822 274 815 l 350 985 l 360 985 l 360 824 l 385 825 q 517 795 458 825 q 582 713 575 765 q 571 674 582 690 q 478 621 543 625 q 469 624 474 621 q 465 633 465 628 l 465 649 q 443 768 465 726 q 360 811 415 806 l 360 290 q 485 265 425 265 q 614 307 564 265 q 643 351 635 329 l 649 343 q 524 197 618 258 l 522 197 q 371 157 464 157 l 360 157 l 360 -3 m 350 294 l 350 811 l 346 811 q 272 788 301 811 q 174 569 174 704 q 242 375 174 457 q 350 294 288 324 z "},"£":{"ha":853,"x_min":47,"x_max":794,"o":"m 757 0 l 104 0 l 182 110 q 204 197 204 146 q 175 375 204 274 l 47 375 l 47 385 l 172 385 l 163 421 q 129 563 144 490 q 114 701 114 635 q 153 858 114 788 q 328 971 207 942 l 332 971 q 410 981 372 981 q 565 940 497 981 q 676 851 632 899 q 736 775 719 803 q 794 629 794 697 q 779 576 794 599 q 754 557 767 563 q 715 547 733 547 q 668 558 689 547 q 629 593 629 581 q 636 604 629 600 q 714 706 693 638 q 717 731 717 718 q 690 815 717 775 q 613 878 664 854 q 503 903 561 903 q 447 897 475 903 q 313 813 367 876 q 231 671 251 746 q 197 432 197 551 q 199 385 197 406 l 607 385 l 607 375 l 200 375 q 221 178 221 282 l 221 153 q 593 156 408 156 q 646 171 624 156 l 647 172 q 668 200 657 179 q 682 258 682 232 q 678 296 682 281 l 678 299 l 757 349 l 757 0 z "},"¥":{"ha":938,"x_min":69,"x_max":931,"o":"m 731 0 l 392 0 l 392 10 q 456 36 429 10 q 482 100 482 63 l 482 321 l 289 321 l 289 331 l 482 331 l 482 432 l 289 432 l 289 442 l 482 442 l 482 444 l 374 601 q 231 815 264 763 q 151 858 197 858 q 76 824 110 858 l 69 829 l 149 971 l 331 972 l 638 486 l 803 892 q 807 913 807 903 q 792 950 807 933 q 753 967 776 967 l 753 976 l 931 976 l 931 967 q 813 888 851 967 l 640 467 l 640 442 l 821 442 l 821 432 l 640 432 l 640 331 l 821 331 l 821 321 l 640 321 l 640 100 q 667 36 640 63 q 731 10 693 10 l 731 0 z "},"§":{"ha":785,"x_min":64,"x_max":724,"o":"m 90 -222 l 90 106 l 100 94 q 121 75 111 86 q 156 46 139 58 l 167 38 l 167 31 q 238 -149 167 -78 q 388 -207 304 -201 l 418 -207 q 453 -206 449 -207 q 596 -133 550 -204 q 619 -60 619 -99 l 618 -46 q 585 21 614 -14 q 508 74 550 58 q 406 99 476 85 q 238 158 333 108 l 236 158 q 121 257 182 183 l 117 263 q 64 422 64 332 q 118 578 64 507 q 84 638 104 594 q 64 739 64 681 q 68 782 64 760 q 208 971 94 908 q 329 997 261 997 q 383 995 356 997 q 439 993 410 993 q 596 1032 524 993 q 647 1067 631 1051 l 653 1071 l 654 1071 l 654 675 l 576 739 l 576 757 q 515 919 576 854 q 381 983 454 983 q 259 932 311 982 q 196 817 207 882 l 194 793 q 236 678 194 729 l 243 669 q 444 581 306 607 q 551 551 499 569 q 654 493 610 533 q 708 408 689 458 q 724 332 724 374 q 699 228 724 269 q 660 171 675 186 q 689 135 676 154 q 724 19 719 89 q 708 -65 724 -29 q 654 -151 683 -125 q 628 -175 646 -161 q 550 -208 593 -204 l 542 -210 q 399 -218 471 -218 l 90 -222 m 610 208 q 619 257 619 233 l 618 271 q 583 339 614 303 q 511 390 551 375 q 422 411 471 404 q 238 474 342 421 l 196 500 l 194 479 q 204 419 194 444 q 218 389 214 394 q 315 303 254 329 q 447 264 376 278 q 610 208 535 247 z "},"©":{"ha":646,"x_min":53,"x_max":593,"o":"m 329 300 q 230 344 269 300 q 190 451 190 388 q 237 558 190 521 q 336 596 283 596 q 338 597 338 596 l 338 596 l 351 596 q 439 621 397 596 l 440 621 l 440 489 l 419 510 q 388 576 419 550 q 338 593 365 593 q 303 585 324 593 q 249 533 269 568 q 229 457 229 497 q 239 404 229 432 q 293 343 254 364 q 347 329 326 329 q 450 381 421 329 q 456 386 451 386 q 451 375 456 382 q 409 326 440 353 q 329 300 378 300 m 324 190 q 132 269 211 190 q 53 460 53 349 q 132 651 53 572 q 324 731 211 731 q 514 651 435 731 q 593 460 593 572 q 514 269 593 349 q 324 190 435 190 m 324 200 q 507 276 431 200 q 583 460 583 353 q 507 644 583 568 q 324 721 431 721 q 139 644 215 721 q 63 460 63 568 q 139 276 63 353 q 324 200 215 200 z "},"ª":{"ha":557,"x_min":51,"x_max":511,"o":"m 511 558 l 356 558 l 356 618 q 301 582 333 597 q 224 563 260 563 q 131 593 171 563 q 68 667 90 624 q 51 740 51 703 q 78 831 51 788 q 153 899 104 874 q 183 911 168 907 q 218 954 193 933 q 289 981 257 981 q 306 979 299 981 q 420 927 386 974 q 454 819 454 881 l 454 622 q 472 582 454 599 q 511 565 489 565 l 511 558 m 350 907 q 340 944 350 928 q 283 974 319 974 q 192 914 228 974 q 260 926 219 924 q 350 907 307 926 m 301 626 q 356 635 335 626 l 356 832 q 351 899 356 872 q 276 919 321 919 q 228 913 247 919 q 171 875 190 899 q 139 788 139 836 q 147 735 139 757 q 156 710 154 714 q 167 692 157 707 q 301 626 211 626 z "},"«":{"ha":457,"x_min":42,"x_max":415,"o":"m 218 251 l 42 429 l 217 604 q 224 597 221 601 l 56 429 l 225 260 l 218 251 m 408 251 l 231 429 l 407 604 l 414 597 l 244 429 l 415 260 l 408 251 z "},"­":{"ha":197,"x_min":21,"x_max":176,"o":"m 176 456 l 21 456 l 21 465 l 176 465 l 176 456 z "},"®":{"ha":646,"x_min":53,"x_max":593,"o":"m 471 306 l 372 306 l 372 308 q 383 313 379 308 q 388 324 388 318 q 379 343 388 328 l 329 425 l 257 425 l 257 336 q 265 317 257 325 q 285 308 274 308 l 285 306 l 188 306 l 188 308 q 208 317 199 308 q 217 338 217 325 l 217 561 q 207 585 217 576 q 185 594 197 594 l 176 594 l 175 597 l 215 615 l 257 615 l 257 597 l 358 597 q 419 572 390 597 q 447 513 447 546 q 431 464 447 485 q 394 433 415 443 l 376 426 l 436 328 q 452 313 443 318 q 471 308 461 308 l 471 306 m 326 428 q 342 430 332 428 q 365 442 351 432 q 407 506 404 465 q 383 561 406 539 q 326 594 357 590 l 257 594 l 257 428 l 326 428 m 324 190 q 132 269 211 190 q 53 460 53 349 q 132 651 53 572 q 324 731 211 731 q 514 651 435 731 q 593 460 593 572 q 514 269 593 349 q 324 190 435 190 m 324 200 q 507 276 431 200 q 583 460 583 353 q 507 644 583 568 q 324 721 431 721 q 139 644 215 721 q 63 460 63 568 q 139 276 63 353 q 324 200 215 200 z "},"»":{"ha":442,"x_min":42,"x_max":399,"o":"m 50 251 l 43 260 l 211 428 l 42 597 l 49 604 l 225 428 l 50 251 m 224 251 l 217 260 l 385 428 l 215 597 l 222 604 l 399 428 l 224 251 z "},"¿":{"ha":718,"x_min":69,"x_max":718,"o":"m 718 -439 l 375 -437 q 97 -325 167 -437 q 81 -281 89 -308 l 78 -272 q 69 -204 69 -237 q 103 -61 69 -128 l 125 -29 q 196 46 147 4 q 519 151 321 151 l 544 151 q 582 172 567 156 q 597 211 597 188 l 597 293 l 607 293 l 607 213 q 590 165 607 185 q 547 142 574 146 q 482 135 511 142 q 390 106 417 119 q 324 46 363 93 q 256 -69 286 -1 q 226 -208 226 -136 q 246 -309 226 -258 q 315 -394 265 -360 q 413 -422 358 -422 q 482 -412 460 -422 l 485 -411 q 594 -328 561 -383 l 597 -324 q 614 -293 603 -315 q 640 -168 640 -243 l 640 -153 q 718 -76 678 -114 l 718 -439 m 607 393 q 549 417 574 393 q 525 474 525 440 q 549 531 525 507 q 607 554 574 554 q 665 531 642 554 q 689 474 689 507 q 665 417 689 440 q 607 393 642 393 z "},"À":{"ha":1071,"x_min":-15,"x_max":1083,"o":"m 579 1022 l 374 1131 l 422 1201 l 597 1047 l 579 1022 m 1083 0 l 740 0 l 740 10 q 783 28 765 10 q 800 69 800 46 q 796 90 800 79 l 746 196 l 694 314 l 232 314 l 157 119 q 151 90 151 104 q 174 34 151 58 q 232 10 197 10 l 232 0 l -15 0 l -15 10 q 83 40 39 10 q 146 121 126 71 l 224 318 l 224 324 l 225 324 l 433 863 l 335 863 l 328 869 l 433 971 l 597 971 l 969 86 q 1083 10 1008 10 l 1083 0 m 690 324 l 483 826 q 443 860 472 853 l 236 324 l 690 324 z "},"Á":{"ha":1071,"x_min":-15,"x_max":1083,"o":"m 442 1038 l 424 1064 l 597 1218 l 646 1147 l 442 1038 m 1083 0 l 740 0 l 740 10 q 783 28 765 10 q 800 69 800 46 q 796 90 800 79 l 746 196 l 694 314 l 232 314 l 157 119 q 151 90 151 104 q 174 34 151 58 q 232 10 197 10 l 232 0 l -15 0 l -15 10 q 83 40 39 10 q 146 121 126 71 l 224 319 l 224 324 l 225 324 l 433 863 l 335 863 l 328 869 l 433 972 l 597 972 l 969 86 q 1083 10 1008 10 l 1083 0 m 690 324 l 483 826 q 443 861 472 853 l 236 324 l 690 324 z "},"Â":{"ha":1071,"x_min":-15,"x_max":1083,"o":"m 675 1033 l 535 1103 l 393 1033 l 372 1058 l 535 1190 l 696 1058 l 675 1033 m 1083 0 l 740 0 l 740 10 q 783 28 765 10 q 800 69 800 46 q 796 90 800 79 l 746 196 l 694 314 l 232 314 l 157 119 q 151 90 151 104 q 174 34 151 58 q 232 10 197 10 l 232 0 l -15 0 l -15 10 q 83 40 39 10 q 146 121 126 71 l 224 318 l 224 324 l 225 324 l 433 863 l 335 863 l 328 869 l 433 971 l 597 971 l 969 86 q 1083 10 1008 10 l 1083 0 m 690 324 l 483 826 q 443 860 472 853 l 236 324 l 690 324 z "},"Ã":{"ha":1071,"x_min":-15,"x_max":1083,"o":"m 1083 0 l 740 0 l 740 10 q 783 28 765 10 q 800 69 800 46 q 796 90 800 79 l 779 126 q 738 214 761 163 q 694 314 715 265 l 232 314 l 157 119 q 151 90 151 104 q 174 34 151 58 q 232 10 197 10 l 232 0 l -15 0 l -15 10 q 83 40 39 10 q 146 121 126 71 l 224 318 l 224 324 l 225 324 l 433 863 l 335 863 l 328 869 l 433 971 l 597 971 l 969 86 q 1083 10 1008 10 l 1083 0 m 690 324 l 483 826 q 443 860 472 853 l 236 324 l 690 324 m 600 1050 q 543 1065 571 1050 q 490 1099 515 1081 q 428 1131 446 1131 q 410 1124 417 1129 q 381 1081 389 1110 l 347 1090 q 360 1122 353 1110 q 396 1168 369 1144 q 479 1206 436 1206 q 526 1192 506 1204 q 561 1168 546 1181 q 590 1147 576 1156 q 618 1139 603 1139 q 630 1140 625 1139 q 636 1142 635 1142 q 672 1165 660 1150 q 693 1196 683 1179 l 722 1185 q 707 1142 713 1149 q 663 1079 683 1097 q 642 1061 643 1061 q 600 1050 615 1050 z "},"Ä":{"ha":1071,"x_min":-15,"x_max":1083,"o":"m 1083 0 l 740 0 l 740 10 q 783 28 765 10 q 800 69 800 46 q 796 90 800 79 l 746 196 l 694 314 l 232 314 l 157 119 q 151 90 151 104 q 174 34 151 58 q 232 10 197 10 l 232 0 l -15 0 l -15 10 q 83 40 39 10 q 146 121 126 71 l 224 318 l 224 324 l 225 324 l 433 863 l 335 863 l 328 869 l 433 971 l 597 971 l 969 86 q 1083 10 1008 10 l 1083 0 m 690 324 l 483 826 q 443 860 472 853 l 236 324 l 690 324 m 421 1053 q 358 1076 382 1053 q 335 1133 335 1100 q 358 1189 335 1165 q 414 1213 382 1213 q 471 1189 447 1213 q 494 1133 494 1165 q 479 1086 494 1107 q 421 1053 458 1053 m 661 1053 q 597 1076 621 1053 q 574 1133 574 1100 q 597 1189 574 1165 q 654 1213 621 1213 q 710 1189 688 1213 q 733 1133 733 1165 q 718 1086 733 1107 q 661 1053 697 1053 z "},"Å":{"ha":1071,"x_min":-15,"x_max":1083,"o":"m 1083 0 l 740 0 l 740 10 q 783 28 765 10 q 800 69 800 46 q 796 90 800 79 l 746 196 l 694 314 l 232 314 l 157 119 q 151 90 151 104 q 174 34 151 58 q 232 10 197 10 l 232 0 l -15 0 l -15 10 q 83 40 39 10 q 146 121 126 71 l 224 318 l 224 324 l 225 324 l 433 863 l 335 863 l 328 869 l 433 971 l 597 971 l 969 86 q 1083 10 1008 10 l 1083 0 m 690 324 l 483 826 q 443 860 472 853 l 236 324 l 690 324 m 533 1028 q 467 1055 494 1028 q 440 1121 440 1082 q 467 1185 440 1158 q 533 1213 494 1213 q 599 1185 572 1213 q 626 1121 626 1158 q 599 1055 626 1082 q 533 1028 572 1028 m 533 1038 q 572 1064 556 1038 q 589 1119 588 1090 q 572 1176 589 1149 q 533 1203 556 1203 q 497 1176 513 1203 q 481 1119 481 1150 q 497 1063 481 1089 q 533 1038 513 1038 z "},"Æ":{"ha":1500,"x_min":-14,"x_max":1440,"o":"m 1440 0 l 689 0 l 689 10 q 753 36 726 10 q 779 100 779 63 l 779 314 l 361 314 l 190 100 q 178 65 178 85 q 193 28 178 44 q 233 11 208 11 l 233 1 l -14 1 l -14 11 q 181 104 99 11 l 353 318 l 353 324 l 357 324 l 775 844 q 740 899 767 878 q 678 919 713 919 l 654 919 l 651 928 l 779 975 l 942 975 l 942 925 l 1160 925 q 1275 937 1210 925 q 1390 961 1340 949 l 1439 972 q 1440 774 1440 958 l 1440 585 l 1363 653 q 1296 829 1363 749 q 1219 888 1258 869 q 1110 915 1160 915 l 942 915 l 942 444 q 1099 473 1015 446 q 1235 549 1182 500 l 1261 575 l 1261 244 l 1183 283 l 1185 299 q 1103 410 1185 371 q 968 436 1046 436 l 942 435 l 942 10 l 1110 10 q 1147 14 1118 10 q 1292 90 1228 25 q 1363 272 1363 168 l 1440 340 l 1440 0 m 779 324 l 778 832 l 369 324 l 779 324 z "},"Ç":{"ha":861,"x_min":26,"x_max":838,"o":"m 496 -324 q 357 -246 415 -324 l 350 -235 l 378 -217 q 404 -243 392 -233 q 461 -261 426 -261 q 499 -251 482 -261 q 538 -196 529 -233 q 540 -172 540 -185 q 525 -115 540 -143 q 464 -76 504 -76 q 425 -87 442 -76 l 376 -115 l 433 3 q 274 39 353 4 q 60 283 117 115 q 26 460 26 382 q 92 699 26 601 q 258 848 157 797 q 468 900 358 899 l 515 900 q 782 972 656 900 l 783 972 l 783 575 q 706 635 753 614 l 706 650 q 649 814 706 747 q 476 882 585 882 q 338 850 400 882 q 215 713 253 804 q 176 522 176 622 q 213 333 176 414 q 335 178 243 246 q 481 117 385 136 l 483 117 q 546 113 499 113 q 782 203 696 113 q 822 264 813 240 l 838 250 q 781 157 822 211 q 467 4 668 24 l 471 1 l 451 -39 q 490 -35 471 -35 q 590 -71 546 -35 q 627 -119 613 -90 q 642 -183 642 -149 q 635 -226 642 -204 q 601 -281 622 -261 q 559 -309 579 -300 q 531 -319 539 -318 l 528 -321 q 496 -324 513 -324 z "},"È":{"ha":856,"x_min":7,"x_max":797,"o":"m 797 0 l 44 0 l 44 10 q 108 36 82 10 q 135 100 135 63 l 135 819 q 105 890 135 860 q 35 919 75 919 l 10 919 l 7 928 l 135 975 l 297 975 l 297 925 l 517 925 q 632 937 567 925 q 747 961 697 949 l 796 972 q 797 774 797 958 l 797 585 l 718 653 q 653 829 718 749 q 576 888 615 869 q 467 915 517 915 l 297 915 l 297 444 q 454 473 371 446 q 590 549 538 500 l 618 575 l 618 244 l 540 283 l 540 294 q 458 410 540 371 q 324 436 401 436 l 297 435 l 297 10 l 467 10 q 504 14 475 10 q 649 90 585 25 q 718 263 718 169 l 718 272 l 797 340 l 797 0 m 496 1032 l 290 1140 l 339 1211 l 514 1058 l 496 1032 z "},"É":{"ha":856,"x_min":7,"x_max":797,"o":"m 797 0 l 44 0 l 44 10 q 108 36 82 10 q 135 100 135 63 l 135 819 q 105 890 135 860 q 35 919 75 919 l 10 919 l 7 928 l 135 975 l 297 975 l 297 925 l 517 925 q 632 937 567 925 q 747 961 697 949 l 796 972 q 797 774 797 958 l 797 585 l 718 653 q 653 829 718 749 q 576 888 615 869 q 467 915 517 915 l 297 915 l 297 444 q 454 473 371 446 q 590 549 538 500 l 618 575 l 618 244 l 540 283 l 540 294 q 458 410 540 371 q 324 436 401 436 l 297 435 l 297 10 l 467 10 q 504 14 475 10 q 649 90 585 25 q 718 263 718 169 l 718 272 l 797 340 l 797 0 m 308 1028 l 290 1054 l 464 1208 l 514 1138 l 308 1028 z "},"Ê":{"ha":856,"x_min":7,"x_max":797,"o":"m 797 0 l 44 0 l 44 10 q 108 36 82 10 q 135 100 135 63 l 135 819 q 105 890 135 860 q 35 919 75 919 l 10 919 l 7 928 l 135 975 l 297 975 l 297 925 l 517 925 q 632 937 567 925 q 747 961 697 949 l 796 972 q 797 774 797 958 l 797 585 l 718 653 q 653 829 718 749 q 576 888 615 869 q 467 915 517 915 l 297 915 l 297 444 q 454 473 371 446 q 590 549 538 500 l 618 575 l 618 244 l 540 283 l 540 294 q 458 410 540 371 q 324 436 401 436 l 297 435 l 297 10 l 467 10 q 504 14 475 10 q 649 90 585 25 q 718 263 718 169 l 718 272 l 797 340 l 797 0 m 543 1035 l 401 1104 l 261 1035 l 240 1060 l 401 1192 l 564 1060 l 543 1035 z "},"Ë":{"ha":856,"x_min":7,"x_max":797,"o":"m 797 0 l 44 0 l 44 10 q 108 36 82 10 q 135 100 135 63 l 135 819 q 105 890 135 860 q 35 919 75 919 l 10 919 l 7 928 l 135 975 l 297 975 l 297 925 l 517 925 q 632 937 567 925 q 747 961 697 949 l 796 972 q 797 774 797 958 l 797 585 l 718 653 q 653 829 718 749 q 576 888 615 869 q 467 915 517 915 l 297 915 l 297 444 q 454 473 371 446 q 590 549 538 500 l 618 575 l 618 244 l 540 283 l 540 294 q 458 410 540 371 q 324 436 401 436 l 297 435 l 297 10 l 467 10 q 504 14 475 10 q 649 90 585 25 q 718 263 718 169 l 718 272 l 797 340 l 797 0 m 282 1040 q 226 1064 249 1040 q 203 1121 203 1088 q 226 1177 203 1154 q 282 1200 249 1200 q 339 1177 315 1200 q 363 1121 363 1154 q 339 1064 363 1088 q 282 1040 315 1040 m 521 1040 q 465 1064 489 1040 q 442 1121 442 1088 q 465 1177 442 1154 q 521 1200 489 1200 q 578 1177 554 1200 q 601 1121 601 1154 q 578 1064 601 1088 q 521 1040 554 1040 z "},"Ì":{"ha":426,"x_min":7,"x_max":419,"o":"m 389 3 l 44 3 l 44 13 q 108 39 82 13 q 135 104 135 65 l 135 814 q 103 893 135 858 q 40 919 75 919 l 10 919 l 7 929 l 135 972 l 419 972 l 419 963 q 334 927 369 963 q 299 840 299 892 l 299 103 q 325 39 299 65 q 389 13 351 13 l 389 3 m 289 1068 l 83 1178 l 133 1249 l 307 1094 l 289 1068 z "},"Í":{"ha":426,"x_min":7,"x_max":419,"o":"m 389 3 l 44 3 l 44 13 q 108 39 82 13 q 135 104 135 65 l 135 814 q 103 893 135 858 q 40 919 75 919 l 10 919 l 7 929 l 135 972 l 419 972 l 419 963 q 334 927 369 963 q 299 840 299 892 l 299 103 q 325 39 299 65 q 389 13 351 13 l 389 3 m 119 1068 l 101 1094 l 275 1249 l 325 1178 l 119 1068 z "},"Î":{"ha":426,"x_min":7,"x_max":419,"o":"m 389 3 l 44 3 l 44 13 q 108 39 82 13 q 135 104 135 65 l 135 814 q 103 893 135 858 q 40 919 75 919 l 10 919 l 7 929 l 135 972 l 419 972 l 419 963 q 334 927 369 963 q 299 840 299 892 l 299 103 q 325 39 299 65 q 389 13 351 13 l 389 3 m 354 1079 l 213 1149 l 72 1079 l 51 1103 l 213 1236 l 375 1103 l 354 1079 z "},"Ï":{"ha":426,"x_min":-14,"x_max":419,"o":"m 389 3 l 44 3 l 44 13 q 108 39 82 13 q 135 104 135 65 l 135 814 q 103 893 135 858 q 39 919 75 919 l 10 919 l 7 929 l 135 972 l 419 972 l 419 963 q 333 927 368 963 q 297 840 297 892 l 297 103 q 324 39 297 65 q 389 13 351 13 l 389 3 m 67 1053 q 10 1076 33 1053 q -14 1133 -14 1100 q 10 1190 -14 1167 q 67 1214 33 1214 q 122 1190 99 1214 q 146 1133 146 1167 q 122 1076 146 1100 q 67 1053 99 1053 m 306 1053 q 249 1076 272 1053 q 225 1133 225 1100 q 249 1190 225 1167 q 306 1214 272 1214 q 363 1190 339 1214 q 386 1133 386 1167 q 363 1076 386 1100 q 306 1053 339 1053 z "},"Ð":{"ha":1007,"x_min":8,"x_max":979,"o":"m 78 10 l 78 19 q 142 46 115 19 q 168 110 168 72 l 168 418 l 8 418 l 8 429 l 168 429 l 168 829 q 138 899 168 871 q 68 928 108 928 l 43 928 l 40 938 l 168 985 l 332 985 l 332 925 l 588 925 q 689 899 625 925 q 819 817 753 872 q 932 674 885 761 q 979 468 979 588 q 937 264 979 350 q 828 122 894 178 q 687 38 763 65 q 543 11 611 11 l 78 10 m 357 19 q 608 103 490 19 q 747 254 701 175 q 804 389 792 333 l 817 446 l 818 478 q 660 822 818 693 q 357 915 532 915 l 332 915 l 332 429 l 519 429 l 519 418 l 332 418 l 332 21 l 357 19 z "},"Ñ":{"ha":929,"x_min":-7,"x_max":908,"o":"m 515 1056 q 460 1070 488 1056 q 410 1103 433 1085 q 344 1136 364 1136 q 338 1135 340 1136 q 331 1133 336 1135 q 317 1120 326 1131 q 300 1096 307 1110 l 296 1086 l 263 1096 l 268 1107 q 313 1174 281 1143 q 396 1211 353 1211 q 443 1197 422 1210 q 485 1167 454 1190 q 535 1143 515 1143 l 540 1143 l 553 1146 q 584 1167 571 1154 q 610 1201 597 1181 l 638 1189 q 635 1179 636 1185 q 626 1153 635 1174 l 624 1147 q 580 1085 600 1103 q 558 1067 560 1067 l 533 1057 l 515 1056 m 908 4 l 718 4 l 181 843 l 181 99 q 206 39 181 64 q 267 14 232 14 l 267 4 l 89 4 l 89 14 q 147 38 124 14 q 171 96 171 63 l 171 857 q 43 919 118 919 q -4 913 19 919 l -7 922 l 121 972 l 293 972 l 814 151 l 814 878 q 790 937 814 913 q 731 961 765 961 l 731 972 l 908 972 l 908 961 q 849 937 874 961 q 824 878 824 913 l 824 136 l 908 4 z "},"Ò":{"ha":1042,"x_min":26,"x_max":1015,"o":"m 521 -1 q 272 65 385 -1 q 93 242 160 131 q 26 488 26 353 q 93 733 26 622 q 272 910 160 844 q 521 976 385 976 q 769 910 657 976 q 949 733 882 844 q 1015 488 1015 622 q 949 242 1015 353 q 769 65 882 131 q 521 -1 657 -1 m 521 10 q 686 83 611 10 q 806 267 761 157 q 851 489 851 378 q 806 710 850 601 q 686 893 761 819 q 521 967 611 967 q 356 893 431 967 q 235 708 281 819 q 190 485 190 597 q 236 263 192 371 q 356 83 281 156 q 521 10 431 10 m 657 1068 l 451 1178 l 501 1249 l 675 1094 l 657 1068 z "},"Ó":{"ha":1042,"x_min":26,"x_max":1015,"o":"m 521 -1 q 272 65 385 -1 q 93 242 160 131 q 26 488 26 353 q 93 733 26 622 q 272 910 160 844 q 521 976 385 976 q 769 910 657 976 q 949 733 882 844 q 1015 488 1015 622 q 949 242 1015 353 q 769 65 882 131 q 521 -1 657 -1 m 521 10 q 686 83 611 10 q 806 267 761 157 q 851 489 851 378 q 806 710 850 601 q 686 893 761 819 q 521 967 611 967 q 356 893 431 967 q 235 708 281 819 q 190 485 190 597 q 236 263 192 371 q 356 83 281 156 q 521 10 431 10 m 426 1068 l 408 1094 l 583 1249 l 632 1178 l 426 1068 z "},"Ô":{"ha":1042,"x_min":26,"x_max":1015,"o":"m 521 -1 q 272 65 385 -1 q 93 242 160 131 q 26 488 26 353 q 93 733 26 622 q 272 910 160 844 q 521 976 385 976 q 769 910 657 976 q 949 733 882 844 q 1015 488 1015 622 q 949 242 1015 353 q 769 65 882 131 q 521 -1 657 -1 m 521 10 q 686 83 611 10 q 806 267 761 157 q 851 489 851 378 q 806 710 850 601 q 686 893 761 819 q 521 967 611 967 q 356 893 431 967 q 235 708 281 819 q 190 485 190 597 q 236 263 192 371 q 356 83 281 156 q 521 10 431 10 m 663 1079 l 521 1149 l 379 1079 l 360 1103 l 521 1236 l 682 1103 l 663 1079 z "},"Õ":{"ha":1042,"x_min":26,"x_max":1015,"o":"m 521 -1 q 272 65 385 -1 q 93 242 160 131 q 26 488 26 353 q 93 733 26 622 q 272 910 160 844 q 521 976 385 976 q 769 910 657 976 q 949 733 882 844 q 1015 488 1015 622 q 949 242 1015 353 q 769 65 882 131 q 521 -1 657 -1 m 521 10 q 686 83 611 10 q 806 267 761 157 q 851 489 851 378 q 806 710 850 601 q 686 893 761 819 q 521 967 611 967 q 356 893 431 967 q 235 708 281 819 q 190 485 190 597 q 236 263 192 371 q 356 83 281 156 q 521 10 431 10 m 594 1056 l 586 1056 q 530 1070 557 1056 q 479 1103 503 1085 q 414 1136 433 1136 q 408 1135 410 1136 q 401 1133 406 1135 q 386 1120 397 1131 q 371 1096 375 1110 l 367 1086 l 333 1096 l 338 1107 q 383 1174 349 1142 q 467 1211 422 1211 l 471 1211 q 544 1176 514 1203 l 549 1172 q 606 1143 583 1143 q 617 1144 613 1143 q 622 1146 621 1146 q 654 1167 642 1154 q 679 1201 667 1181 l 708 1189 q 704 1178 707 1185 q 700 1165 701 1171 q 697 1154 699 1160 q 693 1147 694 1149 q 649 1085 669 1103 q 628 1067 629 1067 l 610 1060 l 594 1056 z "},"Ö":{"ha":1042,"x_min":26,"x_max":1015,"o":"m 521 -1 q 272 65 385 -1 q 93 242 160 131 q 26 488 26 353 q 93 733 26 622 q 272 910 160 844 q 521 976 385 976 q 769 910 657 976 q 949 733 882 844 q 1015 488 1015 622 q 949 242 1015 353 q 769 65 882 131 q 521 -1 657 -1 m 521 10 q 686 83 611 10 q 806 267 761 157 q 851 489 851 378 q 806 710 850 601 q 686 893 761 819 q 521 967 611 967 q 356 893 431 967 q 235 708 281 819 q 190 485 190 597 q 236 263 192 371 q 356 83 281 156 q 521 10 431 10 m 401 1053 q 344 1076 368 1053 q 321 1133 321 1100 q 344 1190 321 1167 q 401 1214 368 1214 q 457 1190 433 1214 q 481 1133 481 1167 q 457 1076 481 1100 q 401 1053 433 1053 m 640 1053 q 583 1076 607 1053 q 560 1133 560 1100 q 583 1190 560 1167 q 640 1214 607 1214 q 697 1190 674 1214 q 721 1133 721 1167 q 697 1076 721 1100 q 640 1053 674 1053 z "},"×":{"ha":314,"x_min":43,"x_max":271,"o":"m 264 360 l 157 467 l 50 360 l 43 367 l 150 474 l 43 581 l 50 588 l 157 481 l 264 588 l 271 581 l 164 474 l 271 367 l 264 360 z "},"Ø":{"ha":1126,"x_min":33,"x_max":1129,"o":"m 58 -6 l 51 1 l 199 135 q 78 296 122 203 q 33 497 33 389 q 100 743 33 632 q 279 920 167 854 q 528 986 392 986 q 751 933 649 986 q 922 790 854 881 l 1122 972 l 1129 964 l 928 782 q 1022 497 1022 657 q 956 251 1022 363 q 776 74 889 140 q 528 8 664 8 q 206 128 343 8 l 58 -6 m 276 206 l 821 699 q 700 895 778 814 q 528 976 622 976 q 363 903 438 976 q 242 719 288 829 q 197 497 197 608 q 276 206 199 346 m 528 19 q 693 93 618 19 q 813 278 768 167 q 858 500 858 389 q 825 689 858 593 l 282 197 q 392 69 328 118 q 528 19 456 19 z "},"Ù":{"ha":907,"x_min":1,"x_max":894,"o":"m 482 4 q 398 12 449 4 q 294 44 347 19 q 200 121 242 69 q 144 222 158 172 q 129 301 131 272 l 129 806 q 97 883 129 850 q 33 908 69 908 l 4 908 l 1 917 l 129 972 l 408 972 l 408 963 q 327 929 361 963 q 293 847 293 896 l 293 328 q 306 238 293 292 l 308 229 q 376 110 322 171 q 456 53 404 78 q 561 31 507 31 q 711 82 644 31 q 757 139 742 110 q 801 314 801 218 l 801 879 q 776 938 801 914 q 717 963 751 963 l 717 972 l 894 972 l 894 963 q 835 938 860 963 q 811 881 811 914 l 811 314 q 724 79 811 163 q 616 20 671 33 q 519 6 561 7 l 482 4 m 542 1056 l 336 1165 l 385 1236 l 560 1082 l 542 1056 z "},"Ú":{"ha":907,"x_min":1,"x_max":894,"o":"m 482 4 q 398 12 449 4 q 294 44 347 19 q 200 121 242 69 q 144 222 158 172 q 129 301 131 272 l 129 806 q 97 883 129 850 q 33 908 69 908 l 4 908 l 1 917 l 129 972 l 408 972 l 408 963 q 327 929 361 963 q 293 847 293 896 l 293 328 q 306 238 293 292 l 308 229 q 342 154 317 194 q 456 53 375 92 q 561 31 507 31 q 711 82 644 31 q 757 139 742 110 q 801 314 801 218 l 801 879 q 776 938 801 914 q 717 963 751 963 l 717 972 l 894 972 l 894 963 q 835 938 860 963 q 811 881 811 914 l 811 314 q 724 79 811 163 q 616 20 671 33 q 519 6 561 7 l 482 4 m 354 1056 l 336 1082 l 510 1236 l 560 1165 l 354 1056 z "},"Û":{"ha":907,"x_min":1,"x_max":894,"o":"m 482 4 q 398 12 449 4 q 294 44 347 19 q 200 121 242 69 q 144 222 158 172 q 129 301 131 272 l 129 806 q 97 883 129 850 q 33 908 69 908 l 4 908 l 1 917 l 129 972 l 408 972 l 408 963 q 327 929 361 963 q 293 847 293 896 l 293 328 q 306 238 293 292 l 308 229 q 376 110 322 171 q 456 53 404 78 q 561 31 507 31 q 711 82 644 31 q 757 139 742 110 q 801 314 801 218 l 801 879 q 776 938 801 914 q 717 963 751 963 l 717 972 l 894 972 l 894 963 q 835 938 860 963 q 811 881 811 914 l 811 314 q 724 79 811 163 q 616 20 671 33 q 519 6 561 7 l 482 4 m 589 1067 l 447 1136 l 307 1067 l 286 1090 l 447 1224 l 610 1090 l 589 1067 z "},"Ü":{"ha":907,"x_min":0,"x_max":893,"o":"m 474 -7 q 390 1 440 -7 q 197 108 272 19 q 128 289 131 194 l 128 793 q 96 871 128 838 q 32 896 68 896 l 3 896 l 0 906 l 128 960 l 407 960 l 407 950 q 326 917 360 950 q 292 836 292 883 l 292 315 q 304 225 292 279 l 307 218 q 340 143 313 189 q 375 97 347 129 q 454 42 403 65 q 560 18 506 18 q 710 71 643 18 q 756 126 740 97 q 800 301 800 204 l 800 867 q 775 926 800 901 q 715 950 750 950 l 715 960 l 893 960 l 893 950 q 834 926 858 950 q 810 868 810 903 l 810 301 q 722 68 810 150 q 611 7 668 19 q 474 -7 547 -7 m 326 1028 q 270 1051 293 1028 q 247 1108 247 1075 q 270 1165 247 1142 q 326 1189 293 1189 q 383 1165 360 1189 q 407 1108 407 1142 q 383 1051 407 1075 q 326 1028 360 1028 m 567 1028 q 510 1051 533 1028 q 486 1108 486 1075 q 510 1165 486 1142 q 567 1189 533 1189 q 622 1165 599 1189 q 646 1108 646 1142 q 622 1051 646 1075 q 567 1028 599 1028 z "},"Ý":{"ha":840,"x_min":-7,"x_max":854,"o":"m 654 0 l 315 0 l 315 10 q 379 36 353 10 q 406 100 406 63 l 406 444 l 297 601 q 154 815 188 763 q 75 858 121 858 q 0 824 33 858 l -7 829 l 72 971 l 254 972 l 561 486 l 726 892 q 731 913 731 903 q 715 950 731 933 q 676 967 700 967 l 676 976 l 854 976 l 854 967 q 736 888 775 967 l 564 467 l 564 100 q 590 36 564 63 q 654 10 617 10 l 654 0 m 329 1056 l 313 1082 l 486 1236 l 535 1165 l 329 1056 z "},"Þ":{"ha":763,"x_min":7,"x_max":749,"o":"m 388 8 l 44 8 l 44 18 q 108 44 82 18 q 135 108 135 71 l 135 819 q 103 899 135 865 q 40 925 74 925 l 10 925 l 7 935 l 135 978 l 418 978 l 418 968 q 333 933 368 968 q 297 846 297 897 l 297 768 l 421 768 q 649 685 540 768 q 749 508 738 615 l 749 497 q 705 363 749 421 q 599 269 661 306 q 440 219 514 219 l 297 219 l 297 108 q 324 44 297 71 q 388 18 350 18 l 388 8 m 326 228 q 410 243 361 228 q 537 339 486 271 q 588 489 588 407 q 508 669 588 590 q 306 757 429 749 l 297 757 l 297 229 l 326 228 z "},"ß":{"ha":1000,"x_min":4,"x_max":976,"o":"m 639 0 q 454 46 539 0 q 365 125 399 81 q 283 335 283 232 q 325 439 283 411 q 368 450 343 450 q 428 425 403 450 q 460 381 460 396 q 450 368 460 372 q 343 301 385 354 l 343 300 q 324 240 324 272 q 339 185 324 211 q 397 115 365 142 q 454 75 429 88 l 478 63 q 520 49 486 58 q 601 39 554 39 q 743 86 683 39 q 821 253 814 151 q 822 290 824 272 q 799 408 822 357 q 750 483 775 458 l 746 486 q 651 522 713 522 q 526 513 596 521 l 519 513 l 519 522 l 525 522 q 611 569 572 531 l 614 572 q 667 644 650 608 q 690 746 690 699 q 633 886 683 831 q 508 951 574 951 l 469 949 l 453 944 q 411 931 435 940 q 253 639 253 860 l 253 97 q 279 35 253 61 q 343 10 306 10 l 343 0 l 4 0 l 4 10 q 68 35 42 10 q 94 97 94 61 l 94 463 q 107 567 97 511 q 286 881 140 763 q 576 974 417 974 q 701 954 643 974 q 796 893 758 935 q 846 765 846 840 l 846 758 q 814 665 842 704 q 601 529 749 567 q 683 532 643 532 q 814 518 765 532 l 817 517 q 917 453 868 503 q 976 286 976 386 q 949 163 976 218 q 757 17 893 60 q 639 0 697 0 z "},"à":{"ha":754,"x_min":22,"x_max":751,"o":"m 751 0 l 506 0 l 506 93 q 419 38 467 61 q 293 6 353 6 q 147 53 210 6 q 49 172 83 101 q 22 286 22 229 q 64 432 22 364 q 232 560 119 522 q 286 628 247 593 q 393 667 346 667 q 607 585 547 667 q 661 414 661 510 l 661 100 q 688 36 661 63 q 751 10 714 10 l 751 0 m 496 550 q 479 613 496 585 q 418 653 454 646 l 415 654 q 389 657 401 657 q 293 619 335 657 q 244 564 272 607 q 353 582 308 582 q 433 572 393 582 q 496 550 472 563 m 418 107 q 506 121 474 110 l 506 397 q 500 515 506 468 q 497 538 500 528 q 379 572 451 569 q 265 544 313 572 l 264 543 q 189 471 213 510 q 160 364 160 415 q 172 280 160 314 q 187 241 185 246 q 206 213 189 236 q 324 121 249 147 q 418 107 365 107 m 479 807 l 274 915 l 324 986 l 497 832 l 479 807 z "},"á":{"ha":754,"x_min":22,"x_max":751,"o":"m 751 0 l 506 0 l 506 93 q 419 38 467 61 q 293 6 353 6 q 147 53 210 6 q 49 172 83 101 q 22 286 22 229 q 64 432 22 364 q 232 560 119 522 q 286 628 247 593 q 393 667 346 667 q 607 585 547 667 q 660 418 660 511 l 661 100 q 688 36 661 63 q 751 10 714 10 l 751 0 m 496 550 q 479 613 496 585 q 418 653 454 646 l 415 654 q 389 657 401 657 q 293 619 335 657 q 244 564 272 607 q 353 582 308 582 q 433 572 393 582 q 496 550 472 563 m 418 107 q 506 121 472 110 l 506 397 q 500 515 506 468 q 497 538 500 528 q 379 572 451 569 q 265 544 313 572 l 264 543 q 190 472 211 510 l 189 471 q 160 364 160 415 q 172 280 160 314 q 187 241 185 246 q 206 213 189 236 q 324 121 249 147 q 418 107 365 107 m 293 807 l 275 832 l 449 986 l 499 915 l 293 807 z "},"â":{"ha":754,"x_min":22,"x_max":751,"o":"m 751 0 l 506 0 l 506 93 q 419 38 467 61 q 293 6 353 6 q 147 53 210 6 q 49 172 83 101 q 22 286 22 229 q 64 432 22 364 q 232 560 119 522 q 286 628 247 593 q 393 667 346 667 q 607 585 547 667 q 661 414 661 510 l 661 100 q 688 36 661 63 q 751 10 714 10 l 751 0 m 496 550 q 479 613 496 585 q 418 653 454 646 l 415 654 q 389 657 401 657 q 293 619 335 657 q 244 564 272 607 q 353 582 308 582 q 433 572 393 582 q 496 550 472 563 m 418 107 q 506 121 474 110 l 506 397 q 500 515 506 468 q 497 538 500 528 q 379 572 451 569 q 265 544 313 572 l 264 543 q 189 471 213 510 q 160 364 160 415 q 172 280 160 314 q 187 241 185 246 q 206 213 189 236 q 324 121 249 147 q 418 107 365 107 m 528 817 l 386 886 l 246 817 l 225 842 l 386 974 l 549 842 l 528 817 z "},"ã":{"ha":754,"x_min":22,"x_max":751,"o":"m 751 0 l 506 0 l 506 93 q 419 38 467 61 q 293 6 353 6 q 147 53 210 6 q 49 172 83 101 q 22 286 22 229 q 64 432 22 364 q 232 560 119 522 q 286 628 247 593 q 393 667 346 667 q 607 585 547 667 q 660 418 660 511 l 661 100 q 688 36 661 63 q 751 10 714 10 l 751 0 m 496 550 q 479 613 496 585 q 418 653 454 646 l 415 654 q 389 657 401 657 q 293 619 335 657 q 244 564 272 607 q 353 582 308 582 q 433 572 393 582 q 496 550 472 563 m 418 107 q 506 121 472 110 l 506 397 q 500 515 506 468 q 497 538 500 528 q 379 572 451 569 q 265 544 313 572 l 264 543 q 189 471 213 510 q 160 364 160 415 q 172 280 160 314 q 187 241 185 246 q 206 213 189 236 q 324 121 249 147 q 418 107 365 107 m 451 818 q 397 833 424 818 q 341 869 383 840 q 281 897 299 897 q 274 897 276 897 q 265 893 271 896 q 236 858 247 883 l 232 847 l 199 857 l 204 869 q 249 936 217 906 q 329 972 288 972 l 336 972 q 414 933 374 969 q 442 913 429 921 q 471 906 456 906 l 476 906 l 489 908 q 521 928 507 915 q 546 963 529 936 l 574 951 q 569 933 569 933 q 567 926 568 932 q 563 916 565 921 q 560 908 560 911 q 520 850 539 868 q 499 829 501 832 l 494 828 q 451 818 475 818 z "},"ä":{"ha":754,"x_min":22,"x_max":751,"o":"m 751 0 l 506 0 l 506 93 q 419 38 467 61 q 293 6 353 6 q 147 53 210 6 q 49 172 83 101 q 22 286 22 229 q 64 432 22 364 q 232 560 119 522 q 286 628 247 593 q 393 667 346 667 q 607 585 547 667 q 660 418 660 511 l 661 100 q 688 36 661 63 q 751 10 714 10 l 751 0 m 496 550 q 479 613 496 585 q 418 653 454 646 l 415 654 q 389 657 401 657 q 293 619 335 657 q 244 564 272 607 q 353 582 308 582 q 433 572 393 582 q 496 550 472 563 m 418 107 q 506 121 472 110 l 506 397 q 500 515 506 468 q 497 538 500 528 q 379 572 451 569 q 265 544 313 572 l 264 543 q 189 471 213 510 q 160 364 160 415 q 172 280 160 314 q 187 241 185 246 q 206 213 189 236 q 324 121 249 147 q 418 107 365 107 m 271 815 q 214 839 238 815 q 190 894 190 863 q 214 951 190 928 q 271 975 238 975 q 328 951 304 975 q 351 894 351 928 q 328 839 351 863 q 271 815 304 815 m 510 815 q 453 839 476 815 q 431 894 431 863 q 454 951 431 928 q 510 975 478 975 q 567 951 543 975 q 590 894 590 928 q 567 839 590 863 q 510 815 543 815 z "},"å":{"ha":754,"x_min":22,"x_max":751,"o":"m 751 0 l 506 0 l 506 93 q 419 38 467 61 q 293 6 353 6 q 147 53 210 6 q 49 172 83 101 q 22 286 22 229 q 64 432 22 364 q 232 560 119 522 q 286 628 247 593 q 393 667 346 667 q 607 585 547 667 q 660 418 660 511 l 661 100 q 688 36 661 63 q 751 10 714 10 l 751 0 m 496 550 q 479 613 496 585 q 418 654 454 647 l 415 654 q 389 657 401 657 q 293 619 335 657 q 244 564 272 607 q 353 582 308 582 q 433 572 393 582 q 496 550 472 563 m 418 107 q 506 121 472 110 l 506 397 q 500 515 506 468 q 497 538 500 528 q 379 572 451 569 q 265 544 313 572 l 264 543 q 189 471 213 510 q 160 364 160 415 q 172 280 160 314 q 187 241 185 246 q 206 213 189 236 q 324 121 249 147 q 418 107 365 107 m 413 803 q 348 830 375 803 q 321 894 321 857 q 348 960 321 933 q 413 988 375 988 q 478 960 451 988 q 506 894 506 933 q 478 830 506 857 q 413 803 451 803 m 413 813 q 451 839 435 813 q 468 893 468 865 q 451 951 468 924 q 413 978 435 978 q 376 950 392 978 q 360 892 360 922 q 376 838 361 863 q 413 813 392 813 z "},"æ":{"ha":1160,"x_min":22,"x_max":1138,"o":"m 836 -3 q 579 138 674 -3 l 504 83 l 504 85 q 400 21 461 44 q 293 -3 339 -3 q 155 40 217 -3 q 58 147 93 82 q 22 278 22 211 q 64 424 22 356 q 215 544 115 508 l 232 551 q 286 619 247 585 q 396 658 347 658 q 529 637 478 658 q 613 568 581 615 q 832 665 708 657 l 874 667 q 1002 635 956 667 q 1051 556 1049 603 q 974 460 1051 486 q 1122 354 1079 439 q 1138 279 1138 315 q 1121 190 1138 226 l 1121 189 q 1114 175 1118 182 q 1110 165 1110 168 q 1057 96 1093 133 q 836 -3 963 -3 m 496 542 q 479 604 496 576 q 418 644 454 636 l 415 646 q 389 649 401 649 q 293 611 335 649 q 244 556 272 599 q 353 574 301 574 q 433 564 393 574 q 496 542 472 554 m 418 99 q 504 113 472 101 l 504 413 q 497 529 504 476 q 379 564 451 561 q 303 552 333 564 q 264 533 272 540 q 190 464 211 501 l 189 463 q 160 356 160 407 q 172 272 160 306 q 187 233 185 238 q 206 204 189 228 q 324 113 249 139 q 418 99 365 99 m 938 96 q 1083 149 1033 96 q 1104 175 1097 164 l 1111 193 q 1122 220 1114 196 q 1129 279 1129 244 q 1114 350 1129 313 q 940 454 1065 443 l 875 450 l 822 450 q 703 433 744 450 q 674 417 688 426 q 642 382 661 407 l 640 399 q 723 449 678 440 q 814 458 768 458 q 926 465 897 458 q 933 467 932 465 q 939 508 936 478 q 933 553 939 529 q 913 601 928 578 q 879 634 899 624 q 843 648 860 644 q 817 651 826 651 q 715 607 760 651 q 665 536 681 575 q 640 406 640 475 l 640 397 q 747 161 640 261 q 863 103 790 124 l 865 103 q 938 96 886 96 z "},"ç":{"ha":665,"x_min":26,"x_max":643,"o":"m 361 -311 q 233 -237 289 -311 l 242 -232 q 301 -269 260 -260 q 326 -272 310 -272 q 371 -261 346 -272 q 411 -214 400 -244 q 418 -172 418 -192 q 401 -107 418 -137 q 353 -67 385 -76 q 331 -62 342 -62 q 271 -83 300 -62 l 311 0 q 106 108 186 14 q 26 340 26 201 q 72 513 26 442 q 188 622 117 583 q 364 667 267 667 q 486 639 426 667 q 557 556 551 607 q 546 517 557 531 q 461 464 521 472 q 615 378 558 458 q 643 281 643 328 q 633 213 643 243 q 554 90 607 133 q 340 -1 463 -1 l 322 0 l 293 -60 q 357 -46 325 -46 q 449 -79 407 -46 q 496 -182 496 -119 q 489 -221 496 -201 q 458 -271 478 -253 q 419 -297 438 -289 q 393 -308 400 -306 l 390 -308 q 361 -311 376 -311 m 453 104 q 589 149 538 104 q 633 281 633 200 q 607 372 633 325 q 493 449 568 431 l 471 453 q 435 489 440 458 q 438 511 435 501 q 440 536 440 521 l 440 542 q 374 640 431 610 q 319 656 346 656 q 199 578 256 656 q 142 407 142 500 q 165 288 142 346 q 236 186 189 229 q 341 124 283 143 q 453 104 399 104 z "},"è":{"ha":629,"x_min":29,"x_max":644,"o":"m 413 804 l 207 913 l 256 985 l 431 831 l 413 804 m 343 0 q 119 97 208 0 q 29 340 29 194 q 74 513 29 442 q 190 622 119 583 q 340 667 261 661 l 383 669 q 506 638 457 669 q 558 557 556 606 q 548 515 558 536 q 521 481 538 494 q 481 461 504 467 q 631 356 588 440 q 644 283 644 318 q 628 192 644 228 q 627 188 628 190 q 624 182 626 186 q 620 174 621 178 q 618 169 619 169 q 617 167 617 168 q 564 97 600 135 q 343 0 469 0 m 444 97 q 592 150 542 97 q 613 181 610 171 q 619 194 617 190 q 636 279 636 228 q 621 351 636 314 q 447 456 572 444 l 382 451 l 331 451 q 210 435 251 451 q 149 383 185 426 l 149 401 q 235 452 183 443 q 343 461 286 461 q 433 467 406 461 l 438 467 q 443 475 440 467 q 446 510 446 492 q 419 604 446 561 q 411 615 417 610 q 324 653 376 653 q 222 608 267 653 q 147 422 147 531 q 153 356 147 400 q 256 163 165 242 q 369 104 300 124 l 372 104 q 444 97 393 97 z "},"é":{"ha":664,"x_min":26,"x_max":642,"o":"m 240 804 l 222 831 l 397 985 l 446 913 l 240 804 m 340 0 q 116 97 206 0 q 26 340 26 194 q 72 513 26 442 q 188 622 117 583 q 338 667 258 661 l 381 669 q 503 638 454 669 q 556 557 553 606 q 545 515 556 536 q 518 481 535 494 q 478 461 501 467 q 628 356 585 440 q 642 283 642 318 q 625 192 642 228 q 624 188 625 190 q 621 182 624 186 q 617 174 618 178 q 615 169 617 169 q 614 167 614 168 q 561 97 597 135 q 340 0 467 0 m 442 97 q 589 150 539 97 q 610 181 607 171 q 617 194 614 190 q 633 279 633 228 q 618 351 633 314 q 444 456 569 444 l 379 451 l 328 451 q 207 435 249 451 q 146 383 182 426 l 146 401 q 232 452 181 443 q 340 461 283 461 q 431 467 403 461 l 435 467 q 440 475 438 467 q 443 510 443 492 q 417 604 443 561 q 408 615 414 610 q 321 653 374 653 q 219 608 264 653 q 144 422 144 531 q 150 356 144 400 q 253 163 163 242 q 367 104 297 124 l 369 104 q 442 97 390 97 z "},"ê":{"ha":664,"x_min":26,"x_max":642,"o":"m 475 815 l 335 885 l 193 815 l 172 839 l 335 972 l 496 839 l 475 815 m 340 0 q 116 97 206 0 q 26 340 26 194 q 72 513 26 442 q 188 622 117 583 q 338 667 258 661 l 381 669 q 503 638 454 669 q 556 557 553 606 q 545 515 556 536 q 518 481 535 494 q 478 461 501 467 q 628 356 585 440 q 642 283 642 318 q 625 192 642 228 q 624 188 625 190 q 621 182 624 186 q 617 174 618 178 q 615 169 617 169 q 614 167 614 168 q 561 97 597 135 q 340 0 467 0 m 442 97 q 589 150 539 97 q 610 181 607 171 q 617 194 614 190 q 633 279 633 228 q 618 351 633 314 q 444 456 569 444 l 379 451 l 328 451 q 207 435 249 451 q 146 383 182 426 l 146 401 q 232 452 181 443 q 340 461 283 461 q 431 467 403 461 l 435 467 q 440 475 438 467 q 443 510 443 492 q 417 604 443 561 q 408 615 414 610 q 321 653 374 653 q 219 608 264 653 q 144 422 144 531 q 150 356 144 400 q 253 163 163 242 q 367 104 297 124 l 369 104 q 442 97 390 97 z "},"ë":{"ha":664,"x_min":26,"x_max":642,"o":"m 194 813 q 138 836 161 813 q 114 893 114 860 q 138 950 114 926 q 194 974 161 974 q 251 950 228 974 q 275 893 275 926 q 251 836 275 860 q 194 813 228 813 m 433 813 q 378 836 401 813 q 354 893 354 860 q 378 950 354 926 q 433 974 401 974 q 490 950 467 974 q 514 893 514 926 q 490 836 514 860 q 433 813 467 813 m 340 0 q 116 97 206 0 q 26 340 26 194 q 72 513 26 442 q 188 622 117 583 q 338 667 258 661 l 381 669 q 503 638 454 669 q 556 557 553 606 q 545 515 556 536 q 518 481 535 494 q 478 461 501 467 q 628 356 585 440 q 642 283 642 318 q 625 192 642 228 q 624 188 625 190 q 621 182 624 186 q 617 174 618 178 q 615 169 617 169 q 614 167 614 168 q 561 97 597 135 q 340 0 467 0 m 442 97 q 589 150 539 97 q 610 181 607 171 q 617 194 614 190 q 633 279 633 228 q 618 351 633 314 q 444 456 569 444 l 379 451 l 328 451 q 207 435 249 451 q 146 383 182 426 l 146 401 q 232 452 181 443 q 340 461 283 461 q 431 467 403 461 l 435 467 q 440 475 438 467 q 443 510 443 492 q 417 604 443 561 q 408 615 414 610 q 321 653 374 653 q 219 608 264 653 q 144 422 144 531 q 150 356 144 400 q 253 163 163 242 q 367 104 297 124 l 369 104 q 442 97 390 97 z "},"ì":{"ha":385,"x_min":3,"x_max":378,"o":"m 378 -1 l 40 -1 l 40 8 q 104 35 78 8 q 131 99 131 61 l 131 508 q 99 588 131 553 q 35 614 71 614 l 6 614 l 3 622 l 131 667 l 288 667 l 288 99 q 314 35 288 61 q 378 8 340 8 l 378 -1 m 283 807 l 79 915 l 128 986 l 301 832 l 283 807 z "},"í":{"ha":385,"x_min":3,"x_max":378,"o":"m 378 -1 l 40 -1 l 40 8 q 104 35 78 8 q 131 99 131 61 l 131 508 q 99 588 131 553 q 35 614 71 614 l 6 614 l 3 622 l 131 667 l 288 667 l 288 99 q 314 35 288 61 q 378 8 340 8 l 378 -1 m 97 807 l 79 832 l 253 986 l 301 915 l 97 807 z "},"î":{"ha":385,"x_min":3,"x_max":378,"o":"m 378 -1 l 40 -1 l 40 8 q 104 35 78 8 q 131 99 131 61 l 131 508 q 99 588 131 553 q 35 614 71 614 l 6 614 l 3 622 l 131 667 l 288 667 l 288 99 q 314 35 288 61 q 378 8 340 8 l 378 -1 m 332 817 l 190 886 l 49 817 l 29 842 l 190 974 l 351 842 l 332 817 z "},"ï":{"ha":385,"x_min":3,"x_max":378,"o":"m 378 -1 l 40 -1 l 40 8 q 104 35 78 8 q 131 99 131 61 l 131 508 q 99 588 131 553 q 35 614 71 614 l 6 614 l 3 622 l 131 667 l 288 667 l 288 99 q 314 35 288 61 q 378 8 340 8 l 378 -1 m 314 882 l 67 882 l 67 904 l 314 904 l 314 882 z "},"ð":{"ha":796,"x_min":25,"x_max":765,"o":"m 389 -7 l 365 -7 q 135 74 232 -7 q 53 188 82 122 q 25 325 25 254 q 42 428 25 376 q 83 512 46 451 q 204 617 119 572 q 326 643 268 643 q 500 597 426 643 q 625 492 594 539 q 596 613 618 549 q 466 828 544 746 q 331 946 388 910 l 104 825 l 100 835 l 325 954 q 225 1007 288 983 q 89 1039 143 1036 l 90 1049 q 276 1013 161 1047 l 282 1010 q 364 976 304 1003 l 508 1053 l 514 1044 l 375 971 q 528 876 444 938 q 679 723 613 815 q 763 506 746 631 q 765 449 765 478 q 717 225 765 336 q 568 49 668 114 q 460 3 510 14 q 389 -7 411 -7 m 443 22 q 481 28 475 25 l 492 32 q 618 189 596 64 q 633 385 633 279 q 631 456 633 425 q 483 544 576 519 q 418 551 460 551 q 240 483 311 551 q 176 353 186 424 l 175 349 q 172 313 172 331 q 230 140 172 215 q 357 38 288 64 q 443 22 400 22 z "},"ñ":{"ha":822,"x_min":1,"x_max":818,"o":"m 376 -3 l 39 -3 l 39 8 q 103 35 76 8 q 129 99 129 61 l 129 510 q 97 589 129 556 q 33 615 69 615 l 4 615 l 1 625 l 129 668 l 286 667 l 286 517 q 365 615 311 568 q 497 667 418 661 q 588 651 551 667 q 669 594 635 629 q 726 467 726 526 l 728 99 q 754 35 728 61 q 818 8 781 8 l 818 -1 l 483 -1 l 483 8 q 547 35 521 8 q 574 100 574 63 l 572 400 q 556 482 572 442 q 490 560 531 532 q 407 588 449 588 l 388 586 q 332 557 354 578 q 299 517 310 536 q 286 492 288 497 l 286 99 q 313 35 286 61 q 376 8 339 8 l 376 -3 m 410 818 l 249 950 l 268 975 l 410 906 l 551 975 l 571 950 l 410 818 z "},"ò":{"ha":681,"x_min":1,"x_max":676,"o":"m 339 -1 q 101 97 200 -1 q 1 332 1 194 q 101 569 1 471 q 339 667 200 667 q 578 569 479 667 q 676 332 676 471 q 578 97 676 194 q 339 -1 479 -1 m 339 6 q 428 56 386 6 q 495 181 469 106 q 521 333 521 256 q 494 485 519 411 q 427 610 468 560 q 339 660 386 660 q 250 609 292 660 q 183 483 208 558 q 157 331 157 407 q 184 180 158 254 q 251 56 210 106 q 339 6 292 6 m 433 807 l 228 915 l 276 986 l 451 832 l 433 807 z "},"ó":{"ha":726,"x_min":25,"x_max":700,"o":"m 363 -1 q 124 97 224 -1 q 25 332 25 194 q 124 569 25 471 q 363 667 224 667 q 601 569 503 667 q 700 332 700 471 q 601 97 700 194 q 363 -1 503 -1 m 363 6 q 451 56 410 6 q 519 181 493 106 q 544 333 544 256 q 517 485 543 411 q 451 610 492 560 q 363 660 410 660 q 274 609 315 660 q 206 483 232 558 q 181 331 181 407 q 208 180 182 254 q 274 56 233 106 q 363 6 315 6 m 269 807 l 251 832 l 425 986 l 475 915 l 269 807 z "},"ô":{"ha":726,"x_min":25,"x_max":700,"o":"m 363 -1 q 124 97 224 -1 q 25 332 25 194 q 124 569 25 471 q 363 667 224 667 q 601 569 503 667 q 700 332 700 471 q 601 97 700 194 q 363 -1 503 -1 m 363 6 q 451 56 410 6 q 519 181 493 106 q 544 333 544 256 q 517 485 543 411 q 451 610 492 560 q 363 660 410 660 q 274 609 315 660 q 206 483 232 558 q 181 331 181 407 q 208 180 182 254 q 274 56 233 106 q 363 6 315 6 m 504 817 l 363 886 l 221 817 l 201 842 l 363 974 l 524 842 l 504 817 z "},"õ":{"ha":726,"x_min":25,"x_max":700,"o":"m 363 -1 q 124 97 224 -1 q 25 332 25 194 q 124 569 25 471 q 363 667 224 667 q 601 569 503 667 q 700 332 700 471 q 601 97 700 194 q 363 -1 503 -1 m 363 6 q 451 56 410 6 q 519 181 493 106 q 544 331 544 256 q 518 483 543 408 q 451 609 493 558 q 363 660 410 660 q 274 609 315 660 q 206 483 232 558 q 181 331 181 407 q 208 180 182 254 q 274 56 233 106 q 363 6 315 6 m 428 819 q 372 835 399 819 q 319 868 344 850 q 256 900 275 900 q 249 899 251 900 q 242 894 246 897 q 228 881 239 892 q 208 850 217 869 l 175 858 q 188 892 181 878 q 225 938 197 913 q 308 975 265 975 q 355 962 335 974 q 390 937 375 950 q 419 915 406 924 q 447 907 433 907 q 493 924 479 910 q 517 957 507 939 l 521 965 l 550 953 q 540 924 544 935 q 536 911 536 914 q 506 863 521 881 q 481 838 492 846 q 469 831 471 831 q 428 819 450 819 z "},"ö":{"ha":726,"x_min":25,"x_max":700,"o":"m 243 815 q 186 839 210 815 q 163 894 163 863 q 186 951 163 928 q 243 975 210 975 q 300 951 276 975 q 324 894 324 928 q 300 839 324 863 q 243 815 276 815 m 482 815 q 426 839 450 815 q 403 894 403 863 q 426 951 403 928 q 482 975 450 975 q 539 951 515 975 q 563 894 563 928 q 539 839 563 863 q 482 815 515 815 m 363 -1 q 124 97 224 -1 q 25 332 25 194 q 124 569 25 471 q 363 667 224 667 q 601 569 503 667 q 700 332 700 471 q 601 97 700 194 q 363 -1 503 -1 m 363 6 q 451 56 410 6 q 519 181 493 106 q 544 333 544 256 q 517 485 543 411 q 451 610 492 560 q 363 660 410 660 q 274 609 315 660 q 206 483 232 558 q 181 331 181 407 q 208 180 182 254 q 274 56 233 106 q 363 6 315 6 z "},"ø":{"ha":750,"x_min":31,"x_max":729,"o":"m 369 -1 q 133 93 231 -1 l 38 3 l 31 10 l 126 100 q 31 333 31 197 q 130 569 31 471 q 369 667 229 667 q 613 565 514 667 l 722 671 l 729 664 l 619 558 q 710 333 710 464 q 610 97 710 194 q 369 -1 511 -1 m 213 183 l 525 482 q 459 606 500 556 q 369 660 418 657 q 236 540 290 651 q 186 331 188 443 q 213 183 188 256 m 369 6 q 496 116 442 13 q 550 333 550 219 q 528 471 550 404 l 215 172 q 350 8 265 38 l 369 6 z "},"ù":{"ha":790,"x_min":4,"x_max":779,"o":"m 779 -3 l 533 -3 l 533 169 q 459 60 514 117 q 318 -3 404 4 l 310 -3 q 231 14 265 -3 q 150 69 174 40 q 93 201 93 140 q 92 567 92 243 q 66 632 92 606 q 4 658 40 658 l 4 668 l 335 668 l 335 658 q 272 631 299 658 q 246 567 246 604 l 246 282 q 288 150 246 211 q 403 83 346 83 q 472 114 439 83 q 531 189 510 149 l 533 194 l 533 568 q 507 632 533 606 q 443 658 481 658 l 443 668 l 779 668 l 779 658 q 715 632 742 658 q 689 568 689 606 l 689 97 q 715 33 689 60 q 779 7 742 7 l 779 -3 m 493 807 l 288 915 l 338 986 l 511 832 l 493 807 z "},"ú":{"ha":790,"x_min":4,"x_max":779,"o":"m 779 -3 l 533 -3 l 533 169 q 459 60 514 117 q 318 -3 404 4 l 310 -3 q 231 14 265 -3 q 150 69 174 40 q 93 201 93 140 q 92 567 92 243 q 66 632 92 606 q 4 658 40 658 l 4 668 l 335 668 l 335 658 q 272 631 299 658 q 246 567 246 604 l 246 282 q 288 150 246 211 q 403 83 346 83 q 472 114 439 83 q 531 189 510 149 l 533 194 l 533 568 q 507 632 533 606 q 443 658 481 658 l 443 668 l 779 668 l 779 658 q 715 632 742 658 q 689 568 689 606 l 689 97 q 715 33 689 60 q 779 7 742 7 l 779 -3 m 299 807 l 281 832 l 454 986 l 504 915 l 299 807 z "},"û":{"ha":790,"x_min":4,"x_max":779,"o":"m 779 -3 l 533 -3 l 533 169 q 459 60 514 117 q 318 -3 404 4 l 310 -3 q 231 14 265 -3 q 150 69 174 40 q 93 201 93 140 q 92 567 92 243 q 66 632 92 606 q 4 658 40 658 l 4 668 l 335 668 l 335 658 q 272 631 299 658 q 246 567 246 604 l 246 282 q 288 150 246 211 q 403 83 346 83 q 472 114 439 83 q 531 189 510 149 l 533 194 l 533 568 q 507 632 533 606 q 443 658 481 658 l 443 668 l 779 668 l 779 658 q 715 632 742 658 q 689 568 689 606 l 689 97 q 715 33 689 60 q 779 7 742 7 l 779 -3 m 522 817 l 381 886 l 239 817 l 219 842 l 381 974 l 542 842 l 522 817 z "},"ü":{"ha":790,"x_min":4,"x_max":779,"o":"m 779 -3 l 533 -3 l 533 169 q 459 60 514 117 q 318 -3 404 4 l 310 -3 q 231 14 265 -3 q 150 69 174 40 q 93 201 93 140 q 92 567 92 243 q 66 632 92 606 q 4 658 40 658 l 4 668 l 335 668 l 335 658 q 272 631 299 658 q 246 567 246 604 l 246 282 q 288 150 246 211 q 403 83 346 83 q 472 114 439 83 q 531 189 510 149 l 533 194 l 533 568 q 507 632 533 606 q 443 658 481 658 l 443 668 l 779 668 l 779 658 q 715 632 742 658 q 689 568 689 606 l 689 97 q 715 33 689 60 q 779 7 742 7 l 779 -3 m 272 815 q 215 839 239 815 q 192 894 192 863 q 215 951 192 928 q 272 975 239 975 q 329 951 306 975 q 353 894 353 928 q 329 839 353 863 q 272 815 306 815 m 511 815 q 456 839 479 815 q 432 894 432 863 q 456 951 432 928 q 511 975 479 975 q 568 951 544 975 q 592 894 592 928 q 568 839 592 863 q 511 815 544 815 z "},"ý":{"ha":810,"x_min":-8,"x_max":815,"o":"m 157 -267 q 56 -237 97 -267 q 7 -187 28 -219 q -8 -132 -7 -164 q 1 -89 -8 -108 l 6 -83 q 21 -69 11 -76 q 85 -50 46 -50 q 113 -54 110 -50 q 117 -68 117 -58 l 115 -79 q 108 -135 108 -97 q 114 -172 108 -156 q 158 -216 125 -200 q 226 -232 190 -232 q 343 -169 285 -232 l 360 -150 q 406 -90 392 -112 l 340 67 q 156 519 204 396 q 119 563 143 547 q 68 579 96 579 q 7 556 35 579 l 0 563 l 99 667 l 264 667 l 500 83 l 690 579 q 694 600 694 590 q 678 640 694 622 q 636 657 661 657 l 636 667 l 815 667 l 815 657 q 701 579 739 657 l 503 63 q 429 -72 469 -12 q 239 -254 333 -221 q 157 -267 204 -267 m 310 807 l 292 832 l 465 986 l 515 915 l 310 807 z "},"þ":{"ha":814,"x_min":-72,"x_max":788,"o":"m 300 -376 l 56 -376 l 56 801 q 24 881 56 847 q -39 907 -6 907 l -69 907 l -72 917 l 56 960 l 210 960 l 210 403 q 417 607 288 521 q 568 656 497 656 q 640 640 606 656 q 750 524 713 606 q 788 356 788 442 q 785 311 788 333 q 651 81 761 167 q 399 -12 532 -12 q 210 36 301 -12 l 210 -275 q 236 -339 210 -312 q 300 -365 263 -365 l 300 -376 m 368 1 q 403 4 385 1 q 524 58 481 19 q 576 113 568 96 q 640 321 640 199 q 611 472 640 404 q 489 568 568 568 q 450 565 467 568 l 443 564 q 365 531 400 554 q 210 378 261 457 l 210 54 q 263 22 221 43 q 368 1 306 1 z "},"ÿ":{"ha":810,"x_min":-8,"x_max":815,"o":"m 157 -267 q 56 -237 97 -267 q 7 -187 28 -219 q -8 -132 -7 -164 q 1 -89 -8 -108 l 6 -83 q 21 -69 11 -76 q 85 -50 46 -50 q 113 -54 110 -50 q 117 -68 117 -58 l 115 -79 q 108 -135 108 -97 q 114 -172 108 -156 q 158 -216 125 -200 q 226 -232 190 -232 q 343 -169 285 -232 l 360 -150 q 406 -90 392 -112 l 340 67 q 156 519 204 396 q 119 563 143 547 q 68 579 96 579 q 7 556 35 579 l 0 563 l 99 667 l 264 667 l 500 83 l 690 579 q 694 600 694 590 q 678 640 694 622 q 636 657 661 657 l 636 667 l 815 667 l 815 657 q 701 579 739 657 l 503 63 q 429 -72 469 -12 q 239 -254 333 -221 q 157 -267 204 -267 m 283 815 q 227 839 250 815 q 204 894 204 863 q 227 951 204 928 q 283 975 250 975 q 340 951 317 975 q 364 894 364 928 q 340 839 364 863 q 283 815 317 815 m 524 815 q 467 839 490 815 q 443 894 443 863 q 467 951 443 928 q 524 975 490 975 q 579 951 556 975 q 603 894 603 928 q 579 839 603 863 q 524 815 556 815 z "},"Ā":{"ha":1071,"x_min":-15,"x_max":1083,"o":"m 1083 0 l 740 0 l 740 10 q 783 28 765 10 q 800 69 800 46 q 796 90 800 79 l 746 196 l 694 314 l 232 314 l 157 119 q 151 90 151 104 q 174 34 151 58 q 232 10 197 10 l 232 0 l -15 0 l -15 10 q 83 40 39 10 q 146 121 126 71 l 224 318 l 224 324 l 225 324 l 433 863 l 335 863 l 328 869 l 433 971 l 597 971 l 969 86 q 1083 10 1008 10 l 1083 0 m 690 324 l 483 826 q 443 860 472 853 l 236 324 l 690 324 m 658 1072 l 410 1072 l 410 1094 l 658 1094 l 658 1072 z "},"ā":{"ha":754,"x_min":22,"x_max":751,"o":"m 751 0 l 506 0 l 506 93 q 419 38 467 61 q 293 6 353 6 q 147 53 210 6 q 49 172 83 101 q 22 286 22 229 q 64 432 22 364 q 232 560 119 522 q 286 628 247 593 q 393 667 346 667 q 607 585 547 667 q 660 418 660 511 l 661 100 q 688 36 661 63 q 751 10 714 10 l 751 0 m 496 550 q 479 613 496 585 q 418 653 454 646 l 415 654 q 389 657 401 657 q 293 619 335 657 q 244 564 272 607 q 353 582 308 582 q 433 572 393 582 q 496 550 472 563 m 418 107 q 506 121 474 110 l 506 397 q 500 515 506 468 q 497 538 500 528 q 379 572 451 569 q 265 544 313 572 l 264 543 q 189 471 213 510 q 160 364 160 415 q 172 280 160 314 q 187 241 185 246 q 206 213 189 236 q 324 121 249 147 q 418 107 365 107 m 511 883 l 263 883 l 263 906 l 511 906 l 511 883 z "},"Ă":{"ha":1071,"x_min":-15,"x_max":1083,"o":"m 597 1076 q 469 1129 529 1076 q 411 1267 411 1188 l 411 1278 l 442 1279 q 465 1226 450 1250 l 467 1225 q 582 1168 510 1168 q 693 1204 647 1169 l 697 1207 q 756 1274 731 1232 l 788 1272 l 783 1258 q 715 1129 765 1179 q 597 1076 664 1079 m 1083 0 l 740 0 l 740 10 q 783 28 765 10 q 800 69 800 46 q 796 90 800 79 l 746 196 l 694 314 l 232 314 l 157 119 q 151 90 151 104 q 174 34 151 58 q 232 10 197 10 l 232 0 l -15 0 l -15 10 q 83 40 39 10 q 146 121 126 71 l 224 318 l 224 324 l 225 324 l 433 863 l 335 863 l 328 869 l 433 971 l 597 971 l 969 86 q 1083 10 1008 10 l 1083 0 m 690 324 l 483 826 q 443 860 472 853 l 236 324 l 690 324 z "},"ă":{"ha":754,"x_min":22,"x_max":751,"o":"m 751 0 l 506 0 l 506 93 q 419 38 467 61 q 293 6 353 6 q 147 53 210 6 q 49 172 83 101 q 22 286 22 229 q 64 432 22 364 q 232 560 119 522 q 286 628 247 593 q 393 667 346 667 q 607 585 547 667 q 660 418 660 511 l 661 100 q 688 36 661 63 q 751 10 714 10 l 751 0 m 496 550 q 479 613 496 585 q 418 653 454 646 l 415 654 q 389 657 401 657 q 293 619 335 657 q 244 564 272 607 q 353 582 308 582 q 433 572 393 582 q 496 550 472 563 m 418 107 q 506 121 472 110 l 506 397 q 500 515 506 468 q 497 538 500 528 q 379 572 451 569 q 265 544 313 572 l 264 543 q 189 471 213 510 q 160 364 160 415 q 172 280 160 314 q 187 241 185 246 q 206 213 189 236 q 324 121 249 147 q 418 107 365 107 m 389 793 q 261 846 321 793 q 201 996 201 907 l 233 996 l 236 988 q 257 944 243 964 q 324 894 274 914 q 374 885 353 885 q 399 888 389 885 q 487 923 453 896 q 543 985 521 950 l 546 992 l 578 990 q 506 846 561 900 q 389 793 456 796 z "},"Ą":{"ha":1071,"x_min":-15,"x_max":1099,"o":"m 942 -337 q 869 -318 901 -337 q 807 -208 807 -281 q 883 0 807 -122 l 740 0 l 740 10 q 783 28 765 10 q 800 69 800 46 q 796 90 800 79 l 746 196 l 694 314 l 232 314 l 157 119 q 151 90 151 104 q 174 34 151 58 q 232 10 197 10 l 232 0 l -15 0 l -15 10 q 83 40 39 10 q 146 121 126 71 l 224 318 l 224 324 l 225 324 l 433 863 l 335 863 l 328 869 l 433 971 l 597 971 l 969 86 q 1083 10 1008 10 l 1083 0 l 928 0 q 886 -147 886 -82 q 910 -225 886 -194 q 982 -264 939 -264 q 1020 -255 1003 -264 q 1049 -237 1038 -246 q 1062 -226 1060 -228 q 1065 -222 1064 -224 q 1069 -217 1067 -219 l 1099 -231 q 1036 -306 1076 -275 q 942 -337 990 -337 m 690 324 l 483 826 q 443 860 472 853 l 236 324 l 690 324 z "},"ą":{"ha":754,"x_min":22,"x_max":821,"o":"m 664 -319 q 592 -300 624 -319 q 531 -192 531 -264 q 594 0 531 -111 l 506 0 l 506 93 q 419 38 467 61 q 293 6 353 6 q 147 53 210 6 q 49 172 83 101 q 22 286 22 229 q 64 432 22 364 q 232 560 119 522 q 286 628 247 593 q 393 667 346 667 q 607 585 547 667 q 660 418 660 511 l 661 100 q 688 36 661 63 q 751 10 714 10 l 751 0 l 642 0 q 608 -128 608 -72 q 632 -207 608 -175 q 706 -246 663 -246 q 774 -218 742 -246 l 793 -199 l 821 -212 q 758 -287 797 -261 q 664 -319 713 -319 m 496 550 q 479 613 496 585 q 418 653 454 646 l 415 654 q 389 657 401 657 q 293 619 335 657 q 244 564 272 607 q 353 582 308 582 q 433 572 393 582 q 496 550 472 563 m 418 107 q 506 121 472 110 l 506 397 q 500 515 506 468 q 497 538 500 528 q 379 572 451 569 q 265 544 313 572 l 264 543 q 189 471 213 510 q 160 364 160 415 q 172 280 160 314 q 187 241 185 246 q 206 213 189 236 q 324 121 249 147 q 418 107 365 107 z "},"Ć":{"ha":861,"x_min":26,"x_max":838,"o":"m 442 3 q 274 39 358 3 q 60 283 117 115 q 26 460 26 382 q 92 699 26 601 q 258 848 157 797 q 468 900 358 899 l 515 900 q 782 972 656 900 l 783 972 l 783 575 q 706 635 753 614 l 706 650 q 649 814 706 747 q 476 882 583 882 q 338 850 400 882 q 215 713 253 804 q 176 522 176 622 q 213 333 176 414 q 335 178 243 246 q 479 117 385 136 l 482 117 q 546 113 500 113 q 782 203 696 113 q 822 264 813 240 l 838 250 q 781 157 822 211 q 635 46 725 89 q 442 3 544 3 m 338 1032 l 319 1058 l 494 1211 l 543 1140 l 338 1032 z "},"ć":{"ha":357,"x_min":-78,"x_max":539,"o":"m 236 -1 q 12 97 101 -1 q -78 340 -78 194 q -33 513 -78 442 q 83 622 13 583 q 260 667 163 667 q 382 639 322 667 q 453 556 447 607 q 442 517 453 531 q 357 464 417 472 q 511 378 454 458 q 539 281 539 328 q 529 213 539 243 q 450 90 503 133 q 236 -1 358 -1 m 349 104 q 485 149 433 104 q 529 281 529 200 q 503 372 529 325 q 389 449 464 431 l 367 453 q 331 489 336 458 q 333 511 331 501 q 336 536 336 521 l 336 542 q 269 640 326 610 q 215 656 242 656 q 94 578 151 656 q 38 407 38 500 q 61 288 38 346 q 132 186 85 229 q 237 124 179 143 q 349 104 294 104 m 138 804 l 119 831 l 293 985 l 343 913 l 138 804 z "},"ĉ":{"ha":665,"x_min":26,"x_max":643,"o":"m 340 -1 q 116 97 206 -1 q 26 340 26 194 q 72 513 26 442 q 188 622 117 583 q 364 667 267 667 q 486 639 426 667 q 557 556 551 607 q 546 517 557 531 q 461 464 521 472 q 615 378 558 458 q 643 281 643 328 q 633 213 643 243 q 554 90 607 133 q 340 -1 463 -1 m 453 104 q 589 149 538 104 q 633 281 633 200 q 607 372 633 325 q 493 449 568 431 l 471 453 q 435 489 440 458 q 438 511 435 501 q 440 536 440 521 l 440 542 q 374 640 431 610 q 319 656 346 656 q 199 578 256 656 q 142 407 142 500 q 165 288 142 346 q 236 186 189 229 q 341 124 283 143 q 453 104 399 104 m 476 815 l 335 885 l 193 815 l 174 839 l 335 972 l 496 839 l 476 815 z "},"Č":{"ha":861,"x_min":26,"x_max":838,"o":"m 442 3 q 274 39 358 3 q 60 283 117 115 q 26 460 26 382 q 92 699 26 601 q 258 848 157 797 q 468 900 358 899 l 515 900 q 782 972 656 900 l 783 972 l 783 575 q 706 635 753 614 l 706 650 q 649 814 706 747 q 476 882 585 882 q 338 850 400 882 q 215 713 253 804 q 176 522 176 622 q 213 333 176 414 q 335 178 243 246 q 479 117 385 136 l 482 117 q 546 113 500 113 q 782 203 696 113 q 822 264 813 240 l 838 250 q 781 157 822 211 q 635 46 725 89 q 442 3 544 3 m 432 1035 l 271 1167 l 290 1192 l 432 1122 l 574 1192 l 593 1167 l 432 1035 z "},"Ď":{"ha":972,"x_min":7,"x_max":946,"o":"m 44 0 l 44 10 q 108 36 82 10 q 135 100 135 63 l 135 818 q 105 889 135 860 q 35 918 75 918 l 10 918 l 7 928 l 135 975 l 299 975 l 299 915 l 554 915 q 655 888 590 915 q 785 806 719 861 q 899 665 851 751 q 946 458 946 578 q 903 253 946 340 q 795 111 861 167 q 653 28 729 56 q 510 1 578 1 l 44 0 m 326 10 q 485 42 407 10 q 575 93 536 67 q 713 244 668 165 q 771 379 758 324 l 783 436 l 785 465 q 626 813 785 683 q 332 906 500 906 l 299 904 l 299 11 l 326 10 m 479 1035 l 318 1167 l 338 1192 l 479 1122 l 621 1192 l 640 1167 l 479 1035 z "},"ď":{"ha":899,"x_min":26,"x_max":876,"o":"m 310 1 q 110 97 193 1 q 26 329 26 193 q 56 492 26 413 q 146 622 85 571 q 303 674 207 674 q 540 589 439 669 l 540 821 q 507 900 540 865 q 444 925 481 925 l 415 925 l 413 935 l 540 982 l 704 982 l 704 100 q 733 40 707 64 q 794 17 758 17 l 794 7 l 540 7 l 540 83 q 476 40 514 60 q 310 1 404 1 m 436 53 q 493 65 464 53 q 540 100 526 82 l 540 576 q 422 631 497 621 l 403 632 q 315 613 350 632 q 271 583 281 593 q 199 475 214 533 q 182 372 183 417 q 190 287 182 342 q 231 174 197 232 l 231 172 q 297 103 254 133 q 347 74 307 94 q 436 53 386 53 m 775 828 l 771 842 l 782 846 q 828 874 806 856 l 835 879 l 819 878 q 779 894 796 878 q 763 935 763 911 q 781 976 763 958 q 819 990 799 990 q 858 975 840 990 q 876 933 876 960 q 868 901 876 914 l 865 897 q 849 875 863 889 q 781 831 817 843 l 775 828 z "},"đ":{"ha":744,"x_min":29,"x_max":819,"o":"m 313 1 q 113 97 196 1 q 29 329 29 193 q 58 492 29 413 q 149 622 88 571 q 306 674 210 674 q 543 589 442 669 l 543 813 l 315 813 l 315 822 l 543 822 q 510 900 542 867 q 447 925 483 925 l 418 925 l 415 935 l 543 982 l 707 982 l 707 822 l 819 822 l 819 813 l 707 813 l 707 100 q 735 40 710 64 q 797 17 761 17 l 797 7 l 543 7 l 543 83 q 479 40 517 60 q 313 1 407 1 m 439 53 q 496 65 467 53 q 543 100 529 82 l 543 576 q 425 631 500 621 l 406 632 q 318 613 353 632 q 274 583 283 593 q 201 475 217 533 q 185 372 186 417 q 192 287 185 342 q 233 174 200 232 l 233 172 q 300 103 257 133 q 349 74 310 94 q 439 53 389 53 z "},"Ē":{"ha":856,"x_min":7,"x_max":797,"o":"m 797 0 l 44 0 l 44 10 q 108 36 82 10 q 135 100 135 63 l 135 819 q 105 890 135 860 q 35 919 75 919 l 10 919 l 7 928 l 135 975 l 297 975 l 297 925 l 517 925 q 632 937 567 925 q 747 961 697 949 l 796 972 q 797 774 797 958 l 797 585 l 718 653 q 653 829 718 749 q 576 888 615 869 q 467 915 517 915 l 297 915 l 297 444 q 454 473 371 446 q 590 549 538 500 l 618 575 l 618 244 l 540 283 l 540 294 q 458 410 540 371 q 324 436 401 436 l 297 435 l 297 10 l 467 10 q 504 14 475 10 q 649 90 585 25 q 718 263 718 169 l 718 272 l 797 340 l 797 0 m 629 1072 l 382 1072 l 382 1094 l 629 1094 l 629 1072 z "},"ē":{"ha":664,"x_min":26,"x_max":642,"o":"m 458 882 l 210 882 l 210 904 l 458 904 l 458 882 m 340 0 q 116 97 206 0 q 26 340 26 194 q 72 513 26 442 q 188 622 117 583 q 338 667 258 661 l 381 669 q 503 638 454 669 q 556 557 553 606 q 545 515 556 536 q 518 481 535 494 q 478 461 501 467 q 628 356 585 440 q 642 283 642 318 q 625 192 642 228 q 624 188 625 190 q 621 182 624 186 q 617 174 618 178 q 615 169 617 169 q 614 167 614 168 q 561 97 597 135 q 340 0 467 0 m 442 97 q 589 150 539 97 q 610 181 607 171 q 617 194 614 190 q 633 279 633 228 q 618 351 633 314 q 444 456 569 444 l 379 451 l 328 451 q 207 435 249 451 q 146 383 182 426 l 146 401 q 232 452 181 443 q 340 461 283 461 q 431 467 403 461 l 435 467 q 440 475 438 467 q 443 510 443 492 q 417 604 443 561 q 408 615 414 610 q 321 653 374 653 q 219 608 264 653 q 144 422 144 531 q 150 356 144 400 q 253 163 163 242 q 367 104 297 124 l 369 104 q 442 97 390 97 z "},"Ė":{"ha":856,"x_min":7,"x_max":797,"o":"m 797 0 l 44 0 l 44 10 q 108 36 82 10 q 135 100 135 63 l 135 819 q 105 890 135 860 q 35 919 75 919 l 10 919 l 7 928 l 135 975 l 297 975 l 297 925 l 517 925 q 632 937 567 925 q 747 961 697 949 l 796 972 q 797 774 797 958 l 797 585 l 718 653 q 653 829 718 749 q 576 888 615 869 q 467 915 517 915 l 297 915 l 297 444 q 454 473 371 446 q 590 549 538 500 l 618 575 l 618 244 l 540 283 l 540 294 q 458 410 540 371 q 324 436 401 436 l 297 435 l 297 10 l 467 10 q 504 14 475 10 q 649 90 585 25 q 718 263 718 169 l 718 272 l 797 340 l 797 0 m 401 1040 q 345 1064 368 1040 q 322 1121 322 1088 q 345 1177 322 1154 q 401 1200 368 1200 q 458 1177 435 1200 q 482 1121 482 1154 q 458 1064 482 1088 q 401 1040 435 1040 z "},"ė":{"ha":664,"x_min":26,"x_max":642,"o":"m 335 813 q 278 836 301 813 q 254 893 254 860 q 278 950 254 926 q 335 974 301 974 q 391 950 368 974 q 414 893 414 926 q 391 836 414 860 q 335 813 368 813 m 340 0 q 116 97 206 0 q 26 340 26 194 q 72 513 26 442 q 188 622 117 583 q 338 667 258 661 l 381 669 q 503 638 454 669 q 556 557 553 606 q 545 515 556 536 q 518 481 535 494 q 478 461 501 467 q 628 356 585 440 q 642 283 642 318 q 625 192 642 228 q 624 188 625 190 q 621 182 624 186 q 617 174 618 178 q 615 169 617 169 q 614 167 614 168 q 561 97 597 135 q 340 0 467 0 m 442 97 q 589 150 539 97 q 610 181 607 171 q 617 194 614 190 q 633 279 633 228 q 618 351 633 314 q 444 456 569 444 l 379 451 l 328 451 q 207 435 249 451 q 146 383 182 426 l 146 401 q 232 452 181 443 q 340 461 283 461 q 431 467 403 461 l 435 467 q 440 475 438 467 q 443 510 443 492 q 417 604 443 561 q 408 615 414 610 q 321 653 374 653 q 219 608 264 653 q 144 422 144 531 q 150 356 144 400 q 253 163 163 242 q 367 104 297 124 l 369 104 q 442 97 390 97 z "},"Ę":{"ha":857,"x_min":7,"x_max":885,"o":"m 728 -335 l 707 -333 q 623 -290 651 -322 q 594 -210 594 -258 q 675 0 594 -124 l 44 0 l 44 10 q 108 36 82 10 q 135 100 135 63 l 135 819 q 105 890 135 860 q 35 919 75 919 l 10 919 l 7 928 l 135 975 l 297 975 l 297 925 l 517 925 q 632 937 567 925 q 747 961 697 949 l 796 972 q 797 774 797 958 l 797 585 l 718 653 q 653 829 718 749 q 576 888 615 869 q 467 915 517 915 l 297 915 l 297 444 q 454 473 371 446 q 590 549 538 500 l 618 575 l 618 244 l 540 283 l 540 294 q 458 410 540 371 q 324 436 401 436 l 297 435 l 297 10 l 467 10 q 504 14 475 10 q 649 90 585 25 q 718 263 718 169 l 718 272 l 797 340 l 797 0 l 719 0 q 672 -150 672 -85 q 696 -225 672 -194 q 768 -262 725 -262 q 808 -253 790 -262 q 836 -235 825 -244 q 849 -225 847 -226 q 852 -222 850 -224 q 857 -217 854 -219 l 885 -231 q 822 -303 861 -278 q 728 -335 776 -335 z "},"ę":{"ha":664,"x_min":26,"x_max":642,"o":"m 378 -325 q 306 -306 339 -325 q 243 -200 243 -272 q 317 -3 243 -118 q 315 -1 317 -1 l 317 0 q 108 107 189 13 q 26 340 26 201 q 72 513 26 442 q 188 622 117 583 q 338 667 258 661 l 381 669 q 503 638 454 669 q 556 557 553 606 q 545 515 556 536 q 518 481 535 494 q 478 461 501 467 q 628 356 585 440 q 642 283 642 318 q 625 192 642 228 q 624 188 625 190 q 621 182 624 186 q 617 174 618 178 q 615 169 617 169 q 614 167 614 168 q 528 68 592 121 q 368 1 464 15 l 367 -4 l 363 -4 q 322 -140 322 -81 q 346 -217 322 -186 q 418 -254 376 -254 q 486 -226 454 -254 q 506 -208 499 -218 l 535 -222 l 528 -233 q 472 -294 508 -271 q 378 -325 426 -325 m 442 97 q 589 150 539 97 q 610 181 607 171 q 617 194 614 190 q 633 279 633 228 q 618 351 633 314 q 444 456 569 444 l 379 451 l 328 451 q 207 435 249 451 q 146 383 182 426 l 146 401 q 232 452 181 443 q 340 461 283 461 q 431 467 403 461 l 435 467 q 440 475 438 467 q 443 510 443 492 q 417 604 443 561 q 408 615 414 610 q 321 653 374 653 q 219 608 264 653 q 144 422 144 531 q 150 356 144 400 q 253 163 163 242 q 367 104 297 124 l 369 104 q 442 97 390 97 z "},"Ě":{"ha":856,"x_min":7,"x_max":797,"o":"m 797 0 l 44 0 l 44 10 q 108 36 82 10 q 135 100 135 63 l 135 819 q 105 890 135 860 q 35 919 75 919 l 10 919 l 7 928 l 135 975 l 297 975 l 297 925 l 517 925 q 632 937 567 925 q 747 961 697 949 l 796 972 q 797 774 797 958 l 797 585 l 718 653 q 653 829 718 749 q 576 888 615 869 q 467 915 517 915 l 297 915 l 297 444 q 454 473 371 446 q 590 549 538 500 l 618 575 l 618 244 l 540 283 l 540 294 q 458 410 540 371 q 324 436 401 436 l 297 435 l 297 10 l 467 10 q 504 14 475 10 q 649 90 585 25 q 718 263 718 169 l 718 272 l 797 340 l 797 0 m 401 1035 l 240 1167 l 261 1192 l 401 1122 l 543 1192 l 564 1167 l 401 1035 z "},"ě":{"ha":664,"x_min":26,"x_max":642,"o":"m 335 815 l 172 947 l 193 972 l 335 903 l 475 972 l 496 947 l 335 815 m 340 0 q 116 97 206 0 q 26 340 26 194 q 72 513 26 442 q 188 622 117 583 q 338 667 258 661 l 381 669 q 503 638 454 669 q 556 557 553 606 q 545 515 556 536 q 518 481 535 494 q 478 461 501 467 q 628 356 585 440 q 642 283 642 318 q 625 192 642 228 q 624 188 625 190 q 621 182 624 186 q 617 174 618 178 q 615 169 617 169 q 614 167 614 168 q 561 97 597 135 q 340 0 467 0 m 442 97 q 589 150 539 97 q 610 181 607 171 q 617 194 614 190 q 633 279 633 228 q 618 351 633 314 q 444 456 569 444 l 379 451 l 328 451 q 207 435 249 451 q 146 383 182 426 l 146 401 q 232 452 181 443 q 340 461 283 461 q 431 467 403 461 l 435 467 q 440 475 438 467 q 443 510 443 492 q 417 604 443 561 q 408 615 414 610 q 321 653 374 653 q 219 608 264 653 q 144 422 144 531 q 150 356 144 400 q 253 163 163 242 q 367 104 297 124 l 369 104 q 442 97 390 97 z "},"Ğ":{"ha":914,"x_min":26,"x_max":899,"o":"m 468 6 q 153 136 279 6 q 26 461 26 267 q 95 698 26 601 q 269 845 164 794 q 489 897 374 896 l 538 897 q 818 968 686 897 l 818 575 q 785 608 806 590 q 743 636 764 625 l 743 640 q 727 718 743 664 q 654 824 711 772 q 492 881 588 881 q 332 839 403 881 q 210 701 247 789 q 172 521 172 613 q 275 242 172 358 q 417 138 338 169 q 571 110 490 110 q 601 111 599 110 q 651 119 632 114 l 653 119 l 651 292 q 618 367 651 333 q 556 392 592 392 l 526 392 l 524 400 l 651 442 l 899 442 q 888 438 894 442 q 864 410 882 433 q 824 347 831 376 q 815 314 817 324 l 815 126 q 515 7 685 7 l 468 6 m 461 1056 q 333 1108 393 1056 q 275 1246 275 1167 l 275 1258 l 306 1258 l 308 1250 q 396 1157 325 1185 q 450 1147 428 1147 q 471 1149 464 1147 q 557 1183 521 1156 l 561 1186 q 615 1247 593 1211 l 619 1253 l 650 1251 q 580 1110 632 1161 q 461 1056 528 1058 z "},"ğ":{"ha":772,"x_min":26,"x_max":751,"o":"m 456 -276 q 346 -265 403 -275 l 297 -256 l 439 -75 l 446 -81 q 444 -82 446 -82 q 426 -161 426 -124 q 452 -235 426 -204 q 511 -265 478 -265 q 564 -231 544 -265 l 565 -228 q 581 -167 581 -200 q 513 -8 581 -86 q 410 53 476 32 q 310 61 381 60 q 253 63 288 63 l 232 64 q 106 79 154 69 q 28 140 36 92 l 26 153 q 40 199 26 178 l 40 200 q 68 225 50 214 l 72 228 q 135 253 106 247 l 181 261 l 204 292 q 157 431 157 354 q 188 540 157 486 q 272 630 218 594 q 394 665 325 665 q 517 631 461 665 l 519 643 q 583 756 539 706 q 672 807 626 807 q 726 781 711 803 q 751 713 751 754 q 747 676 751 692 q 735 667 746 667 q 728 668 731 667 q 640 690 685 690 q 603 687 621 690 q 564 674 586 683 q 529 639 542 664 q 525 626 525 633 l 522 626 q 631 439 621 563 l 631 431 q 590 305 631 357 q 494 226 549 253 q 388 197 440 199 q 346 201 367 197 q 211 283 265 218 l 183 247 l 175 235 q 167 192 167 218 q 188 125 167 153 q 288 81 203 100 q 346 72 318 75 q 414 68 374 69 q 578 54 547 61 q 661 22 618 47 q 702 -21 686 8 q 718 -81 718 -50 q 691 -176 718 -133 q 619 -241 664 -219 q 529 -269 575 -262 q 456 -276 483 -276 m 394 201 q 447 273 424 201 q 472 429 469 344 q 448 585 472 511 q 394 660 424 660 q 340 585 365 660 q 315 425 315 510 q 342 272 318 342 q 394 201 365 201 m 388 793 q 260 846 319 793 q 200 996 200 907 l 232 996 l 235 988 q 256 944 242 964 q 322 894 272 914 q 372 885 351 885 q 397 888 388 885 q 483 922 447 894 l 488 925 q 542 985 519 950 l 544 992 l 576 990 q 504 846 560 900 q 388 793 454 796 z "},"Ī":{"ha":426,"x_min":7,"x_max":419,"o":"m 389 3 l 44 3 l 44 13 q 108 39 82 13 q 135 104 135 65 l 135 814 q 103 893 135 858 q 40 919 75 919 l 10 919 l 7 929 l 135 972 l 419 972 l 419 963 q 334 927 369 963 q 299 840 299 892 l 299 103 q 325 39 299 65 q 389 13 351 13 l 389 3 m 338 1122 l 89 1122 l 89 1144 l 338 1144 l 338 1122 z "},"ī":{"ha":361,"x_min":-10,"x_max":365,"o":"m 365 -1 l 28 -1 l 28 8 q 92 35 65 8 q 118 99 118 61 l 118 508 q 86 588 118 553 q 22 614 58 614 l -7 614 l -10 622 l 118 667 l 275 667 l 275 99 q 301 35 275 61 q 365 8 328 8 l 365 -1 m 301 882 l 54 882 l 54 904 l 301 904 l 301 882 z "},"İ":{"ha":426,"x_min":7,"x_max":419,"o":"m 389 3 l 44 3 l 44 13 q 108 39 82 13 q 135 104 135 65 l 135 814 q 103 893 135 858 q 40 919 75 919 l 10 919 l 7 929 l 135 972 l 419 972 l 419 963 q 334 927 369 963 q 299 840 299 892 l 299 103 q 325 39 299 65 q 389 13 351 13 l 389 3 m 213 1053 q 157 1076 181 1053 q 133 1133 133 1100 q 157 1190 133 1167 q 213 1214 181 1214 q 269 1190 246 1214 q 293 1133 293 1167 q 269 1076 293 1100 q 213 1053 246 1053 z "},"Ł":{"ha":831,"x_min":0,"x_max":813,"o":"m 813 8 l 115 8 l 115 18 q 180 45 153 18 q 207 110 207 72 l 207 381 l 4 274 l 0 282 l 207 392 l 207 819 q 169 901 207 867 q 110 925 143 925 l 82 925 l 78 933 l 207 978 l 493 978 l 493 968 q 405 931 442 968 q 368 843 368 894 l 368 478 l 546 571 l 550 563 l 369 467 l 369 19 l 488 19 q 529 25 497 19 q 683 124 624 44 q 735 275 735 197 l 735 282 l 813 349 l 813 8 z "},"ł":{"ha":422,"x_min":-4,"x_max":418,"o":"m 371 -7 l 33 -7 l 33 3 q 97 30 71 3 q 124 94 124 57 l 124 313 l 13 231 l 7 239 l 124 325 l 124 808 q 97 881 124 849 q 28 913 69 913 l -1 913 l -4 922 l 124 969 l 281 969 l 281 440 l 413 539 l 418 531 l 279 428 l 279 93 q 306 30 279 57 q 369 3 333 3 l 371 -7 z "},"Ń":{"ha":929,"x_min":-7,"x_max":908,"o":"m 357 1068 l 339 1094 l 513 1249 l 563 1178 l 357 1068 m 908 4 l 718 4 l 181 843 l 181 99 q 206 39 181 64 q 267 14 232 14 l 267 4 l 89 4 l 89 14 q 147 38 124 14 q 171 96 171 63 l 171 857 q 43 919 118 919 q -4 913 19 919 l -7 922 l 121 972 l 293 972 l 814 151 l 814 878 q 790 937 814 913 q 731 961 765 961 l 731 972 l 908 972 l 908 961 q 849 937 874 961 q 824 878 824 913 l 824 136 l 908 4 z "},"ń":{"ha":822,"x_min":1,"x_max":818,"o":"m 376 -3 l 39 -3 l 39 8 q 103 35 76 8 q 129 99 129 61 l 129 510 q 97 589 129 556 q 33 615 69 615 l 4 615 l 1 625 l 129 668 l 286 667 l 286 517 q 365 615 311 568 q 497 667 418 661 q 588 651 551 667 q 669 594 635 629 q 726 467 726 526 l 728 99 q 754 35 728 61 q 818 8 781 8 l 818 -1 l 483 -1 l 483 8 q 547 35 521 8 q 574 100 574 63 l 572 400 q 556 482 572 442 q 490 560 531 532 q 407 588 449 588 l 388 586 q 332 557 354 578 q 299 517 310 536 q 286 492 288 497 l 286 99 q 313 35 286 61 q 376 8 339 8 l 376 -3 m 317 807 l 299 832 l 472 986 l 521 915 l 317 807 z "},"Ň":{"ha":929,"x_min":-7,"x_max":908,"o":"m 450 1078 l 289 1211 l 310 1235 l 450 1165 l 592 1235 l 613 1211 l 450 1078 m 908 4 l 718 4 l 181 843 l 181 99 q 206 39 181 64 q 267 14 232 14 l 267 4 l 89 4 l 89 14 q 147 38 124 14 q 171 96 171 63 l 171 857 q 43 919 118 919 q -4 913 19 919 l -7 922 l 121 972 l 293 972 l 814 151 l 814 878 q 790 937 814 913 q 731 961 765 961 l 731 972 l 908 972 l 908 961 q 849 937 874 961 q 824 878 824 913 l 824 136 l 908 4 z "},"ň":{"ha":822,"x_min":1,"x_max":818,"o":"m 376 -3 l 39 -3 l 39 8 q 103 35 76 8 q 129 99 129 61 l 129 510 q 97 589 129 556 q 33 615 69 615 l 4 615 l 1 625 l 129 668 l 286 667 l 286 517 q 365 615 311 568 q 497 667 418 661 q 588 651 551 667 q 669 594 635 629 q 726 467 726 526 l 728 99 q 754 35 728 61 q 818 8 781 8 l 818 -1 l 483 -1 l 483 8 q 547 35 521 8 q 574 100 574 63 l 572 400 q 556 482 572 442 q 490 560 531 532 q 407 588 449 588 l 388 586 q 332 557 354 578 q 299 517 310 536 q 286 492 288 497 l 286 99 q 313 35 286 61 q 376 8 339 8 l 376 -3 m 410 818 l 249 950 l 268 975 l 410 906 l 551 975 l 571 950 l 410 818 z "},"Ō":{"ha":1042,"x_min":26,"x_max":1015,"o":"m 521 -1 q 272 65 385 -1 q 93 242 160 131 q 26 488 26 353 q 93 733 26 622 q 272 910 160 844 q 521 976 385 976 q 769 910 657 976 q 949 733 882 844 q 1015 488 1015 622 q 949 242 1015 353 q 769 65 882 131 q 521 -1 657 -1 m 521 10 q 686 83 611 10 q 806 267 761 157 q 851 489 851 378 q 806 710 850 601 q 686 893 761 819 q 521 967 611 967 q 356 893 431 967 q 235 708 281 819 q 190 485 190 597 q 236 263 192 371 q 356 83 281 156 q 521 10 431 10 m 644 1122 l 396 1122 l 396 1144 l 644 1144 l 644 1122 z "},"Ő":{"ha":1042,"x_min":26,"x_max":1015,"o":"m 521 -1 q 272 65 385 -1 q 93 242 160 131 q 26 488 26 353 q 93 733 26 622 q 272 910 160 844 q 521 976 385 976 q 769 910 657 976 q 949 733 882 844 q 1015 488 1015 622 q 949 242 1015 353 q 769 65 882 131 q 521 -1 657 -1 m 521 10 q 686 83 611 10 q 806 267 761 157 q 851 489 851 378 q 806 710 850 601 q 686 893 761 819 q 521 967 611 967 q 356 893 431 967 q 235 708 281 819 q 190 485 190 597 q 236 263 192 371 q 356 83 281 156 q 521 10 431 10 m 335 1068 l 317 1094 l 490 1249 l 539 1178 l 335 1068 m 519 1068 l 501 1094 l 676 1249 l 725 1178 l 519 1068 z "},"ő":{"ha":726,"x_min":25,"x_max":700,"o":"m 217 819 l 199 846 l 372 1000 l 422 929 l 217 819 m 381 819 l 363 846 l 538 1000 l 586 929 l 381 819 m 363 -1 q 124 97 224 -1 q 25 332 25 194 q 124 569 25 471 q 363 667 224 667 q 601 569 503 667 q 700 332 700 471 q 601 97 700 194 q 363 -1 503 -1 m 363 6 q 451 56 410 6 q 519 181 493 106 q 544 333 544 256 q 517 485 543 411 q 451 610 492 560 q 363 660 410 660 q 274 609 315 660 q 206 483 232 558 q 181 331 181 407 q 208 180 182 254 q 274 56 233 106 q 363 6 315 6 z "},"Œ":{"ha":1710,"x_min":26,"x_max":1650,"o":"m 521 -1 q 272 65 385 -1 q 93 242 160 131 q 26 488 26 353 q 93 733 26 622 q 272 910 160 844 q 521 976 385 976 q 811 883 685 976 q 989 643 938 790 l 989 829 q 959 899 989 869 q 888 929 929 929 l 864 929 l 861 939 l 989 985 l 1151 985 l 1151 935 l 1371 935 q 1547 960 1433 935 l 1650 983 l 1650 594 q 1572 663 1613 629 q 1506 839 1572 758 q 1429 897 1468 879 q 1321 925 1369 925 l 1151 925 l 1151 454 q 1308 483 1225 456 q 1444 558 1392 510 l 1471 585 l 1471 254 l 1393 294 l 1394 311 q 1388 346 1394 332 q 1313 419 1369 393 q 1178 446 1256 446 l 1151 444 l 1151 19 l 1324 19 q 1397 33 1344 19 q 1503 100 1449 47 q 1572 279 1572 176 l 1572 282 l 1650 350 l 1650 10 l 899 10 l 899 19 q 963 46 936 19 q 989 110 989 72 l 989 332 q 811 92 938 185 q 521 -1 685 -1 m 521 10 q 686 83 611 10 q 806 267 761 157 q 851 489 851 378 q 806 710 850 601 q 686 893 761 819 q 521 967 611 967 q 356 893 431 967 q 235 708 281 819 q 190 485 190 597 q 236 263 192 371 q 356 83 281 156 q 521 10 431 10 z "},"œ":{"ha":1319,"x_min":25,"x_max":1293,"o":"m 992 -4 q 798 65 879 -4 q 689 246 717 133 q 568 67 657 136 q 363 -1 479 -1 q 124 97 224 -1 q 25 332 25 194 q 124 569 25 471 q 363 667 224 667 q 568 598 479 667 q 688 422 657 529 q 802 594 718 533 q 988 663 886 656 q 1004 664 993 664 l 1032 665 q 1158 633 1113 665 q 1207 554 1204 600 q 1128 458 1207 485 q 1278 351 1235 436 q 1293 276 1293 313 q 1285 215 1293 240 q 1276 188 1278 190 l 1265 164 q 1212 93 1249 132 q 1119 25 1175 54 q 992 -4 1064 -4 m 363 6 q 451 56 410 6 q 519 181 493 106 q 544 331 544 256 q 518 483 543 408 q 451 609 493 558 q 363 660 410 660 q 274 609 315 660 q 206 483 232 558 q 181 331 181 407 q 208 180 182 254 q 274 56 233 106 q 363 6 315 6 m 789 386 q 869 444 821 432 q 971 457 918 457 l 1018 457 q 1089 464 1057 457 q 1094 506 1092 475 q 1086 559 1094 526 q 1060 611 1078 592 q 981 649 1026 649 q 950 643 958 649 q 872 600 910 631 q 809 505 829 561 q 789 386 789 449 m 1065 67 q 1106 72 1076 67 q 1239 146 1185 85 q 1246 153 1242 150 q 1257 171 1257 164 q 1267 190 1265 183 l 1267 192 q 1283 278 1283 225 q 1269 347 1283 311 q 1096 453 1221 442 q 1007 447 1051 447 l 969 447 q 858 431 904 447 q 789 367 822 415 q 888 136 796 229 q 920 111 897 128 q 978 81 943 94 q 1065 67 1014 67 z "},"Ŕ":{"ha":968,"x_min":7,"x_max":965,"o":"m 965 8 l 619 8 l 619 18 q 653 32 639 18 q 667 64 667 46 q 658 89 667 76 q 485 382 493 364 l 296 382 l 296 107 q 322 44 296 71 q 386 18 349 18 l 386 8 l 44 8 l 44 18 q 108 44 82 18 q 135 107 135 71 l 135 808 q 103 886 135 853 q 39 913 75 913 l 10 913 l 7 921 l 135 976 l 296 976 l 296 919 l 614 919 q 806 838 715 919 q 889 654 886 765 q 840 505 889 568 q 728 410 790 442 q 669 388 711 397 l 857 76 q 965 18 897 18 l 965 8 m 513 392 l 536 393 l 579 403 q 624 432 590 406 q 729 651 724 513 q 699 781 729 717 q 608 882 669 846 q 517 910 554 908 l 296 910 l 296 392 l 513 392 m 393 1068 l 375 1094 l 549 1249 l 599 1178 l 393 1068 z "},"ŕ":{"ha":589,"x_min":3,"x_max":579,"o":"m 376 0 l 40 0 l 40 10 q 104 36 78 10 q 131 100 131 63 l 131 510 q 99 589 131 556 q 35 614 71 614 l 6 614 l 3 624 l 131 667 l 286 668 l 286 449 q 301 478 293 465 l 317 497 q 379 557 343 533 l 403 572 q 501 603 456 603 q 547 589 525 603 q 568 565 561 578 q 579 521 579 543 q 569 478 579 497 q 539 440 550 440 q 528 446 532 440 q 422 517 490 500 q 399 519 410 519 q 286 419 317 519 l 286 100 q 313 36 286 63 q 376 10 339 10 l 376 0 m 197 807 l 179 832 l 354 986 l 403 915 l 197 807 z "},"Ř":{"ha":968,"x_min":7,"x_max":965,"o":"m 965 8 l 619 8 l 619 18 q 653 32 639 18 q 667 64 667 46 q 658 89 667 76 q 485 382 493 364 l 296 382 l 296 107 q 322 44 296 71 q 386 18 349 18 l 386 8 l 44 8 l 44 18 q 108 44 82 18 q 135 107 135 71 l 135 808 q 103 886 135 853 q 39 913 75 913 l 10 913 l 7 921 l 135 976 l 296 976 l 296 919 l 614 919 q 806 838 715 919 q 889 654 886 765 q 840 505 889 568 q 728 410 790 442 q 669 388 711 397 l 857 76 q 965 18 897 18 l 965 8 m 513 392 l 536 393 l 579 403 q 624 432 590 406 q 729 651 724 513 q 699 781 729 717 q 608 882 669 846 q 517 910 554 908 l 296 910 l 296 392 l 513 392 m 486 1078 l 325 1211 l 344 1235 l 486 1165 l 628 1235 l 647 1211 l 486 1078 z "},"ř":{"ha":589,"x_min":3,"x_max":579,"o":"m 376 0 l 40 0 l 40 10 q 104 36 78 10 q 131 100 131 63 l 131 510 q 99 589 131 556 q 35 614 71 614 l 6 614 l 3 624 l 131 667 l 286 668 l 286 449 q 301 478 293 465 l 317 497 q 379 557 343 533 l 403 572 q 501 603 456 603 q 547 589 525 603 q 568 565 561 578 q 579 521 579 543 q 569 478 579 497 q 539 440 550 440 q 528 446 532 440 q 422 517 490 500 q 399 519 410 519 q 286 419 317 519 l 286 100 q 313 36 286 63 q 376 10 339 10 l 376 0 m 292 818 l 129 950 l 150 975 l 292 906 l 432 975 l 453 950 l 292 818 z "},"Ś":{"ha":731,"x_min":40,"x_max":700,"o":"m 67 0 l 67 328 q 143 260 89 303 l 143 253 q 214 74 143 144 q 364 15 281 21 l 394 15 q 429 17 425 15 q 572 89 526 18 q 596 163 596 124 q 588 203 594 185 q 561 243 581 221 q 488 294 528 281 q 400 317 447 308 q 214 381 319 326 l 213 381 q 97 479 158 406 l 96 482 q 40 646 40 550 q 78 776 40 711 q 185 878 115 840 q 303 904 236 904 q 357 902 329 904 q 414 900 385 900 q 490 908 450 900 q 570 938 529 915 q 629 976 611 961 l 631 976 l 631 581 l 553 646 l 553 664 q 492 824 553 760 q 357 889 431 889 q 222 824 274 885 q 171 697 171 763 q 181 640 171 664 q 292 526 213 558 q 424 487 353 501 q 559 446 494 472 q 665 357 624 419 q 700 238 697 308 q 654 100 700 161 q 629 68 640 81 q 565 24 601 39 q 518 13 542 17 q 375 4 447 4 l 253 4 l 67 0 m 278 1056 l 260 1082 l 433 1236 l 482 1165 l 278 1056 z "},"ś":{"ha":525,"x_min":33,"x_max":496,"o":"m 329 1 l 58 1 l 58 224 q 79 203 67 214 q 136 167 111 178 l 136 157 q 181 50 136 96 q 301 8 226 8 q 381 37 354 8 q 408 97 408 65 q 363 165 404 143 q 268 204 322 186 q 144 256 204 224 q 51 350 83 288 l 51 351 q 33 435 33 386 q 39 479 33 456 q 117 585 60 546 q 225 617 165 617 l 301 614 q 352 619 325 614 q 407 640 379 625 q 447 667 435 656 l 447 397 l 389 424 l 369 433 q 372 469 372 451 q 347 558 372 521 q 268 604 315 604 q 182 563 222 604 q 157 486 157 529 q 182 417 157 454 q 252 354 213 375 q 335 320 292 333 q 415 288 378 307 q 476 229 451 268 q 496 158 494 197 q 478 88 496 117 q 449 49 460 58 l 444 44 q 403 17 433 33 q 329 1 367 1 m 171 807 l 153 832 l 328 986 l 376 915 l 171 807 z "},"Ş":{"ha":731,"x_min":40,"x_max":700,"o":"m 438 -308 q 292 -218 349 -308 l 319 -200 q 346 -228 332 -217 q 403 -244 368 -244 q 442 -234 424 -244 q 469 -208 460 -224 q 480 -180 478 -192 q 482 -156 482 -168 q 467 -99 482 -126 q 407 -60 446 -60 q 367 -71 383 -60 l 318 -99 l 368 4 l 67 1 l 67 328 q 143 260 99 290 l 143 253 q 214 74 143 143 q 364 15 281 21 l 394 15 q 429 17 424 15 q 572 89 526 18 q 596 163 596 124 l 594 176 q 559 244 590 208 q 488 294 528 281 q 400 317 447 308 q 214 381 319 326 l 213 381 q 97 479 158 406 l 96 482 q 40 646 40 550 q 44 688 40 665 q 185 878 71 814 q 303 904 236 904 q 357 902 329 904 q 414 900 385 900 q 572 939 500 900 q 625 974 607 957 q 631 976 628 976 l 631 581 l 553 646 l 553 664 q 492 824 553 760 q 357 889 431 889 q 235 838 288 888 q 172 724 183 788 l 171 700 q 181 642 171 665 q 290 526 213 560 q 423 487 351 501 q 559 445 494 472 q 665 356 624 418 q 700 242 694 313 q 685 157 700 193 q 631 71 660 97 q 604 47 622 61 q 526 14 569 18 l 518 13 q 407 6 464 6 l 393 -24 q 433 -18 414 -18 q 532 -56 488 -18 q 583 -167 583 -99 q 576 -210 583 -187 q 496 -296 554 -272 q 438 -308 464 -308 z "},"ş":{"ha":525,"x_min":33,"x_max":496,"o":"m 338 -319 q 192 -229 249 -319 l 219 -212 q 246 -239 233 -229 q 301 -257 268 -257 q 340 -246 324 -257 q 379 -192 371 -231 q 382 -168 382 -181 q 367 -110 382 -137 q 307 -71 346 -71 q 267 -82 283 -71 l 218 -111 l 272 1 l 58 1 l 58 224 q 79 203 67 214 q 136 167 111 178 l 136 157 q 181 50 136 96 q 301 8 226 8 q 381 37 354 8 q 408 97 408 65 q 363 165 404 143 q 268 204 322 186 q 144 256 204 224 q 51 350 83 288 l 51 351 q 33 435 33 386 q 39 479 33 456 q 117 585 60 546 q 225 617 165 617 l 301 614 q 353 619 325 614 q 442 663 393 628 l 447 665 l 447 397 l 389 424 l 369 433 q 372 469 372 451 q 347 558 372 521 q 268 604 315 604 q 182 563 222 604 q 157 486 157 529 q 182 417 157 454 q 252 354 213 375 q 335 320 292 333 q 415 288 378 307 q 476 229 451 268 q 496 158 494 197 q 478 88 496 117 q 449 49 460 58 l 444 44 q 403 17 433 33 q 329 1 367 1 l 310 1 l 293 -35 q 332 -29 313 -29 q 432 -67 388 -29 q 483 -178 483 -110 q 476 -221 483 -199 q 396 -307 454 -283 q 338 -319 364 -319 z "},"Š":{"ha":731,"x_min":40,"x_max":700,"o":"m 67 0 l 67 328 q 143 260 89 303 l 143 253 q 214 74 143 144 q 364 15 281 21 l 394 15 q 429 17 425 15 q 572 89 526 18 q 596 163 596 124 q 588 203 594 185 q 561 243 581 221 q 488 294 528 281 q 400 317 447 308 q 214 381 319 326 l 213 381 q 97 479 158 406 l 96 482 q 40 646 40 550 q 78 776 40 711 q 185 878 115 840 q 303 904 236 904 q 357 902 329 904 q 414 900 385 900 q 490 908 450 900 q 570 938 529 915 q 629 976 611 961 l 631 976 l 631 581 l 553 646 l 553 664 q 492 824 553 760 q 357 889 431 889 q 222 824 274 885 q 171 697 171 763 q 181 640 171 664 q 292 526 213 558 q 424 487 353 501 q 559 446 494 472 q 665 357 624 419 q 700 238 697 308 q 654 100 700 161 q 629 68 640 81 q 565 24 601 39 q 518 13 542 17 q 375 4 447 4 l 253 4 l 67 0 m 369 1065 l 208 1199 l 229 1222 l 369 1153 l 511 1222 l 532 1199 l 369 1065 z "},"š":{"ha":525,"x_min":33,"x_max":496,"o":"m 329 1 l 58 1 l 58 224 q 79 203 67 214 q 136 167 111 178 l 136 157 q 181 50 136 96 q 301 8 226 8 q 381 37 354 8 q 408 97 408 65 q 363 165 404 143 q 268 204 322 186 q 144 256 204 224 q 51 350 83 288 l 51 351 q 33 435 33 386 q 39 479 33 456 q 117 585 60 546 q 225 617 165 617 l 301 614 q 352 619 325 614 q 407 640 379 625 q 447 667 435 656 l 447 397 l 389 424 l 369 433 q 372 469 372 451 q 347 558 372 521 q 268 604 315 604 q 182 563 222 604 q 157 486 157 529 q 182 417 157 454 q 252 354 213 375 q 335 320 292 333 q 415 288 378 307 q 476 229 451 268 q 496 158 494 197 q 478 88 496 117 q 449 49 460 58 l 444 44 q 403 17 433 33 q 329 1 367 1 m 265 818 l 103 950 l 124 975 l 265 906 l 406 975 l 426 950 l 265 818 z "},"Ū":{"ha":907,"x_min":1,"x_max":894,"o":"m 482 4 q 398 12 449 4 q 294 44 347 19 q 200 121 242 69 q 144 222 158 172 q 129 301 131 272 l 129 806 q 97 883 129 850 q 33 908 69 908 l 4 908 l 1 917 l 129 972 l 408 972 l 408 963 q 327 929 361 963 q 293 847 293 896 l 293 328 q 306 238 293 292 l 308 229 q 376 110 322 171 q 456 53 404 78 q 561 31 507 31 q 711 82 644 31 q 757 139 742 110 q 801 314 801 218 l 801 879 q 776 938 801 914 q 717 963 751 963 l 717 972 l 894 972 l 894 963 q 835 938 860 963 q 811 881 811 914 l 811 314 q 724 79 811 163 q 616 20 671 33 q 519 6 561 7 l 482 4 m 572 1133 l 324 1133 l 324 1156 l 572 1156 l 572 1133 z "},"ū":{"ha":790,"x_min":4,"x_max":779,"o":"m 779 -3 l 533 -3 l 533 169 q 459 60 514 117 q 318 -3 404 4 l 310 -3 q 231 14 265 -3 q 150 69 174 40 q 93 201 93 140 q 92 567 92 243 q 66 632 92 606 q 4 658 40 658 l 4 668 l 335 668 l 335 658 q 272 631 299 658 q 246 567 246 604 l 246 282 q 288 150 246 211 q 403 83 346 83 q 472 114 439 83 q 531 189 510 149 l 533 194 l 533 568 q 507 632 533 606 q 443 658 481 658 l 443 668 l 779 668 l 779 658 q 715 632 742 658 q 689 568 689 606 l 689 97 q 715 33 689 60 q 779 7 742 7 l 779 -3 m 517 882 l 268 882 l 268 904 l 517 904 l 517 882 z "},"Ů":{"ha":907,"x_min":1,"x_max":894,"o":"m 482 4 q 398 12 449 4 q 294 44 347 19 q 200 121 242 69 q 144 222 158 172 q 129 301 131 272 l 129 806 q 97 883 129 850 q 33 908 69 908 l 4 908 l 1 917 l 129 972 l 408 972 l 408 963 q 327 929 361 963 q 293 847 293 896 l 293 328 q 306 238 293 292 l 308 229 q 342 154 317 194 q 456 53 375 92 q 561 31 507 31 q 711 82 644 31 q 757 139 742 110 q 801 314 801 218 l 801 879 q 776 938 801 914 q 717 963 751 963 l 717 972 l 894 972 l 894 963 q 835 938 860 963 q 811 881 811 914 l 811 314 q 724 79 811 163 q 616 20 671 33 q 519 6 561 7 l 482 4 m 447 1051 q 383 1078 410 1051 q 356 1144 356 1106 q 383 1210 356 1183 q 447 1238 410 1238 q 513 1210 486 1238 q 540 1144 540 1183 q 513 1078 540 1106 q 447 1051 486 1051 m 447 1061 q 487 1088 471 1061 q 503 1143 503 1115 q 486 1200 503 1172 q 447 1228 469 1228 q 410 1199 426 1225 q 394 1142 394 1172 q 411 1088 396 1113 q 447 1061 426 1064 z "},"ů":{"ha":790,"x_min":4,"x_max":779,"o":"m 779 -3 l 533 -3 l 533 169 q 459 60 514 117 q 318 -3 404 4 l 310 -3 q 231 14 265 -3 q 150 69 174 40 q 93 201 93 140 q 92 567 92 243 q 66 632 92 606 q 4 658 40 658 l 4 668 l 335 668 l 335 658 q 272 631 299 658 q 246 567 246 604 l 246 282 q 288 150 246 211 q 403 83 346 83 q 472 114 439 83 q 531 189 510 149 l 533 194 l 533 568 q 507 632 533 606 q 443 658 481 658 l 443 668 l 779 668 l 779 658 q 715 632 742 658 q 689 568 689 606 l 689 97 q 715 33 689 60 q 779 7 742 7 l 779 -3 m 392 788 q 327 815 354 788 q 300 881 300 842 q 327 946 300 918 q 392 974 354 974 q 458 946 431 974 q 485 881 485 918 q 458 815 485 842 q 392 788 431 788 m 392 797 q 430 824 414 797 q 447 879 446 850 q 431 935 447 908 q 392 963 414 963 q 355 936 371 963 q 339 879 339 910 q 355 823 339 849 q 392 797 371 797 z "},"Ű":{"ha":907,"x_min":1,"x_max":894,"o":"m 482 4 q 398 12 449 4 q 294 44 347 19 q 200 121 242 69 q 144 222 158 172 q 129 301 131 272 l 129 806 q 97 883 129 850 q 33 908 69 908 l 4 908 l 1 917 l 129 972 l 408 972 l 408 963 q 327 929 361 963 q 293 847 293 896 l 293 328 q 306 238 293 292 l 308 229 q 376 110 322 171 q 456 53 404 78 q 561 31 507 31 q 711 82 644 31 q 757 139 742 110 q 801 314 801 218 l 801 879 q 776 938 801 914 q 717 963 751 963 l 717 972 l 894 972 l 894 963 q 835 938 860 963 q 811 881 811 914 l 811 314 q 724 79 811 163 q 616 20 671 33 q 519 6 561 7 l 482 4 m 389 1068 l 371 1094 l 544 1249 l 594 1178 l 389 1068 m 575 1068 l 557 1094 l 731 1249 l 781 1178 l 575 1068 z "},"ű":{"ha":790,"x_min":4,"x_max":779,"o":"m 226 819 l 208 846 l 382 1000 l 431 929 l 226 819 m 390 819 l 372 846 l 546 1000 l 596 929 l 390 819 m 779 -3 l 533 -3 l 533 169 q 459 60 514 117 q 318 -3 404 4 l 310 -3 q 231 14 265 -3 q 150 69 174 40 q 93 201 93 140 q 92 567 92 243 q 66 632 92 606 q 4 658 40 658 l 4 668 l 335 668 l 335 658 q 272 631 299 658 q 246 567 246 604 l 246 282 q 288 150 246 211 q 403 83 346 83 q 472 114 439 83 q 531 189 510 149 l 533 194 l 533 568 q 507 632 533 606 q 443 658 481 658 l 443 668 l 779 668 l 779 658 q 715 632 742 658 q 689 568 689 606 l 689 97 q 715 33 689 60 q 779 7 742 7 l 779 -3 z "},"Ų":{"ha":907,"x_min":1,"x_max":894,"o":"m 589 -335 q 568 -332 579 -335 q 481 -289 511 -324 q 454 -211 454 -258 q 540 8 454 -121 q 482 4 521 6 q 397 13 449 4 q 199 121 276 29 q 129 301 132 207 l 129 806 q 97 883 129 850 q 33 908 69 908 l 4 908 l 1 917 l 129 972 l 408 972 l 408 963 q 327 929 361 963 q 293 849 293 896 l 293 340 q 306 238 293 303 l 308 229 q 376 110 322 171 q 456 53 404 78 q 557 31 504 32 q 711 82 650 31 q 757 139 742 110 q 801 314 801 218 l 801 879 q 776 938 801 914 q 717 963 751 963 l 717 972 l 894 972 l 894 963 q 835 938 860 963 q 811 881 811 914 l 811 314 q 724 79 811 163 q 588 14 657 22 q 532 -150 532 -78 q 556 -225 532 -194 q 629 -262 586 -262 q 667 -253 650 -262 q 696 -235 685 -244 q 708 -225 707 -226 q 712 -222 710 -224 q 717 -217 714 -219 l 744 -231 q 682 -303 721 -278 q 589 -335 638 -335 z "},"ų":{"ha":790,"x_min":4,"x_max":861,"o":"m 706 -318 l 683 -317 q 599 -274 628 -306 q 571 -193 571 -242 q 639 -3 571 -114 l 533 -3 l 533 169 q 459 61 514 117 q 318 -3 404 6 l 310 -3 q 231 14 265 -3 q 150 69 174 40 q 93 201 93 140 q 92 567 92 243 q 66 632 92 606 q 4 658 40 658 l 4 668 l 335 668 l 335 658 q 272 631 299 658 q 246 567 246 604 l 246 282 q 288 150 246 211 q 403 83 346 83 q 472 114 439 83 q 531 189 510 149 l 533 194 l 533 568 q 507 632 533 606 q 443 658 481 658 l 443 668 l 779 668 l 779 658 q 715 632 742 658 q 689 568 689 606 l 689 97 q 711 43 689 61 l 710 40 q 779 7 738 7 l 779 -3 l 685 -3 q 649 -133 649 -76 q 672 -208 649 -179 q 746 -246 703 -246 q 784 -237 767 -246 q 813 -219 801 -228 q 825 -208 824 -210 q 828 -205 826 -207 q 833 -200 831 -203 l 861 -214 q 799 -286 838 -261 q 706 -318 751 -318 z "},"Ÿ":{"ha":840,"x_min":-7,"x_max":854,"o":"m 654 0 l 315 0 l 315 10 q 379 36 353 10 q 406 100 406 63 l 406 444 l 297 601 q 154 815 188 763 q 75 858 121 858 q 0 824 33 858 l -7 829 l 72 971 l 254 972 l 561 486 l 726 892 q 731 913 731 903 q 715 950 731 933 q 676 967 700 967 l 676 976 l 854 976 l 854 967 q 736 888 775 967 l 564 467 l 564 100 q 590 36 564 63 q 654 10 617 10 l 654 0 m 304 1040 q 247 1064 271 1040 q 224 1121 224 1088 q 247 1177 224 1154 q 304 1200 271 1200 q 360 1177 338 1200 q 383 1121 383 1154 q 360 1064 383 1088 q 304 1040 338 1040 m 543 1040 q 486 1064 510 1040 q 463 1121 463 1088 q 486 1177 463 1154 q 543 1200 510 1200 q 600 1177 576 1200 q 624 1121 624 1154 q 600 1064 624 1088 q 543 1040 576 1040 z "},"Ź":{"ha":922,"x_min":21,"x_max":894,"o":"m 894 7 l 21 8 l 21 19 q 110 76 76 29 l 638 893 l 382 893 q 219 838 293 893 q 156 758 175 800 q 128 633 128 697 l 128 631 l 53 563 l 53 979 q 332 903 186 903 l 644 903 l 693 979 l 888 979 l 319 89 q 311 64 311 76 q 324 32 311 46 q 358 18 338 18 l 564 17 q 708 58 644 17 q 783 144 761 97 q 815 276 815 211 l 894 347 l 894 7 m 350 1056 l 332 1082 l 506 1236 l 554 1165 l 350 1056 z "},"ź":{"ha":793,"x_min":22,"x_max":756,"o":"m 22 -1 l 22 8 q 131 68 89 8 l 500 579 l 381 579 q 203 501 281 579 q 138 335 138 428 l 139 315 l 60 249 l 60 665 l 61 665 q 340 589 193 589 l 507 589 l 563 665 l 756 668 l 575 419 q 339 82 392 164 q 332 57 332 69 q 344 26 332 40 q 376 11 357 13 l 426 11 q 613 89 538 11 q 678 257 678 163 l 676 276 l 756 342 l 756 1 q 22 -1 389 1 m 296 807 l 278 832 l 451 986 l 500 915 l 296 807 z "},"Ż":{"ha":922,"x_min":21,"x_max":894,"o":"m 457 1040 q 401 1064 425 1040 q 378 1121 378 1088 q 401 1177 378 1154 q 457 1200 425 1200 q 514 1177 490 1200 q 538 1121 538 1154 q 514 1064 538 1088 q 457 1040 490 1040 m 894 7 l 21 8 l 21 19 q 110 76 76 29 l 638 893 l 382 893 q 219 838 293 893 q 156 758 175 800 q 128 633 128 697 l 128 631 l 53 563 l 53 979 q 332 903 186 903 l 644 903 l 693 979 l 888 979 l 319 89 q 311 64 311 76 q 324 32 311 46 q 358 18 338 18 l 564 17 q 708 58 644 17 q 783 144 761 97 q 815 276 815 211 l 894 347 l 894 7 z "},"ż":{"ha":793,"x_min":22,"x_max":756,"o":"m 22 -1 l 22 8 q 131 68 89 8 l 500 579 l 381 579 q 203 501 281 579 q 138 335 138 428 l 139 315 l 60 249 l 60 665 l 61 665 q 340 589 193 589 l 507 589 l 563 665 l 756 668 l 575 419 q 339 82 392 164 q 332 57 332 69 q 344 26 332 40 q 376 11 357 13 l 426 11 q 613 89 538 11 q 678 257 678 163 l 676 276 l 756 342 l 756 1 q 22 -1 389 1 m 389 815 q 332 839 356 815 q 308 894 308 863 q 332 951 308 928 q 389 975 356 975 q 446 951 422 975 q 469 894 469 928 q 446 839 469 863 q 389 815 422 815 z "},"ž":{"ha":793,"x_min":22,"x_max":756,"o":"m 22 -1 l 22 8 q 131 68 89 8 l 500 579 l 381 579 q 203 501 281 579 q 138 335 138 428 l 139 315 l 60 249 l 60 665 l 61 665 q 340 589 193 589 l 507 589 l 563 665 l 756 668 l 575 419 q 339 82 392 164 q 332 57 332 69 q 344 26 332 40 q 376 11 357 13 l 426 11 q 613 89 538 11 q 678 257 678 163 l 676 276 l 756 342 l 756 1 q 22 -1 389 1 m 389 818 l 228 950 l 247 975 l 389 906 l 531 975 l 550 950 l 389 818 z "},"‘":{"ha":204,"x_min":42,"x_max":163,"o":"m 101 821 q 61 838 81 821 q 42 882 42 856 q 53 919 42 897 l 57 926 q 71 943 63 935 q 138 988 100 972 l 149 990 l 154 971 q 97 940 128 964 l 101 940 q 144 923 126 940 q 163 881 163 906 q 144 838 163 856 q 101 821 125 821 z "},"’":{"ha":203,"x_min":42,"x_max":163,"o":"m 56 819 l 49 839 l 64 843 q 107 869 86 853 l 103 869 q 60 887 78 869 q 42 929 42 904 q 61 974 42 954 q 101 989 79 989 q 142 974 124 989 q 163 928 163 954 q 150 890 163 908 l 147 886 q 133 867 142 876 q 56 819 96 829 z "},"‚":{"ha":199,"x_min":39,"x_max":160,"o":"m 53 -46 l 46 -26 q 104 4 69 -22 q 56 22 74 4 q 39 64 39 39 q 58 106 39 89 q 100 122 78 122 q 139 108 121 122 q 160 63 160 89 q 147 25 160 40 l 144 21 q 131 1 139 11 q 53 -46 93 -36 z "},"“":{"ha":333,"x_min":42,"x_max":292,"o":"m 232 821 q 192 836 210 821 q 176 857 182 844 q 171 882 171 869 q 183 919 171 901 l 186 924 q 200 943 192 933 q 268 988 229 972 l 278 990 l 285 971 q 226 940 257 964 l 231 940 q 274 923 256 940 q 292 881 292 906 q 274 838 292 856 q 232 821 256 821 m 101 821 q 63 836 81 821 q 47 857 53 844 q 42 882 42 869 q 53 919 42 897 l 57 926 q 71 943 63 935 q 138 988 100 972 l 149 990 l 154 971 q 97 940 128 964 l 101 940 q 144 923 126 940 q 163 881 163 906 q 144 838 163 856 q 101 821 125 821 z "},"”":{"ha":332,"x_min":42,"x_max":292,"o":"m 56 819 l 49 839 l 64 843 q 107 869 86 853 l 103 869 q 60 887 78 869 q 42 929 42 904 q 61 974 42 954 q 101 989 79 989 q 142 974 124 989 q 163 928 163 954 q 150 890 163 908 l 147 886 q 133 867 142 876 q 56 819 96 829 m 186 819 l 179 839 q 236 869 206 846 l 232 869 q 189 887 207 869 q 171 929 171 904 q 192 974 171 954 q 231 989 210 989 q 272 972 253 989 q 292 928 292 954 q 282 893 292 908 q 281 891 281 892 q 276 883 281 890 q 263 867 271 875 q 196 822 233 838 l 186 819 z "},"„":{"ha":328,"x_min":39,"x_max":289,"o":"m 53 -46 l 46 -26 q 104 4 69 -22 q 56 22 74 4 q 39 64 39 39 q 58 106 39 89 q 100 122 78 122 q 139 108 121 122 q 160 63 160 89 q 147 25 160 40 l 144 21 q 131 1 139 11 q 53 -46 93 -36 m 183 -46 l 176 -26 q 233 4 204 -19 q 186 22 204 4 q 168 64 168 39 q 188 106 168 89 q 229 122 207 122 q 268 108 250 122 q 289 63 289 89 q 281 29 289 42 q 278 26 279 26 q 273 17 278 25 q 260 1 268 10 q 193 -43 231 -28 l 183 -46 z "},"•":{"ha":263,"x_min":43,"x_max":221,"o":"m 132 372 q 69 398 94 372 q 43 460 43 424 q 69 523 43 497 q 132 549 94 549 q 194 523 168 549 q 221 460 221 497 q 194 398 221 424 q 132 372 168 372 z "},"…":{"ha":592,"x_min":39,"x_max":553,"o":"m 99 4 q 56 22 74 4 q 39 64 39 39 q 56 106 39 89 q 99 124 74 124 q 142 106 124 124 q 160 64 160 89 q 142 22 160 39 q 99 4 124 4 m 296 4 q 253 22 271 4 q 236 64 236 39 q 253 106 236 89 q 296 124 271 124 q 338 106 321 124 q 356 64 356 89 q 338 22 356 39 q 296 4 321 4 m 493 4 q 450 22 468 4 q 432 64 432 39 q 450 106 432 89 q 493 124 468 124 q 535 106 518 124 q 553 64 553 89 q 535 22 553 39 q 493 4 518 4 z "},"‹":{"ha":268,"x_min":43,"x_max":226,"o":"m 219 251 l 43 429 l 218 604 q 225 597 222 601 l 57 429 l 226 260 l 219 251 z "},"›":{"ha":268,"x_min":42,"x_max":225,"o":"m 50 251 l 43 260 l 211 428 l 42 597 l 49 604 l 225 428 l 50 251 z "},"€":{"ha":1006,"x_min":35,"x_max":953,"o":"m 558 0 q 389 36 474 0 q 222 184 275 94 q 156 353 169 274 l 35 353 l 35 363 l 153 363 q 143 457 143 415 q 147 519 143 490 l 35 519 l 35 529 l 149 529 q 306 801 181 708 q 585 897 432 894 l 631 897 q 897 969 772 897 l 899 969 l 899 572 q 821 632 869 611 l 822 654 q 765 811 822 746 q 593 879 700 879 q 454 847 517 879 q 333 716 372 803 q 293 529 294 629 l 594 529 l 594 519 l 293 519 l 293 507 q 317 363 293 431 l 594 363 l 594 353 l 319 353 l 329 331 q 451 175 360 243 q 596 114 501 133 l 599 114 q 661 110 614 110 q 899 200 813 110 q 938 261 929 238 q 953 247 946 256 q 897 154 939 208 q 751 43 840 86 q 558 0 661 0 z "},"¶":{"ha":960,"x_min":69,"x_max":890,"o":"m 700 0 l 690 0 l 690 971 l 453 971 l 453 0 l 443 0 l 443 364 l 406 364 q 253 414 329 369 q 123 529 176 458 q 69 685 69 600 l 71 713 q 133 842 83 790 q 357 965 219 928 q 424 979 404 978 l 443 979 l 443 981 l 890 981 l 700 971 l 700 0 z "},"‰":{"ha":1126,"x_min":69,"x_max":1057,"o":"m 225 563 q 115 624 161 563 q 69 771 69 685 q 115 919 69 857 q 225 981 161 981 q 336 919 290 981 q 382 771 382 858 q 336 624 382 685 q 225 563 290 563 m 225 567 q 245 597 236 567 q 260 674 254 628 q 267 769 267 721 q 253 910 267 846 q 225 975 240 975 q 197 908 210 971 q 185 771 185 846 q 190 675 185 721 q 206 598 196 629 q 225 567 215 567 m 538 0 q 427 61 472 0 q 382 208 382 122 q 427 356 382 294 q 538 418 472 418 q 647 356 601 418 q 693 208 693 294 q 647 61 693 122 q 538 0 601 0 m 538 4 q 558 35 549 4 q 572 111 567 65 q 579 207 578 157 q 566 348 579 283 q 538 413 553 413 q 518 380 528 411 q 502 301 508 349 q 496 204 496 253 q 503 112 497 157 q 518 35 508 67 q 538 4 528 4 m 901 0 q 790 61 836 0 q 744 208 744 122 q 790 356 744 294 q 901 418 836 418 q 1011 356 965 418 q 1057 208 1057 294 q 1011 61 1057 122 q 901 0 965 0 m 901 4 q 922 35 913 4 q 936 111 931 65 q 943 207 942 157 q 930 348 943 283 q 901 413 917 413 q 882 380 892 411 q 866 301 872 349 q 860 204 860 253 q 867 112 861 157 q 882 35 872 67 q 901 4 892 4 m 117 13 l 107 17 l 669 982 l 678 978 l 117 13 z "},"≠":{"ha":375,"x_min":44,"x_max":331,"o":"m 93 346 l 86 353 l 131 408 l 44 408 l 44 418 l 139 418 l 222 519 l 44 519 l 44 529 l 231 529 l 282 590 l 289 583 l 244 529 l 331 529 l 331 519 l 236 519 l 151 418 l 331 418 l 331 408 l 144 408 l 93 346 z "},"±":{"ha":367,"x_min":42,"x_max":325,"o":"m 188 390 l 178 390 l 178 528 l 42 528 l 42 538 l 178 538 l 178 674 l 188 674 l 188 538 l 325 538 l 325 528 l 188 528 l 188 390 m 325 338 l 42 338 l 42 347 l 325 347 l 325 338 z "},"÷":{"ha":451,"x_min":69,"x_max":382,"o":"m 225 538 q 200 549 211 538 q 189 574 189 560 q 200 600 189 589 q 225 611 211 611 q 251 600 240 611 q 263 574 263 589 q 251 549 263 560 q 225 538 240 538 m 225 338 q 200 348 211 338 q 189 374 189 358 q 200 399 189 389 q 225 410 211 410 q 251 399 240 410 q 263 374 263 389 q 251 348 263 358 q 225 338 240 338 m 382 469 l 69 469 l 69 479 l 382 479 l 382 469 z "},">":{"ha":449,"x_min":40,"x_max":414,"o":"m 44 310 l 40 318 l 389 475 l 40 613 l 44 621 l 414 476 l 44 310 z "},"<":{"ha":453,"x_min":39,"x_max":413,"o":"m 408 310 l 39 454 l 408 621 l 413 613 l 64 456 l 413 318 l 408 310 z "},"≥":{"ha":454,"x_min":42,"x_max":415,"o":"m 46 375 l 42 385 l 390 521 l 42 678 l 46 688 l 415 521 l 46 375 m 403 307 l 43 307 l 43 317 l 403 317 l 403 307 z "},"≤":{"ha":454,"x_min":39,"x_max":413,"o":"m 408 375 l 39 521 l 408 688 l 413 678 l 64 521 l 413 385 l 408 375 m 410 307 l 51 307 l 51 317 l 410 317 l 410 307 z "},"~":{"ha":683,"x_min":40,"x_max":643,"o":"m 460 379 q 429 382 446 379 q 352 420 382 393 q 299 479 322 447 q 257 526 279 506 q 203 549 235 547 q 49 433 135 549 l 40 439 q 203 558 129 558 q 263 534 239 557 q 307 485 286 511 q 360 426 338 446 q 457 389 400 389 q 505 396 485 389 q 535 407 525 403 q 606 471 583 433 q 633 531 629 508 l 643 528 q 615 465 638 504 q 539 399 592 426 q 460 379 504 379 z "},"^":{"ha":407,"x_min":47,"x_max":360,"o":"m 57 604 l 47 608 l 214 978 l 360 608 l 350 606 l 214 953 q 57 604 135 779 z "},"™":{"ha":988,"x_min":69,"x_max":918,"o":"m 322 415 l 194 415 l 194 419 q 221 431 210 419 q 232 457 232 442 l 232 783 l 206 783 q 128 751 161 783 q 96 674 96 718 l 69 646 l 69 818 q 185 788 125 788 l 331 788 q 447 818 392 788 l 447 646 l 419 674 q 346 776 419 746 q 325 782 336 781 l 285 783 l 285 457 q 295 430 285 440 q 322 419 306 419 l 322 415 m 903 415 l 776 415 l 776 419 q 803 431 792 419 q 814 457 814 442 l 814 736 q 706 490 728 538 l 715 465 l 699 424 l 676 424 l 568 692 l 568 457 q 578 431 568 442 q 606 419 589 419 l 606 415 l 478 415 l 478 419 q 505 431 494 419 q 515 457 515 442 l 515 749 q 503 782 515 768 q 483 792 494 790 q 464 793 479 793 l 463 797 l 518 818 l 572 818 l 703 496 q 814 746 732 558 l 814 818 l 865 818 l 918 800 l 917 796 l 906 796 q 879 785 890 796 q 865 750 865 768 l 865 457 q 876 431 865 442 q 903 419 888 419 l 903 415 z "},"≈":{"ha":767,"x_min":38,"x_max":731,"o":"m 46 450 l 38 454 q 231 601 128 600 q 304 581 271 601 q 368 535 338 561 q 434 488 399 508 q 514 465 469 467 q 724 600 617 465 l 731 593 q 515 456 622 456 q 431 478 468 456 q 361 527 393 500 q 298 573 329 554 q 231 592 267 592 q 46 450 135 590 m 47 226 l 39 231 q 206 388 110 388 q 269 369 239 388 q 331 323 299 350 q 397 274 363 296 q 475 251 432 251 q 665 385 571 251 l 674 378 q 478 242 578 244 q 393 265 429 242 q 325 314 357 288 q 265 359 293 340 q 204 378 236 378 l 190 376 q 47 226 111 367 z "},"¤":{"ha":814,"x_min":69,"x_max":744,"o":"m 719 126 l 632 215 q 407 129 538 129 q 178 219 274 129 l 88 132 l 82 139 l 169 226 q 69 464 69 324 q 164 693 69 597 l 88 771 l 94 778 l 169 701 q 407 797 268 797 q 649 696 550 797 l 726 771 l 733 764 l 656 689 q 744 464 744 593 q 640 222 744 321 l 726 133 l 719 126 m 407 136 q 495 186 454 136 q 561 309 536 236 q 588 461 586 382 q 562 615 588 540 q 494 740 536 690 q 407 790 453 790 q 319 740 361 790 q 252 615 278 690 q 226 464 226 540 q 252 311 226 386 q 319 186 278 236 q 407 136 360 136 z "},"":{"ha":1214,"x_min":3,"x_max":1208,"o":"m 378 0 l 40 0 l 40 10 q 104 36 78 10 q 131 100 131 63 l 131 511 q 99 589 131 556 q 35 615 71 615 l 6 615 l 3 625 l 131 668 l 288 668 l 288 100 q 314 36 288 63 q 378 10 340 10 l 378 0 m 767 -1 l 429 -1 l 429 8 q 493 35 467 8 q 519 99 519 61 l 519 511 q 488 590 519 556 q 424 617 460 617 l 394 617 l 392 625 l 519 668 l 519 871 q 492 976 519 942 l 489 979 q 442 1024 472 1004 q 336 1053 393 1053 q 258 1035 296 1053 l 256 1033 q 204 981 222 1014 l 203 979 q 199 961 199 971 q 228 917 199 933 q 272 843 272 892 q 247 785 272 808 q 192 763 222 763 q 125 799 153 763 q 113 847 113 821 q 132 925 113 885 q 178 994 151 965 q 336 1064 242 1064 q 504 976 442 1064 q 531 871 531 940 l 531 668 l 676 668 l 676 518 q 756 615 701 568 q 888 668 810 661 q 950 660 921 668 q 1026 624 997 646 q 1060 596 1054 603 q 1118 465 1117 526 l 1118 100 q 1144 36 1118 63 q 1208 10 1171 10 l 1208 0 l 874 0 l 874 10 q 938 36 911 10 q 964 100 964 63 l 963 401 q 946 482 963 443 q 881 561 921 533 q 800 589 840 589 q 724 560 756 589 q 681 500 696 535 l 676 492 l 676 99 q 703 35 676 61 q 767 8 729 8 l 767 -1 z "},"":{"ha":1614,"x_min":3,"x_max":1608,"o":"m 761 -1 l 425 -1 l 425 8 q 489 35 463 8 q 515 99 515 61 l 515 511 q 488 585 515 553 q 419 617 461 617 l 390 617 l 388 625 l 515 669 l 515 871 q 486 976 515 933 q 436 1024 474 999 q 331 1053 389 1053 q 256 1035 292 1053 q 199 981 219 1018 l 197 979 q 193 961 193 971 q 222 917 193 933 q 267 843 267 892 q 242 785 267 806 q 186 763 217 764 q 130 788 151 763 q 108 847 108 814 q 128 926 108 886 q 174 996 150 971 q 249 1047 203 1028 q 332 1064 289 1064 q 499 976 438 1064 q 525 871 525 940 l 525 669 l 671 669 l 671 557 q 865 669 744 664 q 1006 618 944 669 q 1076 518 1060 574 q 1159 619 1104 574 q 1296 669 1214 665 q 1379 653 1343 669 q 1436 619 1415 636 q 1460 597 1457 601 q 1518 467 1517 528 l 1518 100 q 1544 36 1518 63 q 1608 10 1571 10 l 1608 0 l 1272 0 l 1272 10 q 1336 36 1310 10 q 1363 100 1363 63 l 1361 435 q 1306 553 1351 508 q 1208 597 1260 597 q 1138 574 1165 596 q 1082 506 1100 543 l 1081 503 q 1088 468 1086 485 l 1088 100 q 1114 36 1088 63 q 1178 10 1140 10 l 1178 0 l 844 0 l 844 10 q 908 36 882 10 q 935 100 935 63 l 933 406 q 884 549 933 489 q 776 610 835 610 q 724 594 746 608 q 688 563 701 579 q 671 538 675 546 l 671 99 q 697 35 671 61 q 761 8 724 8 l 761 -1 m 378 0 l 40 0 l 40 10 q 104 36 78 10 q 131 100 131 63 l 131 511 q 103 583 131 551 q 35 615 76 615 l 6 615 l 3 625 l 131 668 l 288 668 l 288 100 q 314 36 288 63 q 378 10 340 10 l 378 0 z "},"":{"ha":676,"x_min":8,"x_max":665,"o":"m 619 0 q 439 44 481 0 l 431 53 q 410 113 413 79 l 410 575 l 254 575 l 254 124 q 308 19 254 56 q 347 11 329 11 l 356 11 l 356 1 l 310 0 q 128 44 169 0 l 119 53 q 100 113 100 81 l 99 575 l 8 575 l 8 585 l 10 585 q 101 614 65 589 q 214 725 160 653 q 244 781 240 761 l 254 781 l 254 585 l 319 585 q 413 614 375 589 q 524 725 469 653 q 556 781 551 761 l 565 781 l 565 585 l 656 585 l 656 575 l 565 575 l 565 124 q 619 19 565 56 q 657 11 640 11 l 665 11 l 665 1 l 619 0 z "},"":{"ha":743,"x_min":-32,"x_max":738,"o":"m 738 -1 l 400 -1 l 400 8 q 464 35 438 8 q 490 99 490 61 l 490 508 q 463 581 490 550 q 394 613 436 613 l 365 613 l 363 622 l 490 667 l 647 667 l 647 97 q 674 34 647 60 q 738 8 700 8 l 738 -1 m 343 -1 l 6 -1 l 6 8 q 69 35 43 8 q 96 100 96 63 l 96 813 q 72 883 96 854 q 7 918 49 913 l -29 918 l -32 928 l 96 975 l 490 975 q 631 915 593 975 l 642 896 q 649 847 649 865 q 628 788 647 810 q 565 760 601 760 q 514 779 538 760 q 482 842 485 801 q 500 892 482 868 q 518 935 518 915 q 501 960 518 950 l 494 964 q 422 967 483 967 l 253 965 l 253 99 q 281 33 253 57 q 343 8 308 8 l 342 8 l 343 8 l 343 -1 z "},"":{"ha":860,"x_min":33,"x_max":854,"o":"m 328 0 l 57 0 l 57 224 l 58 222 l 58 224 q 136 167 90 186 l 136 157 q 144 109 136 140 q 181 50 151 78 q 238 15 210 22 q 303 8 265 8 q 383 35 357 8 q 408 97 408 63 q 363 164 404 142 q 268 203 322 186 q 144 254 204 222 q 51 349 83 286 l 50 351 q 33 433 33 389 q 64 526 33 481 q 128 590 94 572 q 131 593 131 592 q 135 594 132 594 q 139 597 138 597 q 224 617 174 617 q 266 615 250 617 q 301 614 282 614 q 347 617 328 614 q 392 632 365 619 l 407 639 q 424 651 415 647 q 436 657 432 654 l 435 885 q 473 991 435 942 q 561 1051 511 1040 l 564 1051 q 613 1058 576 1058 q 685 1043 644 1058 l 694 1039 q 733 1013 710 1032 q 782 900 782 971 q 756 806 782 849 q 683 763 731 763 q 628 783 656 763 q 600 842 600 803 q 627 902 601 881 q 679 924 653 924 q 708 935 696 924 q 719 964 719 947 q 710 999 719 985 q 667 1032 693 1021 q 606 1047 635 1047 q 564 1042 576 1047 q 479 985 504 1024 q 444 885 444 938 l 447 396 l 369 432 q 374 468 374 450 q 349 556 374 519 q 288 601 324 592 q 278 603 282 601 q 268 604 274 604 q 182 563 222 604 q 157 486 157 529 q 181 417 157 454 l 182 417 q 252 354 213 375 q 335 320 292 333 q 415 288 378 307 q 476 229 451 268 q 496 157 494 196 q 478 88 496 117 q 449 49 460 58 q 403 17 442 39 q 401 15 403 15 q 328 0 368 0 m 854 0 l 517 0 l 517 10 q 581 36 554 10 q 607 100 607 63 l 607 511 q 580 583 607 551 q 511 615 553 615 l 482 615 l 479 625 l 607 668 l 764 668 l 764 100 q 790 36 764 63 q 854 10 817 10 l 854 0 z "},"":{"ha":986,"x_min":8,"x_max":979,"o":"m 431 -272 q 328 -261 381 -272 l 300 -256 q 279 -251 288 -254 l 421 -72 l 428 -78 l 426 -79 q 408 -158 408 -121 q 432 -231 408 -201 q 494 -261 461 -261 l 508 -260 q 546 -228 532 -251 l 547 -225 q 563 -162 563 -197 q 494 -6 563 -82 q 460 25 486 6 q 317 64 410 61 l 292 65 q 235 67 256 65 l 214 68 q 85 83 121 75 q 10 146 17 96 l 8 157 q 21 200 8 182 l 22 204 q 54 232 36 221 q 163 264 99 258 l 186 294 q 139 435 139 356 q 169 544 139 490 q 253 633 200 597 q 376 668 307 668 q 486 642 435 668 l 493 667 q 541 765 515 725 q 586 824 567 804 l 606 843 q 699 898 646 876 q 797 919 751 919 q 863 899 836 919 q 889 838 889 871 q 849 765 889 794 q 808 756 829 756 q 781 760 794 756 q 728 817 740 775 q 708 847 722 836 q 674 858 693 858 l 668 858 l 668 857 q 599 815 636 851 l 565 778 q 494 636 503 686 q 613 443 603 571 l 613 435 q 572 308 613 360 q 476 228 531 256 q 376 200 421 201 q 329 206 354 200 q 193 288 246 222 l 165 251 l 157 238 q 149 196 149 221 q 169 129 149 157 q 269 85 185 103 q 392 71 314 75 q 504 64 479 67 q 591 49 564 60 q 644 24 618 39 q 685 -18 669 10 q 700 -76 700 -46 q 674 -171 700 -129 q 597 -240 643 -218 q 503 -267 550 -261 q 431 -272 456 -272 m 376 206 q 428 276 406 206 q 454 432 451 347 q 430 590 454 515 q 376 664 406 664 q 322 589 347 664 q 297 429 297 514 q 324 276 300 346 q 376 206 347 206 m 979 0 l 732 0 l 732 511 q 700 590 732 556 q 636 615 672 615 l 607 615 l 604 625 l 732 668 l 889 668 l 889 100 q 915 36 889 63 q 979 10 942 10 l 979 0 z "},"":{"ha":1018,"x_min":1,"x_max":1042,"o":"m 772 -278 q 671 -267 724 -278 l 643 -261 q 622 -257 629 -260 l 763 -78 l 771 -83 q 769 -85 769 -83 q 750 -164 750 -126 q 776 -237 750 -207 q 836 -267 803 -267 q 876 -249 860 -267 q 904 -167 904 -217 q 838 -11 904 -86 q 803 19 829 0 q 658 58 753 56 l 633 60 q 578 61 597 60 l 567 61 q 429 76 476 67 q 354 133 365 89 q 351 153 351 142 q 356 181 351 169 q 363 195 361 193 q 365 197 364 197 q 365 199 365 197 q 397 226 379 215 q 506 258 442 253 l 529 289 q 482 429 482 350 q 513 538 482 485 q 597 627 543 592 q 719 663 650 663 q 861 615 799 663 l 860 621 q 897 786 897 693 q 883 886 897 832 q 838 990 878 918 q 704 1119 799 1061 q 532 1164 624 1164 q 425 1149 474 1164 q 311 1097 335 1122 q 263 1054 288 1079 q 231 972 231 1019 q 264 892 231 924 q 286 836 286 865 q 235 761 286 785 q 206 756 219 756 q 139 786 165 756 q 121 843 121 813 q 147 946 121 888 q 225 1057 176 1011 q 524 1175 351 1175 q 710 1128 618 1175 q 847 994 806 1068 q 893 888 888 921 q 907 786 907 833 q 868 615 907 693 l 867 611 q 956 438 947 546 l 956 429 q 914 303 956 356 q 818 223 872 250 q 719 194 764 196 q 672 200 697 194 q 535 281 589 217 l 511 249 q 507 246 510 249 l 500 232 q 492 190 492 214 q 513 124 492 153 q 611 79 525 99 q 735 65 657 69 q 847 58 822 61 q 932 44 907 54 q 989 18 969 29 q 1027 -23 1013 4 q 1042 -81 1042 -50 q 1014 -179 1042 -135 q 940 -245 986 -224 q 846 -272 893 -267 q 772 -278 799 -278 m 719 200 q 772 271 749 200 q 797 424 794 342 q 773 582 797 506 q 719 658 749 658 q 665 583 690 658 q 640 424 640 508 q 667 270 643 340 q 719 200 690 200 m 376 0 l 39 0 l 39 10 q 103 36 76 10 q 129 100 129 63 l 129 511 q 97 590 129 556 q 33 615 69 615 l 4 615 l 1 625 l 129 668 l 286 668 l 286 100 q 313 36 286 63 q 376 10 339 10 l 376 0 z "},"":{"ha":1478,"x_min":32,"x_max":1536,"o":"m 1108 -529 q 810 -447 944 -529 q 611 -243 704 -372 q 524 -118 553 -167 q 469 -53 494 -69 q 381 -24 425 -24 q 336 -31 358 -24 q 290 -47 314 -37 q 199 -72 235 -72 q 67 8 122 -72 q 32 114 32 60 l 32 126 q 149 267 47 225 q 50 457 50 339 q 119 623 50 554 q 288 692 189 692 q 315 690 303 692 q 336 686 328 689 l 344 685 l 354 682 q 378 673 364 679 q 410 657 393 667 q 474 768 431 719 q 564 817 518 817 q 614 793 594 815 l 615 792 q 640 719 640 764 q 637 689 640 701 q 622 676 633 676 l 617 678 q 528 701 576 701 q 492 697 511 701 l 486 696 q 419 651 438 683 l 421 650 q 490 578 456 628 q 525 458 525 528 q 476 327 521 379 q 375 249 431 275 q 288 222 319 222 q 161 258 217 222 q 106 218 126 243 l 106 217 q 83 149 83 192 q 101 97 85 118 q 193 36 149 36 q 236 44 214 36 q 283 65 258 53 q 333 88 307 78 q 386 97 360 97 q 467 58 438 97 q 507 -12 485 33 q 585 -149 533 -64 q 704 -329 654 -262 q 817 -436 754 -396 q 860 -460 826 -443 q 1061 -508 956 -508 q 1246 -458 1153 -508 q 1367 -292 1349 -403 q 1379 -203 1379 -249 q 1363 -97 1379 -147 q 1317 -15 1346 -46 q 1292 1 1306 -3 q 1258 10 1278 6 l 1238 14 l 1221 17 q 1171 19 1204 19 q 908 -28 1056 19 q 765 -58 821 -58 q 674 -28 714 -58 q 622 89 624 17 q 675 230 622 174 q 779 300 728 286 q 722 410 738 342 l 721 422 q 718 453 718 435 q 756 574 718 513 q 837 657 786 622 q 956 692 888 692 q 1086 651 1026 692 l 1086 654 q 1150 767 1106 717 q 1240 818 1194 818 q 1293 792 1274 815 q 1318 722 1318 765 q 1315 690 1318 703 q 1300 676 1311 676 l 1294 678 q 1206 701 1254 701 q 1167 696 1185 701 q 1096 650 1114 685 q 1094 646 1094 649 q 1166 563 1139 613 q 1193 457 1193 514 q 1146 322 1192 376 q 1051 248 1104 272 q 949 222 997 224 q 903 228 926 222 q 786 292 836 243 q 726 246 751 276 q 693 144 693 199 q 729 43 693 86 q 763 20 743 28 q 810 6 782 13 q 885 -3 822 -3 q 1011 11 932 -3 q 1086 29 1060 21 l 1153 49 q 1299 74 1231 74 q 1478 4 1407 74 q 1536 -161 1536 -58 q 1422 -419 1536 -312 q 1277 -502 1360 -475 q 1108 -529 1194 -529 m 956 226 q 1002 262 985 226 q 1027 350 1019 297 q 1035 456 1035 403 q 1027 562 1035 508 q 1002 651 1019 615 q 956 686 985 686 q 912 652 928 686 q 889 566 896 618 q 882 454 882 514 q 956 226 886 226 m 288 226 q 333 262 317 226 q 358 350 350 297 q 365 456 365 403 q 358 562 365 508 q 333 651 350 615 q 288 686 317 686 q 227 615 246 686 q 208 465 208 544 q 218 346 208 406 q 288 226 236 226 z "},"":{"ha":1204,"x_min":3,"x_max":1175,"o":"m 378 0 l 40 0 l 40 10 q 104 36 78 10 q 131 100 131 63 l 131 511 q 99 589 131 556 q 35 615 71 615 l 6 615 l 3 625 l 131 668 l 288 668 l 288 100 q 314 36 288 63 q 378 10 340 10 l 378 0 m 663 0 l 415 0 l 415 10 l 435 11 q 486 44 465 19 q 507 100 507 68 l 507 813 q 474 893 507 858 q 411 918 447 918 l 382 918 l 378 928 l 506 971 l 663 971 l 663 100 q 769 71 708 71 q 904 119 847 71 q 1017 346 1017 214 q 1003 442 1017 401 q 963 526 983 496 q 944 490 957 511 q 888 418 917 444 q 814 374 847 381 q 792 371 803 371 q 743 380 763 371 q 721 393 724 389 q 667 500 667 433 q 715 615 667 565 q 776 653 744 643 q 882 674 838 674 q 932 669 915 674 q 981 657 964 664 q 983 708 983 679 q 957 871 983 790 q 803 1110 921 1011 q 506 1210 663 1210 q 310 1164 403 1210 q 283 1149 297 1156 q 175 1028 218 1113 q 163 982 163 997 q 183 936 163 953 q 218 921 197 924 q 276 883 260 915 q 288 839 288 861 q 277 798 288 818 q 247 767 267 778 q 207 756 228 756 q 149 776 174 756 q 115 867 115 806 q 135 979 115 924 l 136 982 q 226 1117 171 1069 q 506 1219 349 1219 q 808 1117 665 1219 q 829 1099 815 1113 q 856 1072 843 1085 q 901 1013 868 1060 q 963 886 933 965 q 987 789 981 835 q 993 706 993 743 q 990 654 993 676 l 997 651 l 1025 636 l 1054 617 q 1114 551 1085 593 q 1175 343 1175 460 l 1175 328 q 1164 256 1175 313 q 1014 35 1135 100 q 875 4 947 4 q 803 14 836 4 l 799 15 q 663 89 708 43 l 663 0 m 785 378 q 842 393 815 378 q 884 424 868 408 q 903 443 900 439 q 949 519 922 465 l 956 536 q 897 594 922 579 l 894 596 q 803 628 853 628 l 793 629 q 703 578 740 629 q 678 501 678 544 q 704 422 678 458 q 785 378 736 378 z "},"":{"ha":1139,"x_min":28,"x_max":1132,"o":"m 1132 0 l 794 0 l 794 10 q 878 65 851 10 q 885 100 885 82 l 885 511 q 853 589 885 556 q 789 615 826 615 l 760 615 l 757 625 l 885 668 l 1042 668 l 1042 100 q 1068 36 1042 63 q 1132 10 1094 10 l 1132 0 m 317 -7 q 113 93 196 -7 q 54 194 72 142 q 32 288 36 246 q 28 346 28 331 q 32 388 28 367 q 61 496 40 444 q 146 608 90 561 q 272 668 201 654 q 268 744 268 699 q 276 814 268 763 q 417 1051 300 951 l 449 1074 q 537 1117 481 1094 q 667 1142 593 1140 q 718 1139 696 1142 l 740 1136 q 801 1123 786 1128 q 849 1104 815 1118 q 919 1064 882 1090 q 1010 967 972 1025 q 1049 854 1049 908 q 1033 800 1049 824 l 1017 778 q 953 754 992 754 l 946 754 q 882 786 908 754 q 867 842 867 808 q 877 888 868 871 q 896 916 886 904 q 913 940 906 928 q 921 971 921 953 q 872 1059 921 1018 q 771 1118 824 1100 q 675 1132 728 1132 q 422 1043 536 1132 l 421 1042 q 375 994 408 1033 q 278 744 282 890 q 282 671 278 707 q 349 676 315 676 q 508 628 446 676 l 508 814 q 475 893 508 858 q 413 918 449 918 l 383 918 l 379 928 l 508 975 l 671 975 l 671 99 q 688 49 672 72 q 728 17 703 26 q 733 15 729 15 q 761 10 747 10 l 761 0 l 508 0 l 508 46 l 486 35 q 317 -7 404 -7 m 442 44 q 499 57 471 44 l 508 63 l 508 458 q 447 440 478 440 q 424 443 435 440 q 294 590 342 463 q 276 576 282 582 q 204 467 219 525 q 188 365 189 408 q 195 279 188 335 q 236 167 203 224 l 236 165 q 303 94 260 126 l 307 92 q 442 44 372 44 m 449 450 q 508 469 485 450 l 508 590 q 492 601 500 597 q 406 624 450 621 q 303 594 349 624 q 425 453 349 472 q 449 450 433 450 z "},"":{"ha":689,"x_min":3,"x_max":679,"o":"m 378 0 l 40 0 l 40 10 q 104 36 78 10 q 131 100 131 63 l 131 511 q 99 589 131 556 q 35 615 71 615 l 6 615 l 3 625 l 131 668 l 288 668 l 288 100 q 314 36 288 63 q 378 10 340 10 l 378 0 m 640 -1 q 451 44 494 -1 l 444 53 q 424 111 426 79 l 424 575 l 332 575 l 332 585 q 469 647 411 585 l 472 650 q 564 768 543 724 q 565 772 564 769 q 567 781 567 775 q 517 911 567 853 q 426 968 479 950 l 419 971 q 367 981 392 981 q 310 969 333 981 l 307 969 q 275 908 275 944 q 282 876 275 892 q 289 844 289 860 q 263 782 289 810 q 206 763 239 763 q 185 765 200 763 q 156 778 171 767 q 133 803 140 789 q 125 829 126 818 q 124 843 124 840 l 125 857 q 167 919 131 885 q 242 969 196 947 q 346 992 289 992 q 397 985 374 990 q 524 918 469 972 q 578 781 578 854 l 579 781 l 578 585 l 668 585 l 668 575 l 578 575 l 578 124 q 633 19 578 56 q 679 10 661 10 l 679 0 l 640 -1 z "},"":{"ha":1151,"x_min":8,"x_max":1147,"o":"m 1147 0 l 811 0 l 811 10 q 876 37 849 10 q 903 101 903 64 l 903 388 q 792 629 888 588 q 738 636 767 636 q 674 619 699 633 q 640 597 650 606 l 640 100 q 660 44 640 68 q 713 11 681 19 l 731 10 l 731 0 l 393 0 l 393 10 q 458 36 431 10 q 485 100 485 63 l 485 599 q 281 575 408 575 l 254 575 l 254 124 q 308 19 254 56 q 346 11 331 11 l 354 11 l 354 1 l 314 0 q 128 44 169 0 l 119 53 q 100 113 100 81 l 99 575 l 8 575 l 8 585 l 10 585 q 101 614 65 589 q 214 725 160 653 q 244 781 240 761 l 254 781 l 254 585 l 281 585 q 372 589 338 585 q 483 611 443 597 q 484 1076 483 1075 q 485 1078 485 1076 q 555 1154 500 1126 q 667 1182 610 1182 q 756 1163 711 1182 q 833 1106 801 1144 q 876 978 876 1051 q 857 866 876 915 q 829 806 838 817 q 640 647 754 697 l 640 607 q 779 665 694 650 q 833 669 796 669 q 1004 604 940 669 q 1057 451 1057 539 l 1057 101 q 1083 37 1057 64 q 1147 10 1110 10 l 1147 0 m 640 674 q 721 732 688 700 q 828 913 810 808 q 829 943 829 919 q 781 1074 829 1035 q 728 1092 758 1092 q 710 1089 719 1092 l 690 1082 q 640 985 649 1061 l 640 674 z "},"":{"ha":1183,"x_min":8,"x_max":1154,"o":"m 874 0 q 736 26 794 0 q 643 85 678 51 l 643 0 l 396 0 l 396 10 q 460 36 433 10 q 488 100 488 63 l 488 597 l 421 583 q 254 575 358 575 l 254 124 q 308 19 254 56 q 346 11 331 11 l 354 11 l 354 1 l 314 0 q 128 44 169 0 l 119 53 q 100 113 100 81 l 99 575 l 8 575 l 8 585 l 10 585 q 101 614 65 589 q 214 725 160 653 q 244 781 240 761 l 254 781 l 254 585 l 274 585 q 406 592 360 585 l 446 599 q 488 611 471 604 l 488 1078 q 558 1154 503 1126 q 669 1182 613 1182 q 760 1163 715 1182 q 836 1106 804 1144 q 879 978 879 1051 q 860 866 879 915 q 832 806 840 817 q 643 647 757 697 l 643 579 q 882 667 751 667 q 1036 615 976 667 q 1125 485 1096 564 q 1154 325 1154 407 q 1072 95 1154 190 q 874 0 989 0 m 643 674 q 722 731 683 696 q 831 913 813 806 q 832 943 832 919 q 783 1074 832 1035 q 731 1092 761 1092 q 713 1089 722 1092 l 693 1082 q 643 985 651 1061 l 643 674 m 772 32 q 853 58 808 32 q 955 169 913 96 q 999 336 997 242 q 966 481 999 411 q 875 593 933 551 q 778 625 826 625 q 690 602 726 625 q 643 567 653 579 l 643 101 q 666 77 649 93 q 710 47 683 61 q 772 32 738 32 z "},"":{"ha":601,"x_min":13,"x_max":551,"o":"m 335 -286 q 220 -262 275 -286 q 153 -197 165 -239 l 151 -182 q 157 -151 151 -162 l 158 -147 q 249 -87 183 -99 q 258 -91 254 -87 q 263 -100 263 -94 l 261 -122 q 294 -225 261 -181 l 296 -226 q 321 -255 301 -236 q 372 -275 340 -274 q 429 -256 403 -275 q 467 -189 467 -226 q 438 -90 467 -154 q 390 7 415 -36 l 390 574 l 263 574 l 263 100 q 289 36 263 63 q 353 10 315 10 l 353 0 l 14 0 l 14 10 q 79 36 53 10 q 106 101 106 63 l 106 574 l 13 574 l 13 583 q 78 610 51 583 q 106 676 106 638 l 106 743 q 135 865 106 806 q 218 939 158 908 q 349 969 278 969 q 400 966 375 969 q 469 944 425 963 q 540 876 514 925 q 551 824 551 851 q 542 778 551 800 q 511 743 532 756 q 468 731 490 731 q 439 736 453 731 q 392 788 401 751 q 388 815 388 801 q 397 861 388 833 q 404 889 404 874 l 403 900 q 383 935 397 922 q 325 956 361 956 q 297 953 310 956 l 293 951 q 249 938 281 950 q 194 893 218 925 q 178 829 178 864 q 199 748 178 789 q 261 674 219 707 l 263 674 l 263 583 l 390 583 l 390 636 l 546 636 l 546 18 q 542 -82 544 -37 q 507 -221 538 -178 q 335 -286 446 -286 z "},"":{"ha":653,"x_min":11,"x_max":642,"o":"m 603 0 q 421 40 465 0 l 407 54 q 388 113 388 81 l 386 576 l 263 576 l 263 101 q 289 38 263 64 q 353 11 315 11 l 353 1 l 13 1 l 13 11 q 78 38 51 11 q 104 101 104 64 l 104 574 l 11 574 l 11 583 q 77 610 50 583 q 104 676 104 638 l 104 751 q 161 913 104 847 q 319 968 222 968 q 431 946 381 968 q 494 886 481 924 q 497 868 497 876 q 490 835 497 856 q 404 772 469 785 l 400 771 q 395 773 399 771 q 390 781 392 775 q 383 819 388 792 q 374 867 379 842 q 360 911 369 892 q 357 914 360 913 q 343 932 353 921 q 288 956 321 956 q 239 944 263 956 q 182 850 182 915 q 201 767 182 813 q 261 675 221 721 l 263 675 l 263 586 l 300 586 q 390 616 354 592 q 435 651 425 640 q 501 726 474 689 q 532 782 528 763 l 542 782 l 542 586 l 632 586 l 632 576 l 542 576 l 542 125 q 596 21 542 54 q 642 11 624 11 l 642 1 l 603 0 z "},"":{"ha":1463,"x_min":24,"x_max":1458,"o":"m 649 0 l 306 0 l 306 10 q 369 36 343 10 q 396 100 396 63 l 396 889 l 343 889 q 280 880 321 889 q 195 837 239 871 q 131 760 151 803 q 106 681 111 717 q 101 632 101 646 l 101 626 l 24 558 l 24 975 q 275 899 142 899 l 418 899 l 418 900 l 543 900 l 543 899 l 657 899 q 951 974 829 908 l 951 608 q 1090 667 1006 653 q 1146 671 1122 671 q 1315 606 1253 671 q 1368 454 1368 543 l 1368 103 q 1394 38 1368 65 q 1458 11 1421 11 l 1458 1 l 1124 1 l 1124 11 q 1188 38 1161 11 q 1214 104 1214 65 l 1214 389 q 1103 631 1200 589 q 1057 638 1074 638 q 951 599 989 635 l 951 103 q 978 38 951 65 q 1042 11 1004 11 l 1042 1 l 704 1 l 704 11 q 768 38 742 11 q 794 103 794 65 l 794 778 q 769 833 794 811 q 654 885 719 872 q 640 888 647 886 q 596 889 633 889 l 558 889 l 558 100 q 585 36 558 63 q 649 10 611 10 l 649 0 z "},"":{"ha":1683,"x_min":24,"x_max":1678,"o":"m 649 0 l 306 0 l 306 10 q 369 36 343 10 q 396 100 396 63 l 396 889 l 354 889 q 291 882 336 889 q 196 839 246 875 q 134 765 154 804 q 108 690 114 725 q 103 638 103 654 l 103 626 l 24 558 l 24 975 l 25 975 q 304 899 157 899 l 418 899 l 418 900 l 543 900 l 543 899 l 657 899 q 756 907 703 899 q 967 974 874 924 l 971 975 l 971 560 l 969 560 l 969 493 l 1389 493 l 1389 814 q 1356 893 1389 858 q 1293 918 1329 918 l 1264 918 l 1261 928 l 1389 974 l 1678 974 l 1678 964 q 1588 927 1625 964 q 1551 839 1551 890 l 1551 101 q 1578 38 1551 65 q 1642 11 1604 11 l 1642 1 l 1299 1 l 1299 11 q 1363 38 1336 11 q 1389 103 1389 65 l 1389 482 l 969 482 l 969 101 q 996 38 969 65 q 1060 11 1022 11 l 1060 1 l 717 1 l 717 11 q 781 38 754 11 q 807 103 807 65 l 807 753 q 769 833 807 799 q 654 885 715 874 q 640 888 647 886 q 596 889 633 889 l 558 889 l 558 100 q 585 36 558 63 q 649 10 611 10 l 649 0 z "},"":{"ha":1593,"x_min":26,"x_max":1565,"o":"m 521 -4 q 272 62 385 -4 q 93 239 160 128 q 26 485 26 350 q 93 731 26 619 q 272 908 160 842 q 521 974 385 974 q 788 896 668 974 q 1072 986 913 986 q 1320 920 1208 986 q 1499 743 1432 854 q 1565 497 1565 632 q 1499 251 1565 363 q 1320 74 1432 140 q 1072 8 1208 8 q 806 86 925 8 q 521 -4 679 -4 m 521 6 q 638 42 582 6 q 736 138 693 78 q 620 299 663 206 q 578 497 578 392 q 617 690 578 600 q 725 846 657 779 q 631 931 683 900 q 521 963 578 963 q 356 889 431 963 q 235 705 281 815 q 190 482 190 594 q 236 260 192 368 q 356 79 281 153 q 521 6 431 6 m 1072 18 q 1238 92 1163 18 q 1358 277 1313 167 q 1403 499 1403 388 q 1356 719 1401 611 q 1237 901 1311 828 q 1072 975 1163 975 q 956 939 1011 975 q 793 735 854 874 q 740 490 740 611 q 799 246 743 367 q 867 136 828 185 q 1072 18 961 18 z "},"":{"ha":1107,"x_min":25,"x_max":1082,"o":"m 744 -12 q 553 46 638 -12 q 363 -12 469 -12 q 124 85 224 -12 q 25 322 25 183 q 124 558 25 460 q 363 656 224 656 q 553 597 469 656 q 744 656 638 656 q 983 558 883 656 q 1082 322 1082 460 q 983 85 1082 183 q 744 -12 883 -12 m 363 -6 q 431 24 399 -6 q 489 103 464 54 q 407 322 407 196 q 489 540 407 447 q 431 619 464 589 q 363 649 399 649 q 274 598 315 649 q 207 472 232 547 q 181 319 182 397 q 208 169 182 243 q 274 45 233 96 q 363 -6 315 -6 m 744 -6 q 833 46 792 -6 q 901 173 875 97 q 926 324 926 249 q 899 474 925 400 q 833 599 874 549 q 744 649 792 649 q 676 619 710 649 q 618 540 643 589 q 563 326 563 438 q 618 103 564 207 q 676 24 643 54 q 744 -6 710 -6 z "},"":{"ha":1033,"x_min":-636,"x_max":1389,"o":"m -332 -490 q -510 -439 -432 -490 l -535 -422 q -636 -224 -636 -339 q -610 -112 -636 -160 q -558 -37 -583 -64 q -528 -10 -532 -11 q -460 29 -511 7 q -324 51 -410 51 q -124 10 -224 49 q 78 -87 -24 -28 q 111 0 94 -46 l -14 0 l -14 10 q 80 38 38 10 q 143 114 122 67 l 224 318 l 224 324 l 225 324 l 433 863 l 335 863 l 328 869 l 433 971 l 596 971 l 968 86 q 1082 10 1007 10 l 1082 0 l 742 0 l 742 10 q 783 27 767 10 q 800 68 800 44 q 796 90 800 79 l 717 264 q 482 344 594 344 q 293 290 383 344 q 167 143 210 235 q 157 119 163 132 q 151 90 151 106 q 174 34 151 58 q 232 10 197 10 l 232 0 l 122 0 q 86 -93 106 -49 q 333 -214 172 -151 q 774 -292 535 -292 q 854 -288 807 -292 q 971 -272 901 -285 q 1224 -158 1143 -240 q 1254 -104 1249 -131 l 1256 -94 q 1249 -64 1256 -79 l 1258 -60 q 1333 -192 1276 -89 l 1389 -293 q 939 -478 1165 -472 q 693 -438 806 -478 q 471 -337 581 -399 q 246 -203 383 -289 q 82 -101 163 -149 q -96 -381 15 -276 q -332 -490 -207 -486 m 189 203 q 288 299 229 260 q 481 354 379 354 q 708 279 599 354 q 485 826 500 786 q 456 856 476 846 q 443 860 451 860 l 189 203 m -331 -481 q -112 -375 -219 -478 q 74 -96 -6 -272 q -126 1 -28 -36 q -324 42 -224 39 q -456 20 -407 42 q -521 -17 -504 -1 q -551 -45 -525 -19 q -601 -116 -576 -71 q -626 -222 -626 -161 l -625 -247 q -529 -415 -612 -344 l -526 -417 q -493 -438 -519 -424 q -426 -467 -467 -453 q -331 -481 -385 -481 z "},"":{"ha":885,"x_min":21,"x_max":899,"o":"m 192 -6 q 90 25 135 -6 q 21 193 21 78 q 61 367 21 281 l 285 847 q 277 853 282 850 q 266 860 272 857 q 244 863 260 863 l 150 863 l 143 869 l 249 971 l 411 971 l 785 86 q 899 10 824 10 l 899 0 l 557 0 l 557 10 q 599 27 582 10 q 615 68 615 44 q 611 90 615 79 l 511 311 q 434 174 481 246 q 326 50 388 101 q 192 -6 265 -1 m 294 118 q 379 158 326 119 q 504 328 474 240 l 294 836 q 153 440 189 631 q 135 289 135 346 q 144 215 135 242 q 186 157 157 182 q 283 118 229 118 l 294 118 z "},"":{"ha":1011,"x_min":-544,"x_max":1481,"o":"m -240 -492 l -244 -492 q -418 -442 -343 -492 l -443 -425 q -544 -226 -544 -342 q -472 -47 -544 -126 q -437 -12 -446 -19 l -436 -11 q -232 49 -369 49 q -32 8 -132 46 q 169 -90 68 -31 q 204 0 188 -46 l 40 0 l 40 10 q 104 36 78 10 q 131 100 131 63 l 131 811 q 94 893 131 860 q 35 917 67 917 l 6 917 l 3 926 l 131 971 l 419 971 l 419 961 q 331 925 368 961 q 293 836 293 889 l 293 258 q 403 393 332 333 q 517 460 463 440 q 597 482 571 479 q 661 486 631 486 q 713 483 689 486 l 713 811 q 679 890 713 857 q 617 917 653 917 l 588 917 l 585 926 l 713 971 l 1001 971 l 1001 961 q 913 925 950 961 q 875 836 875 889 l 875 100 q 902 36 875 63 q 965 10 929 10 l 965 0 l 622 0 l 622 10 q 686 36 660 10 q 713 100 713 63 l 713 474 q 663 476 689 476 q 600 472 632 476 q 521 450 574 469 q 408 385 468 431 q 293 238 333 321 l 293 100 q 320 36 293 63 q 385 10 347 10 l 385 0 l 214 0 q 178 -94 199 -50 q 436 -221 271 -157 l 439 -222 q 733 -294 574 -275 q 861 -303 801 -303 q 1084 -276 992 -303 q 1228 -219 1176 -249 q 1294 -174 1281 -189 q 1315 -144 1308 -158 q 1324 -121 1322 -129 l 1325 -111 q 1318 -81 1325 -94 l 1328 -75 q 1414 -200 1346 -104 l 1481 -296 q 1031 -481 1257 -474 q 781 -440 896 -481 q 556 -336 667 -399 q 338 -204 446 -274 q 174 -104 254 -151 q -4 -383 107 -279 q -240 -492 -115 -487 m -239 -482 q -22 -378 -131 -482 q 165 -99 86 -274 q -35 -1 64 -39 q -232 39 -133 36 q -431 -19 -364 39 l -432 -21 q -465 -54 -440 -28 q -535 -225 -535 -129 q -437 -418 -535 -335 l -435 -419 q -401 -440 -428 -426 q -239 -482 -328 -482 z "},"":{"ha":456,"x_min":-392,"x_max":1583,"o":"m 1197 -432 q 921 -383 1058 -432 q 657 -265 783 -333 q 425 -129 531 -196 q 297 -47 339 -75 q 293 -82 297 -64 q 192 -257 276 -179 q 58 -336 133 -310 q -93 -362 -17 -362 q -220 -341 -160 -362 q -322 -276 -281 -319 l -324 -274 q -347 -244 -331 -267 q -377 -185 -362 -221 q -392 -104 -392 -149 q -387 -64 -392 -85 q -339 32 -372 -4 q -285 81 -306 68 q -131 122 -219 122 q 111 65 -18 122 l 124 60 q 133 100 133 79 l 133 811 q 97 893 133 857 q 36 915 69 915 l 8 915 l 6 925 l 133 968 l 419 969 l 419 958 q 332 922 368 958 q 296 835 296 886 l 296 1 l 299 0 l 296 0 q 299 -36 299 -17 q 563 -167 400 -99 q 1029 -269 813 -269 q 1203 -249 1118 -269 q 1399 -157 1314 -222 q 1440 -75 1440 -122 q 1435 -42 1440 -58 l 1444 -36 l 1475 -89 q 1583 -283 1519 -172 q 1197 -432 1414 -432 m -93 -353 q 56 -326 -18 -353 q 186 -249 129 -300 q 283 -81 267 -175 q 288 -40 288 -61 l 219 0 l 43 0 l 43 10 q 104 35 79 10 l 107 36 q 118 51 114 44 l 111 54 q -129 113 -12 113 q -206 103 -168 113 q -279 72 -244 94 q -331 26 -300 60 q -378 -65 -362 -8 q -382 -106 -382 -86 q -335 -243 -382 -181 q -215 -332 -287 -306 q -93 -353 -158 -353 m 288 -29 q 286 0 288 -14 l 239 0 l 288 -29 z "},"":{"ha":1299,"x_min":-217,"x_max":2099,"o":"m 1671 -432 q 1377 -376 1532 -432 q 1046 -225 1222 -321 q 663 -7 869 -129 q 439 -312 571 -200 q 149 -431 303 -428 q -126 -322 -21 -431 q -217 -86 -217 -214 q -181 64 -217 -7 q -76 176 -136 140 q 17 222 -17 213 q 119 238 68 238 q 231 222 175 238 l 231 807 q 196 886 231 851 q 147 910 174 904 q 97 911 138 911 l 94 921 l 235 971 l 433 974 l 757 235 l 1029 792 l 1029 971 l 1190 971 l 1326 928 l 1322 918 l 1292 918 q 1225 893 1254 918 q 1190 808 1190 853 l 1190 100 q 1219 36 1190 63 q 1286 10 1247 10 l 1286 0 l 933 0 l 933 10 q 1001 36 974 10 q 1029 100 1029 63 l 1029 769 l 763 222 l 796 147 l 733 18 l 676 18 l 675 21 l 667 1 q 826 -70 700 -15 q 1122 -180 953 -125 q 1451 -254 1292 -235 q 1525 -258 1465 -258 q 1726 -235 1626 -258 l 1782 -214 q 1918 -136 1838 -193 q 1947 -81 1947 -115 q 1938 -49 1947 -64 l 1947 -40 l 2099 -251 l 2040 -301 q 1797 -419 1924 -390 q 1671 -432 1736 -432 m 158 -421 q 434 -304 304 -414 q 654 -3 564 -194 l 578 43 q 393 147 481 103 l 393 100 q 422 36 393 63 q 489 10 450 10 l 489 0 l 133 0 l 133 10 q 202 36 174 10 q 231 100 231 63 l 231 214 q 124 228 176 228 q 19 213 72 228 q -72 169 -14 204 q -172 60 -129 133 q -207 -85 -207 -8 q -118 -315 -207 -210 q -24 -384 -74 -361 q 72 -414 26 -407 q 147 -421 118 -421 l 158 -421 m 653 10 l 660 11 l 669 33 q 553 299 625 139 l 393 667 l 393 158 q 582 51 483 111 l 653 10 z "},"":{"ha":1032,"x_min":26,"x_max":1078,"o":"m 885 -240 q 697 -139 786 -240 l 564 13 q 513 10 540 10 q 269 74 379 10 q 92 249 158 139 q 26 490 26 358 q 92 733 26 624 q 269 907 158 842 q 513 972 379 972 q 757 907 647 972 q 933 733 867 842 q 999 490 999 624 q 878 174 999 307 q 574 14 758 40 l 663 -85 l 664 -87 q 772 -140 717 -140 q 849 -119 810 -140 q 946 -46 889 -99 q 957 -17 957 -33 q 950 7 957 -4 l 956 14 l 1078 -137 l 1063 -153 q 1019 -186 1046 -167 q 957 -222 992 -206 q 885 -240 922 -237 m 513 19 q 553 24 533 19 l 450 135 l 456 142 l 563 26 q 756 197 679 64 q 836 489 835 339 q 792 708 836 599 q 674 889 747 817 q 513 961 600 961 q 352 889 425 961 q 235 708 279 817 q 190 489 190 600 q 235 271 192 378 q 352 92 279 164 q 513 19 425 19 z "},"":{"ha":1028,"x_min":-64,"x_max":1881,"o":"m 1400 -562 l 1363 -561 q 1107 -501 1229 -551 q 749 -293 904 -418 q 625 -204 724 -269 q 621 -240 625 -222 q 519 -414 604 -339 q 385 -493 461 -467 q 235 -519 310 -519 q 107 -499 167 -519 q 6 -435 47 -478 l 4 -432 q -19 -402 -3 -425 q -49 -343 -35 -379 q -64 -262 -64 -307 q -60 -221 -64 -242 q -11 -126 -44 -161 q 43 -78 22 -90 q 197 -36 108 -36 q 439 -93 310 -36 q 518 -131 478 -108 l 542 -143 l 615 -187 q 554 -4 615 -92 q 514 -7 535 -7 q 270 58 381 -7 q 94 233 160 124 q 28 475 28 343 q 94 717 28 608 q 270 891 160 826 q 514 956 381 956 q 758 891 649 956 q 934 717 868 826 q 1000 475 1000 608 q 876 155 1000 289 q 567 -3 753 21 q 626 -193 626 -94 q 756 -260 657 -214 q 1289 -387 1029 -387 q 1658 -287 1499 -387 l 1671 -279 q 1731 -182 1731 -239 q 1725 -150 1731 -165 l 1736 -143 q 1824 -292 1775 -214 l 1881 -386 q 1400 -562 1642 -562 m 525 4 q 547 7 538 4 l 471 92 q 469 93 469 92 q 399 178 418 149 q 369 283 369 222 q 401 385 369 342 q 517 454 446 442 q 551 457 533 457 q 667 421 613 457 q 742 333 714 389 q 765 231 765 282 q 735 115 765 169 q 778 188 753 140 q 823 303 803 236 q 843 450 843 369 q 789 697 843 571 q 673 874 744 803 q 514 946 601 946 q 353 874 428 946 q 235 693 279 801 q 190 476 190 585 l 190 471 q 294 156 197 296 q 514 4 392 15 l 525 4 m 560 8 q 690 72 629 24 q 715 100 696 76 q 750 193 750 144 q 747 215 750 204 q 654 314 726 292 q 617 319 636 319 q 518 282 564 319 q 463 190 472 244 l 461 174 q 490 86 461 126 q 556 13 517 65 l 560 8 m 235 -511 q 383 -485 310 -511 q 514 -407 457 -458 q 611 -239 594 -333 q 615 -199 615 -217 q 531 -149 567 -168 q 199 -44 342 -44 q -4 -132 76 -44 q -50 -224 -35 -167 q -54 -264 -54 -244 q -6 -404 -54 -339 q 113 -490 40 -464 q 235 -511 169 -511 z "},"":{"ha":910,"x_min":7,"x_max":1842,"o":"m 1446 -383 q 1211 -357 1335 -383 q 957 -256 1076 -329 q 784 -101 847 -182 q 689 40 721 -19 q 565 374 597 193 l 300 374 l 300 99 q 326 36 300 63 q 390 10 353 10 l 390 0 l 44 0 l 44 10 q 108 36 82 10 q 135 99 135 63 l 135 800 q 103 878 135 844 q 39 904 75 904 l 10 904 l 7 913 l 135 968 l 300 968 l 300 911 q 654 910 632 911 q 809 830 735 897 q 893 657 883 763 l 893 646 q 844 497 893 560 q 732 401 794 433 l 711 392 q 672 378 690 383 l 665 376 q 575 374 644 374 q 621 207 590 286 q 697 44 644 129 q 831 -96 761 -47 q 940 -162 886 -135 q 1306 -244 1114 -244 q 1514 -219 1421 -244 q 1725 -139 1594 -203 l 1732 -135 q 1774 -82 1771 -110 q 1773 -67 1774 -69 q 1772 -64 1772 -65 l 1782 -58 q 1821 -222 1793 -83 q 1842 -314 1838 -306 q 1446 -383 1653 -383 m 517 383 q 546 386 532 383 l 549 386 q 583 394 563 388 q 685 485 649 421 q 726 618 722 549 l 728 639 q 700 760 728 701 q 618 860 672 819 q 521 901 560 897 l 300 901 l 300 383 l 517 383 z "},"":{"ha":1060,"x_min":-211,"x_max":1868,"o":"m 1429 -451 q 1103 -371 1268 -451 q 671 -129 939 -290 q 507 -28 567 -67 q 329 -308 440 -204 q 89 -417 214 -417 q -85 -367 -10 -417 l -110 -350 q -210 -175 -197 -276 l -211 -150 q -139 29 -211 -50 l -103 64 q -33 103 -85 81 q 104 125 18 125 q 283 90 193 124 q 467 6 374 57 q 135 826 383 214 q 99 869 122 854 q 47 885 75 885 q -14 861 17 885 l -21 869 l 78 972 l 254 972 l 578 174 q 722 499 629 288 q 894 906 894 889 q 878 944 894 928 q 839 961 863 961 l 839 972 l 1018 972 l 1018 961 q 901 886 942 961 q 751 542 850 772 q 582 161 614 228 l 607 101 l 567 0 l 519 0 l 511 -19 q 918 -206 658 -107 q 1282 -285 1124 -285 q 1461 -258 1371 -285 q 1675 -147 1546 -240 q 1706 -83 1706 -118 q 1700 -53 1706 -67 l 1710 -47 q 1799 -176 1725 -72 l 1868 -275 q 1429 -451 1635 -451 m 94 -407 q 313 -301 206 -404 q 499 -24 419 -199 q 299 74 397 36 q 104 114 201 111 l 99 115 q -96 57 -29 115 q -125 29 -100 54 q -201 -150 -201 -49 q -104 -342 -201 -260 l -78 -360 q 94 -407 -3 -407 m 503 -14 l 508 0 l 476 0 l 503 -14 z "},"":{"ha":1517,"x_min":-232,"x_max":1846,"o":"m 1439 -429 q 1190 -386 1317 -429 q 932 -274 1064 -343 q 661 -122 800 -204 q 486 -15 558 -64 l 475 -42 q 388 -192 438 -122 l 378 -207 q 275 -319 353 -247 q 72 -404 197 -392 l 60 -404 q -131 -337 -44 -404 q -231 -162 -218 -264 l -232 -137 q -208 -32 -232 -78 q -160 41 -185 14 q -125 75 -135 68 l -124 76 q -54 115 -106 93 q 83 138 -3 138 q 281 97 181 135 q 482 -1 381 58 l 486 11 q 268 546 429 154 l 154 826 q 67 885 124 885 q 6 861 36 885 l -1 869 l 100 972 l 271 972 l 596 176 l 776 582 l 678 826 q 642 869 665 854 q 590 885 618 885 q 528 861 557 885 l 522 869 l 622 972 l 792 972 l 1119 169 q 1435 885 1210 367 q 1439 906 1439 896 q 1423 944 1439 928 q 1383 961 1407 961 l 1383 972 l 1561 972 l 1561 961 q 1446 886 1486 961 l 1364 699 q 1125 157 1169 250 l 1147 101 l 1107 0 l 1014 0 l 782 569 l 601 164 l 626 101 l 586 0 l 493 0 l 490 -7 q 897 -193 633 -93 q 1261 -272 1103 -272 q 1440 -246 1350 -272 q 1654 -135 1525 -228 q 1685 -71 1685 -106 q 1679 -40 1685 -54 l 1689 -35 q 1776 -162 1707 -64 l 1846 -261 q 1592 -408 1718 -375 q 1439 -429 1517 -429 m 74 -394 q 292 -289 185 -392 q 478 -11 399 -186 q 278 86 376 49 q 83 126 181 124 l 78 128 q -117 69 -50 128 q -146 42 -121 67 q -222 -137 -222 -36 q -125 -329 -222 -247 l -99 -347 q 74 -394 -24 -394 z "},"":{"ha":678,"x_min":22,"x_max":675,"o":"m 675 -1 l 429 0 l 429 113 q 403 78 419 96 q 286 10 357 28 q 206 -1 242 -1 q 79 44 124 -1 q 22 186 22 101 q 24 214 22 208 q 83 329 38 285 l 110 350 q 318 413 188 413 q 429 393 381 413 l 429 411 q 417 528 429 485 q 381 618 403 593 q 326 657 360 647 q 301 661 313 661 q 263 653 281 661 q 215 603 226 635 q 214 601 214 601 l 207 583 q 200 532 200 564 l 204 476 q 190 463 204 464 q 165 468 179 464 l 157 469 q 99 517 114 486 q 88 556 88 535 q 128 619 92 596 q 232 663 176 653 l 238 664 q 310 671 258 671 q 417 663 368 669 q 560 556 524 646 q 585 414 582 500 l 585 99 q 611 35 585 61 q 675 8 638 8 l 675 -1 m 329 69 q 399 92 368 69 q 429 135 421 113 l 429 383 q 357 394 407 394 q 273 378 319 394 q 196 318 226 363 q 171 228 171 276 q 218 113 171 158 q 329 69 269 69 z "},"":{"ha":792,"x_min":-1133,"x_max":763,"o":"m 251 0 l 4 0 l 4 10 q 69 36 43 10 q 96 100 96 63 l 96 815 q 63 894 96 861 q -6 921 33 921 q -29 918 -22 921 l -33 928 l 96 972 l 96 971 l 111 971 q 108 975 108 974 q 58 1007 93 988 q -171 1058 -32 1058 q -357 1028 -278 1058 q -418 1006 -393 1018 q -567 925 -500 968 q -624 892 -596 906 q -856 828 -740 828 q -919 833 -887 828 q -1008 868 -950 839 q -1133 976 -1067 897 l -981 1160 l -972 1151 q -983 1110 -983 1135 l -982 1096 q -876 988 -968 1035 q -681 940 -785 940 q -540 974 -611 940 q -375 1036 -490 999 q -306 1056 -332 1050 l -289 1058 q -165 1069 -232 1069 q 67 1015 -29 1069 q 125 972 110 989 l 251 972 l 251 585 q 489 669 357 669 q 644 619 585 669 q 733 490 704 568 q 763 328 763 411 q 681 98 763 193 q 481 3 599 3 q 251 86 340 3 l 251 0 m 385 36 q 461 63 419 36 q 558 163 513 93 q 608 333 603 233 q 574 486 608 415 q 456 614 531 574 q 389 628 426 628 q 251 569 310 628 l 251 106 l 260 94 l 278 78 q 385 36 329 36 z "},"":{"ha":794,"x_min":-1625,"x_max":765,"o":"m 251 0 l 4 0 l 4 10 q 69 36 43 10 q 96 100 96 63 l 96 818 q 63 894 96 863 q 35 907 54 901 q -28 918 -7 918 l -29 918 l -32 928 l 96 971 l 110 971 q -171 1074 -1 1074 q -407 1029 -281 1074 q -639 926 -526 985 l -733 881 q -943 801 -842 828 q -1107 776 -1025 779 q -1442 875 -1282 776 q -1625 1058 -1557 951 l -1625 1060 l -1464 1175 l -1432 1196 l -1426 1188 q -1439 1153 -1439 1174 q -1328 987 -1439 1085 q -1067 853 -1217 889 l -1061 851 q -961 843 -1032 843 l -926 846 q -839 858 -892 847 q -722 896 -771 871 l -689 913 q -411 1039 -528 994 q -172 1085 -283 1085 q -64 1072 -115 1085 q 124 972 49 1046 l 251 972 l 251 585 q 324 631 276 607 q 467 665 385 665 q 683 579 588 665 q 745 476 725 536 q 765 351 765 417 q 727 176 765 260 q 614 46 689 92 q 461 7 546 7 q 351 25 406 7 q 251 86 281 56 l 251 0 m 388 36 q 461 63 419 36 q 558 163 513 93 q 608 333 603 233 q 574 486 608 415 q 483 597 540 557 q 411 626 451 621 q 407 628 410 628 q 253 571 326 628 l 251 569 l 251 106 q 381 36 304 46 l 388 36 z "},"":{"ha":635,"x_min":26,"x_max":624,"o":"m 346 -15 q 76 136 165 -10 q 26 325 26 218 q 72 497 26 426 q 188 607 117 568 q 338 651 258 646 l 364 653 q 493 622 436 653 q 557 540 550 592 q 546 503 557 517 q 453 449 518 453 q 444 452 449 449 q 440 461 440 456 l 440 476 q 418 596 440 554 q 363 633 400 624 q 322 639 340 639 q 247 615 276 639 q 149 397 149 532 q 217 203 149 285 q 331 121 264 149 q 461 93 397 93 q 589 135 539 93 q 618 181 610 158 l 624 172 q 588 107 617 150 q 499 26 558 64 q 449 1 489 18 q 346 -15 408 -15 z "},"":{"ha":803,"x_min":-1197,"x_max":796,"o":"m 313 -7 q 111 90 194 -7 q 28 322 28 186 q 57 485 28 406 q 148 615 86 564 q 306 667 210 667 q 488 618 408 667 q 542 582 517 601 l 542 814 q 510 893 542 858 q 446 918 482 918 l 417 918 l 414 928 l 542 975 l 574 975 q 363 1108 496 1075 q 257 1119 313 1119 q 21 1075 147 1119 q -200 976 -93 1033 l -251 951 q -299 928 -272 942 q -410 883 -326 914 q -603 839 -494 853 q -669 836 -621 836 q -1100 989 -928 836 q -1197 1104 -1171 1057 l -1042 1215 l -1010 1236 l -1004 1226 q -1006 1222 -1004 1225 q -1010 1209 -1008 1218 q -1011 1192 -1011 1200 q -965 1085 -1011 1140 q -850 983 -919 1029 q -704 913 -774 933 q -532 886 -633 886 q -385 908 -468 886 q -250 964 -328 925 l -187 994 q 17 1085 -87 1044 q 257 1129 146 1129 q 364 1118 313 1129 q 586 976 507 1083 l 706 976 l 706 93 q 736 35 711 58 q 796 13 761 13 l 796 0 l 542 0 l 542 76 q 354 -4 471 11 q 313 -7 333 -7 m 438 44 q 494 57 467 44 q 542 93 528 75 l 542 569 q 424 624 499 613 q 404 625 415 625 q 272 576 328 625 q 185 376 185 499 l 185 350 q 232 167 185 249 l 233 165 q 299 94 257 126 l 303 92 q 438 44 371 44 z "},"":{"ha":635,"x_min":26,"x_max":626,"o":"m 339 -14 q 210 14 274 -14 q 83 128 122 58 q 35 257 44 197 q 26 325 26 317 q 72 497 26 426 q 188 607 117 568 q 338 651 258 646 l 382 654 q 502 624 454 654 q 556 551 550 593 q 518 465 556 497 q 388 436 478 436 l 328 436 q 207 419 249 436 q 153 376 185 411 q 238 156 161 253 l 239 154 q 400 61 299 74 l 422 60 q 513 79 468 60 q 589 135 557 99 q 618 181 610 161 q 626 175 625 178 q 539 57 601 108 q 339 -14 450 -14 m 151 393 q 242 438 189 431 q 350 446 294 446 l 367 446 q 439 453 406 446 l 440 464 q 443 504 443 488 q 418 592 443 556 l 417 593 q 350 639 394 628 q 325 642 338 642 q 260 624 288 642 q 225 599 232 607 l 224 599 q 169 514 188 567 q 151 400 151 461 l 151 393 z "},"":{"ha":765,"x_min":-1653,"x_max":761,"o":"m 761 0 l 425 0 l 425 10 q 489 37 463 10 q 515 101 515 64 l 515 342 q 494 489 515 415 q 410 611 472 563 q 343 633 383 632 q 256 599 294 633 l 253 597 l 253 100 q 257 74 253 86 q 343 10 283 10 l 343 0 l 6 0 l 6 10 q 70 36 43 10 q 97 100 97 63 l 97 814 q 64 893 97 858 q 10 918 42 914 l -28 918 l -32 928 l 97 971 l 121 971 q -93 1107 43 1075 q -199 1118 -143 1118 q -435 1074 -308 1118 q -636 986 -539 1036 l -753 928 l -783 914 q -874 876 -828 893 q -1087 824 -954 840 q -1142 821 -1108 821 q -1486 926 -1326 821 q -1653 1103 -1593 1003 l -1653 1104 l -1497 1214 l -1465 1235 l -1458 1226 q -1465 1189 -1465 1214 q -1422 1086 -1465 1139 q -1290 957 -1379 1025 q -1029 863 -1164 863 q -857 894 -939 864 l -757 938 q -740 944 -743 944 l -671 979 q -439 1083 -558 1038 q -199 1128 -310 1128 q -92 1117 -143 1128 q 133 971 54 1081 l 253 971 l 253 607 q 393 665 307 650 q 450 669 414 669 q 544 653 492 669 q 578 636 554 650 q 651 539 632 597 q 671 451 669 481 l 671 143 q 673 80 672 83 q 674 74 674 76 q 761 10 699 10 l 761 0 z "},"":{"ha":349,"x_min":-1617,"x_max":343,"o":"m 343 0 l 6 0 l 6 10 q 70 36 43 10 q 97 100 97 63 l 97 814 q 64 893 97 860 q 1 919 38 919 l -28 919 l -32 928 l 96 975 l 117 975 q -162 1078 8 1078 q -399 1033 -272 1078 q -600 946 -503 996 q -660 916 -632 931 q -717 889 -689 901 q -837 836 -794 853 q -1051 783 -918 800 q -1119 779 -1078 779 q -1351 828 -1239 779 q -1533 954 -1469 883 q -1617 1063 -1597 1025 l -1617 1064 l -1425 1196 l -1418 1188 l -1419 1185 q -1426 1144 -1426 1168 q -1382 1043 -1426 1090 q -1199 911 -1311 969 q -1103 865 -1151 885 q -926 838 -1026 838 q -821 854 -881 838 l -712 901 q -635 939 -687 913 q -403 1043 -522 999 q -164 1089 -275 1089 q -56 1076 -107 1089 q 132 975 57 1050 l 253 975 l 253 100 q 279 36 253 63 q 343 10 306 10 l 343 0 z "},"":{"ha":349,"x_min":-1161,"x_max":343,"o":"m 343 0 l 6 0 l 6 10 q 69 36 43 10 q 96 100 96 63 l 96 814 q 64 893 96 860 q 0 919 36 919 l -29 919 l -32 929 l 96 975 l 122 975 q 81 1019 104 1000 q 31 1051 65 1032 q -60 1087 -4 1071 q -199 1103 -115 1103 q -385 1072 -306 1103 q -446 1050 -421 1061 q -587 974 -542 1004 q -658 933 -618 954 q -878 872 -774 872 q -1028 918 -954 872 q -1161 1021 -1115 971 l -999 1217 l -989 1208 q -1000 1160 -1000 1190 l -1000 1153 q -940 1064 -989 1097 q -697 986 -825 986 q -549 1022 -619 986 l -483 1051 q -350 1096 -417 1081 l -339 1099 q -190 1114 -272 1114 q 71 1039 -32 1114 q 135 975 108 1011 l 253 975 l 253 100 q 279 36 253 63 q 343 10 306 10 l 343 0 z "},"":{"ha":367,"x_min":-1561,"x_max":354,"o":"m 354 0 q 231 4 283 0 q 128 44 160 11 l 119 53 q 99 111 101 79 l 99 575 l 8 575 l 8 585 q 75 599 46 585 q 147 650 121 621 q 249 801 249 756 q 268 993 268 922 q 254 1086 268 1042 q 251 1103 254 1096 q 241 1122 247 1111 q 226 1146 235 1132 q 89 1269 176 1225 q -107 1313 1 1313 q -596 1156 -300 1313 q -782 1071 -693 1106 q -1049 1017 -892 1021 q -1224 1042 -1147 1017 q -1437 1160 -1357 1086 l -1467 1185 q -1526 1254 -1489 1208 l -1561 1297 l -1561 1299 q -1458 1374 -1535 1317 l -1385 1429 l -1354 1450 l -1347 1442 q -1356 1393 -1354 1417 q -1303 1270 -1356 1329 q -1176 1167 -1251 1211 q -865 1075 -1021 1075 q -765 1089 -797 1075 l -737 1101 q -579 1174 -676 1126 q -347 1278 -467 1233 q -108 1324 -219 1324 q 88 1281 -1 1324 q 229 1160 176 1238 l 229 1161 l 239 1144 q 253 1117 249 1128 q 278 996 278 1060 q 254 775 278 919 l 254 585 l 354 585 l 354 575 l 254 575 l 254 124 q 308 19 254 56 q 354 10 336 10 l 354 0 z "},"":{"ha":649,"x_min":0,"x_max":632,"o":"m 451 3 l 368 3 q 261 265 313 142 q 156 524 210 388 q 119 568 143 553 q 68 583 96 583 q 7 560 35 583 l 0 568 l 99 672 l 261 672 l 336 489 q 414 608 365 550 q 526 672 463 667 q 589 653 561 672 q 632 550 632 621 q 608 443 632 496 q 542 302 583 390 q 472 153 501 214 l 492 106 l 451 3 m 468 164 l 515 267 l 526 294 q 551 408 551 347 q 541 474 551 443 q 503 524 531 506 q 443 542 475 542 q 399 531 418 542 q 358 496 379 521 q 343 471 347 482 l 468 164 z "},"":{"ha":1018,"x_min":0,"x_max":1000,"o":"m 815 3 l 731 3 q 576 382 688 111 l 478 146 l 493 107 l 453 3 l 368 3 q 253 289 308 156 q 157 522 207 397 q 120 567 144 551 q 68 582 96 582 q 7 558 38 582 l 0 565 l 100 671 l 263 671 l 472 160 l 571 394 l 518 522 q 482 567 506 551 q 431 582 458 582 q 368 558 397 582 l 361 565 l 461 671 l 626 671 l 703 483 q 781 606 732 546 q 894 671 829 665 q 958 651 932 671 q 1000 557 999 619 l 1000 543 q 977 441 1000 490 q 897 271 954 392 q 840 149 840 150 l 857 107 l 815 3 m 835 160 l 851 197 q 907 324 903 304 l 908 326 q 919 406 919 364 q 909 472 919 440 q 872 521 899 503 q 813 539 844 539 q 719 482 756 539 q 710 467 710 468 l 835 160 z "},"ﬀ":{"ha":710,"x_min":13,"x_max":846,"o":"m 647 0 l 14 0 l 14 10 q 79 36 53 10 q 106 101 106 63 l 106 574 l 13 574 l 13 583 q 78 610 51 583 q 106 676 106 638 l 106 736 q 160 885 106 814 q 226 940 183 918 q 306 958 263 958 q 350 953 326 958 q 442 886 410 935 q 526 946 471 922 q 643 969 581 969 q 694 966 669 969 q 763 944 718 963 q 833 876 808 925 q 846 821 846 851 q 822 756 846 786 q 797 738 810 743 q 774 732 783 733 q 763 731 764 731 q 692 769 717 731 q 681 814 681 792 q 690 858 681 844 q 699 889 699 872 q 681 932 699 913 l 678 935 q 619 956 656 956 q 592 953 604 956 l 588 951 q 543 938 575 950 q 491 894 511 925 q 471 829 471 864 q 492 748 471 789 q 556 674 514 707 l 557 674 l 557 583 l 708 583 l 708 574 l 557 574 l 557 100 q 583 36 557 63 q 647 10 610 10 l 647 0 m 331 13 q 381 45 361 21 q 400 101 400 69 l 400 574 l 263 574 l 263 100 q 281 44 263 68 q 331 13 300 21 m 307 583 q 373 610 346 583 q 400 676 400 638 l 400 747 q 429 865 400 808 q 436 876 432 872 q 346 944 404 925 l 343 946 q 300 951 329 951 q 246 939 276 951 q 194 893 208 917 q 181 840 181 869 q 261 674 181 765 l 263 674 l 263 583 l 307 583 z "},"ﬁ":{"ha":650,"x_min":11,"x_max":644,"o":"m 644 0 l 13 0 l 13 10 q 78 37 51 10 q 104 101 104 64 l 104 574 l 11 574 l 11 583 q 77 610 50 583 q 104 676 104 638 l 104 743 q 133 865 104 806 q 217 940 157 910 q 350 969 278 969 q 399 966 375 969 q 468 944 424 963 q 539 876 513 925 q 550 822 550 853 q 526 756 550 788 q 501 738 514 743 q 478 732 488 733 q 467 731 468 731 q 426 742 444 731 q 386 808 389 763 l 385 814 q 394 858 385 844 q 403 889 403 872 l 401 900 q 382 935 396 922 q 325 956 361 956 q 296 953 308 956 l 292 951 q 248 938 279 950 q 193 893 217 925 q 176 829 176 864 q 197 749 176 790 q 261 674 218 707 l 261 583 l 397 583 l 397 668 l 554 668 l 554 100 q 581 36 554 63 q 644 10 607 10 l 644 0 m 329 13 q 378 44 358 21 q 397 100 397 68 l 397 574 l 261 574 l 261 100 q 280 44 261 68 q 329 13 299 21 z "},"ﬂ":{"ha":650,"x_min":13,"x_max":644,"o":"m 644 0 l 14 0 l 14 10 q 79 36 53 10 q 106 101 106 63 l 106 574 l 13 574 l 13 583 q 78 610 51 583 q 106 676 106 638 l 106 736 l 108 758 q 122 815 110 781 q 160 885 133 849 q 233 944 192 925 q 315 970 275 964 q 378 976 356 976 q 554 975 400 975 l 554 100 q 581 36 554 63 q 644 10 607 10 l 644 0 m 331 13 q 379 45 360 21 q 399 100 399 69 l 399 574 l 263 574 l 263 100 q 281 44 263 68 q 331 13 300 21 m 399 583 l 399 965 q 333 961 371 965 q 194 893 232 951 q 179 835 179 867 q 200 752 179 794 q 261 674 221 710 l 263 674 l 263 583 l 399 583 z "},"ﬃ":{"ha":944,"x_min":11,"x_max":938,"o":"m 938 0 l 13 0 l 13 10 q 78 37 51 10 q 104 101 104 64 l 104 574 l 11 574 l 11 583 q 77 610 50 583 q 104 676 104 638 l 104 736 q 158 885 104 814 q 225 940 182 918 q 304 958 261 958 q 349 953 325 958 q 440 886 408 935 q 524 946 469 922 q 642 969 579 969 q 692 966 668 969 q 762 944 717 963 q 832 876 807 925 q 844 821 844 851 q 821 756 844 786 q 795 738 808 743 q 772 732 782 733 q 761 731 763 731 q 690 769 715 731 q 679 814 679 792 q 688 858 679 844 q 697 889 697 872 q 679 932 697 913 l 676 935 q 618 956 654 956 q 590 953 603 956 l 586 951 q 542 938 574 950 q 490 894 510 925 q 469 829 469 864 q 491 748 469 789 q 554 674 513 707 l 556 674 l 556 583 l 690 583 l 690 668 l 847 668 l 847 100 q 874 36 847 63 q 938 10 900 10 l 938 0 m 329 13 q 379 45 360 21 q 399 101 399 69 l 399 574 l 261 574 l 261 100 q 280 44 261 68 q 329 13 299 21 m 306 583 q 372 610 344 583 q 399 676 399 638 l 399 747 q 428 865 399 808 q 435 876 431 872 q 344 944 403 925 l 342 946 q 299 951 328 951 q 244 939 275 951 q 193 893 207 917 q 179 840 179 869 q 260 674 179 765 l 261 674 l 261 583 l 306 583 m 624 13 q 672 44 653 21 q 690 100 690 68 l 690 574 l 556 574 l 556 100 q 574 44 556 68 q 624 13 593 21 z "},"ﬄ":{"ha":942,"x_min":11,"x_max":936,"o":"m 936 0 l 13 0 l 13 10 q 78 37 51 10 q 104 101 104 64 l 104 574 l 11 574 l 11 583 q 77 610 50 583 q 104 676 104 638 l 104 736 q 158 885 104 814 q 225 940 182 918 q 304 958 261 958 q 349 953 325 958 q 446 878 413 933 l 449 882 q 525 944 486 926 q 669 976 592 976 q 846 975 692 975 l 846 100 q 872 36 846 63 q 936 10 899 10 l 936 0 m 329 13 q 378 45 358 21 q 397 101 397 69 l 397 574 l 261 574 l 261 100 q 280 44 261 68 q 329 13 299 21 m 304 583 q 370 610 343 583 q 397 676 397 638 l 397 736 l 399 756 q 410 805 401 775 q 439 868 418 835 q 344 944 411 924 l 342 946 q 299 951 328 951 q 244 939 275 951 q 193 893 207 917 q 179 840 179 869 q 260 674 179 765 l 261 674 l 261 583 l 304 583 m 621 13 q 670 45 651 21 q 689 100 689 69 l 689 574 l 554 574 l 554 100 q 573 44 554 68 q 621 13 592 21 m 689 583 l 689 965 q 625 961 663 965 q 486 893 524 951 q 471 835 471 867 q 492 752 471 794 q 553 674 513 710 l 554 674 l 554 583 l 689 583 z "},"ﬆ":{"ha":881,"x_min":33,"x_max":871,"o":"m 871 0 l 851 0 q 714 10 767 0 q 651 40 678 17 l 650 42 q 617 100 624 64 q 615 575 615 107 l 524 575 l 524 585 q 661 647 606 585 l 663 650 l 664 650 q 760 779 751 740 l 760 824 q 744 872 760 846 q 599 935 703 935 q 503 912 536 935 q 459 855 471 889 q 447 788 447 821 l 447 396 l 369 433 q 372 469 372 451 q 347 558 372 521 q 268 604 314 604 q 182 563 222 604 q 157 486 157 528 q 182 417 157 454 q 252 354 213 375 q 335 320 292 333 q 415 288 378 307 q 476 229 451 268 q 490 196 488 211 q 496 167 496 174 q 435 36 496 82 q 329 0 389 0 l 58 0 l 58 224 q 79 203 67 214 q 136 167 111 176 l 136 157 q 181 49 136 93 q 226 21 204 28 q 301 8 260 8 q 383 36 357 8 q 408 97 408 64 l 407 108 q 361 165 400 144 q 267 204 322 186 q 144 255 204 224 q 51 349 83 286 l 50 351 q 33 433 33 390 q 39 478 33 454 q 74 544 51 518 q 117 585 97 571 q 140 599 138 599 q 225 617 183 617 q 261 615 243 617 q 299 614 279 614 q 408 640 356 614 q 438 658 428 650 l 438 788 q 449 854 438 817 q 599 944 476 944 q 699 924 661 944 q 753 876 736 904 q 769 824 769 849 l 769 779 l 771 779 l 769 585 l 860 585 l 860 575 l 769 575 l 769 124 q 825 19 769 53 q 871 10 853 10 l 871 0 z "},"":{"ha":1076,"x_min":69,"x_max":1007,"o":"m 1007 0 l 754 0 q 689 121 754 3 q 541 22 610 44 q 415 0 472 0 q 252 49 331 4 q 122 172 174 94 q 69 347 69 249 q 158 574 69 476 q 381 692 247 672 q 363 732 372 704 q 353 792 353 760 q 397 911 353 861 q 499 969 429 957 l 499 961 q 469 946 479 957 q 456 922 460 935 q 453 901 453 908 q 465 860 453 879 l 503 792 q 557 692 528 743 q 561 682 557 689 l 775 292 q 800 442 800 372 q 768 527 800 494 q 690 560 736 560 l 690 571 l 907 571 l 907 560 q 839 533 867 560 q 811 465 811 506 q 807 381 811 414 q 783 276 800 328 l 890 79 q 1007 11 935 11 l 1007 0 m 542 113 q 682 136 610 113 q 534 407 661 172 q 388 681 407 642 l 385 679 q 337 647 372 674 q 267 569 301 619 q 221 446 232 519 q 219 413 219 439 q 278 231 219 311 q 392 143 322 174 q 542 113 461 113 z "}}}
